<?xml version="1.0" standalone="no"?>
<!DOCTYPE svg PUBLIC "-//W3C//DTD SVG 1.1//EN" "http://www.w3.org/Graphics/SVG/1.1/DTD/svg11.dtd" >
<svg xmlns="http://www.w3.org/2000/svg">
<metadata>Generated by IcoMoon</metadata>
<defs>
<font id="fisfont" horiz-adv-x="1024">
<font-face units-per-em="1024" ascent="960" descent="-64" />
<missing-glyph horiz-adv-x="1024" />
<glyph unicode="&#x20;" horiz-adv-x="512" d="" />
<glyph unicode="&#xe900;" glyph-name="Accounts" d="M587.662 21.333c-201.367 0.866-364.272 164.305-364.272 365.792 0 202.023 163.772 365.796 365.796 365.796 100.349 0 191.261-40.408 257.351-105.84l-0.030 0.030c66.993-66.326 108.475-158.311 108.475-259.985 0-202.023-163.772-365.796-365.796-365.796-0.536 0-1.071 0.001-1.607 0.003zM587.662 696.036c-170.585-0.027-308.86-138.319-308.86-308.907 0-170.604 138.302-308.907 308.907-308.907s308.907 138.302 308.907 308.907c0 85.314-34.585 162.55-90.5 218.453v0c-55.553 55.874-132.47 90.455-217.464 90.455-0.348 0-0.696-0.001-1.043-0.002zM252.587 244.907c-100.407 66.301-165.742 178.642-165.742 306.243 0 202.023 163.772 365.796 365.796 365.796 148.118 0 275.674-88.034 333.2-214.633l-51.405-25.050c-49.217 109.221-157.127 183.878-282.473 183.878-170.604 0-308.907-138.302-308.907-308.907 0-108.353 55.787-203.676 140.204-258.814zM609.28 549.262c18.705-0.692 36.425-3.762 53.232-8.92 16.681-5.183 32.417-13.746 46.003-24.841l-42.915-48.159c-7.425 7.27-16.326 13.064-26.209 16.887-9.218 3.99-19.306 6.447-29.899 6.998l-0.212-70.533 34.702-11.947c12.388-4.597 23.106-10.551 32.738-17.862 9.297-7.064 17.271-15.945 23.349-26.092 6.002-11.078 9.393-23.754 9.393-37.221 0-1.062-0.021-2.119-0.063-3.171 0.022-0.538 0.032-1.35 0.032-2.165 0-14.415-3.154-28.094-8.809-40.383-5.352-11.094-13.023-20.949-22.38-28.876-9.479-7.842-20.445-14.037-32.398-18.096-12.039-4.219-25.094-6.691-38.678-7.037l-0.163-32.43h-32.427v32.427c-20.624 0.86-40.062 4.75-58.268 11.238-18.42 6.288-35.477 16.375-49.968 29.282l23.472 23.764 22.187 24.462c4.031-4.467 8.508-8.402 13.398-11.78 4.985-3.514 10.389-6.731 16.043-9.521l17.776-6.574c2.393-0.357 5.155-0.56 7.964-0.56s5.571 0.204 8.272 0.597l-0.307 74.488q-18.773 5.12-36.409 11.947c-11.75 4.379-21.911 10.144-30.966 17.253-17.533 13.898-28.836 35.486-28.836 59.715 0 1.141 0.025 2.277 0.075 3.406-0.009 0.098-0.010 0.404-0.010 0.71 0 13.803 3.367 26.82 9.325 38.274 5.84 11.225 13.862 21.065 23.514 28.993 9.227 7.692 19.788 13.858 31.282 18.095 10.947 4.17 22.763 6.813 35.080 7.615l0.359 30.17h32.427zM576.853 492.373c-8.307-0.926-15.711-4.209-21.686-9.157-5.882-4.987-9.634-12.465-9.634-20.82 0-0.461 0.011-0.92 0.034-1.376-0.028-0.386-0.043-0.912-0.043-1.442 0-7.899 3.286-15.031 8.565-20.103 6.304-5.255 13.993-9.047 22.436-10.762zM607.573 285.867c0.207-0.005 0.452-0.008 0.697-0.008 17.595 0 31.858 14.263 31.858 31.858 0 1.004-0.046 1.997-0.137 2.978 0.060 0.517 0.089 1.266 0.089 2.021 0 8.346-3.524 15.87-9.166 21.163-6.598 5.301-14.385 9.403-22.874 11.846z" />
<glyph unicode="&#xe901;" glyph-name="Action" d="M732.729 434.916l-40.391 40.391 148.48 147.911-148.48 148.48 40.391 40.391 188.302-188.871-188.302-188.302zM909.084 132.836h-794.169v518.827h738.418v-56.889h-681.529v-405.049h680.391v230.969h56.889v-287.858z" />
<glyph unicode="&#xe902;" glyph-name="Approval" d="M485.831 302.933l-129.707 112.64 37.547 43.236 84.196-73.387 142.791 183.751 44.942-34.702-179.769-231.538zM512-3.129c-0.169-0.001-0.369-0.002-0.57-0.002-25.464 0-48.656 9.727-66.064 25.668l-41.455 38.049c-7.302 6.846-17.153 11.050-27.985 11.050-1.565 0-3.109-0.088-4.628-0.259l-56.702-6.81c-3.034-0.33-6.554-0.518-10.117-0.518-47.398 0-87.015 33.313-96.715 77.802l-11.497 57.543c-2.427 11.979-9.737 21.9-19.716 27.77l-49.119 27.981c-29.994 16.957-49.91 48.637-49.91 84.967 0 14.786 3.299 28.802 9.201 41.352l23.073 50.606c2.352 5.009 3.725 10.877 3.725 17.067s-1.373 12.058-3.831 17.318l-23.219 50.948c-5.651 11.955-8.95 25.971-8.95 40.757 0 36.331 19.916 68.010 49.426 84.715l49.977 28.127c10.224 5.92 17.558 15.867 19.869 27.616l11.42 57.148c10.663 44.037 49.739 76.233 96.336 76.233 3.739 0 7.43-0.207 11.062-0.611l56.442-6.786c1.273-0.138 2.749-0.217 4.244-0.217 10.891 0 20.803 4.192 28.209 11.051l41.502 38.091c17.422 15.913 40.71 25.661 66.276 25.661s48.854-9.748 66.352-25.729l41.453-38.047c7.38-6.834 17.291-11.026 28.182-11.026 1.495 0 2.971 0.079 4.425 0.233l56.708 6.811c3.034 0.33 6.554 0.518 10.117 0.518 47.398 0 87.015-33.313 96.715-77.802l11.497-57.543c2.353-12.009 9.687-21.955 19.715-27.77l49.69-27.981c29.994-16.957 49.91-48.637 49.91-84.967 0-14.786-3.299-28.802-9.201-41.352l-23.642-51.174c-2.352-5.009-3.725-10.877-3.725-17.067s1.373-12.058 3.831-17.318l23.788-50.948c5.782-12.075 9.16-26.248 9.16-41.209 0-36.415-20.009-68.157-49.632-84.832l-49.981-28.128c-10.224-5.92-17.558-15.867-19.869-27.616l-11.42-57.148c-9.311-45.121-48.715-78.561-95.929-78.561-3.884 0-7.714 0.226-11.48 0.666l-56.431 6.214c-1.513 0.207-3.262 0.325-5.039 0.325-10.658 0-20.323-4.247-27.396-11.142l-41.521-38.107c-16.652-13.545-38.122-21.748-61.507-21.748-1.777 0-3.544 0.047-5.298 0.141zM376.036 128.284c25.742-0.013 49.157-9.963 66.619-26.223l41.47-38.061c7.357-7.108 17.389-11.487 28.444-11.487s21.087 4.38 28.456 11.499l41.517 38.104c17.421 15.912 40.709 25.659 66.273 25.659 3.909 0 7.766-0.228 11.556-0.671l56.428-6.783c1.724-0.264 3.713-0.415 5.737-0.415 19.526 0 35.77 14.054 39.169 32.598l11.415 57.133c4.964 28.895 22.011 53.045 45.649 67.453l49.925 28.12c12.543 7.162 20.861 20.454 20.861 35.69 0 6.248-1.399 12.168-3.9 17.467l-23.219 50.951c-5.627 11.933-8.912 25.921-8.912 40.676s3.285 28.742 9.163 41.271l23.642 50.604c2.395 5.049 3.794 10.969 3.794 17.217 0 15.235-8.318 28.528-20.66 35.584l-50.263 23.999c-24.387 13.976-41.95 37.508-47.678 65.359l-11.486 57.521c-3.967 18.802-20.419 32.711-40.121 32.711-1.699 0-3.374-0.103-5.019-0.304l-56.691-6.807c-3.104-0.345-6.702-0.542-10.346-0.542-25.887 0-49.452 9.937-67.091 26.204l-41.461 38.053c-7.357 7.108-17.389 11.487-28.444 11.487s-21.087-4.38-28.456-11.499l-41.517-38.104c-17.496-15.899-40.844-25.633-66.466-25.633-3.841 0-7.632 0.219-11.359 0.645l-56.433 6.784c-1.447 0.181-3.122 0.285-4.821 0.285-19.701 0-36.154-13.91-40.074-32.444l-11.425-57.156c-5.145-28.359-21.914-52.035-45.088-66.318l-49.916-28.118c-12.627-6.995-21.034-20.241-21.034-35.45 0-6.347 1.464-12.352 4.072-17.695l23.219-50.961c5.592-11.94 8.855-25.927 8.855-40.676s-3.263-28.736-9.107-41.278l-23.073-50.598c-2.395-5.049-3.794-10.969-3.794-17.217 0-15.235 8.318-28.528 20.66-35.584l49.694-23.999c24.337-14.032 41.876-37.538 47.675-65.352l11.489-57.528c4.219-18.812 20.778-32.657 40.57-32.657 1.54 0 3.060 0.084 4.557 0.247l56.704 6.81z" />
<glyph unicode="&#xe903;" glyph-name="Arrow" d="M608.142 150.471l-39.822 40.391 257.138 257.138-257.138 257.138 39.822 40.391 297.529-297.529-297.529-297.529zM158.151 476.444h707.129v-56.889h-707.129v56.889z" />
<glyph unicode="&#xe904;" glyph-name="Arrow_down" d="M271.36 568.604l240.64-241.209 240.64 241.209h-481.28zM512 287.573l309.476 309.476h-618.951zM682.667 540.16l-170.667-170.667-170.667 170.667z" />
<glyph unicode="&#xe905;" glyph-name="Dashboard" d="M234.382 366.080l-69.404 15.36c37.362 160.151 178.24 277.867 346.861 279.323l0.162 0.001c168.778-0.688 309.759-118.865 345.433-276.947l-68.953-17.169c-29.064 128.1-141.673 222.393-276.412 223.004h-0.068c-135.040-1.222-247.735-95.427-277.235-221.63zM492.109 317.434l168.951 168.951 40.227-40.227-168.951-168.951-40.227 40.227zM512 230.684c-40.216 0-72.818 32.602-72.818 72.818s32.602 72.818 72.818 72.818c40.216 0 72.818-32.602 72.818-72.818s-32.602-72.818-72.818-72.818zM512 319.431c-8.797 0-15.929-7.132-15.929-15.929s7.132-15.929 15.929-15.929c8.797 0 15.929 7.132 15.929 15.929s-7.132 15.929-15.929 15.929zM512 247.182c-31.419 0-56.889 25.47-56.889 56.889s25.47 56.889 56.889 56.889c31.419 0 56.889-25.47 56.889-56.889s-25.47-56.889-56.889-56.889zM512 304.071v0zM512 81.636c-0.026 0-0.057 0-0.088 0-70.088 0-130.953 39.485-161.566 97.423l-298.577 0.995-5.689 21.049c-11.25 38.879-17.721 83.537-17.721 129.707 0 267.060 216.495 483.556 483.556 483.556 0.030 0 0.060 0 0.090 0h-0.005c0.676 0.003 1.476 0.005 2.277 0.005 265.405 0 480.634-214.831 481.279-480.086v-0.062c-0.307-46.714-7.143-91.711-19.64-134.287l-4.823-17.037h-295.822c-30.559-60.439-92.148-101.173-163.259-101.262zM95.573 236.942h292.409l7.396-18.204c18.815-47.599 64.427-80.658 117.76-80.658s98.945 33.059 117.461 79.803l7.694 19.059h290.133c6.526 27.805 10.267 59.731 10.267 92.531 0 1.669-0.010 3.337-0.029 5.002l0.002-0.253c-0.644 233.898-190.403 423.259-424.39 423.259-0.801 0-1.601-0.002-2.4-0.007l0.123 0.001c-235.392-1.607-425.706-192.321-426.666-427.712 0-0.242-0.001-0.419-0.001-0.596 0-32.692 3.731-64.512 10.792-95.058z" />
<glyph unicode="&#xe906;" glyph-name="Back" d="M262.827 368.356l-188.302 188.871 188.302 188.302 40.391-40.391-148.48-147.911 148.48-148.48-40.391-40.391zM765.724 180.053h-277.049v56.889h277.618c1.952-0.136 4.231-0.213 6.528-0.213 32.887 0 62.070 15.856 80.323 40.339 19.099 28.112 30.38 62.47 30.38 99.463 0 1.326-0.014 2.648-0.043 3.967 0.003 69.777-35.837 145.439-113.774 145.439h-627.484v56.889h625.778c113.778 0 170.667-101.831 170.667-202.524s-59.733-200.249-172.942-200.249z" />
<glyph unicode="&#xe907;" glyph-name="Bank" d="M550.116 578.276h56.889v-414.151h-56.889v414.151zM416.996 578.276h56.889v-414.151h-56.889v414.151zM819.2 578.276h56.889v-414.151h-56.889v414.151zM686.649 578.276h56.889v-414.151h-56.889v414.151zM280.462 578.276h56.889v-414.151h-56.889v414.151zM147.911 578.276h56.889v-414.151h-56.889v414.151zM930.133 549.831h-841.387v108.089l423.253 207.644 420.409-207.644zM145.636 606.72h727.609v15.929l-361.244 179.2-366.364-179.2zM113.778 136.818h796.444v-56.889h-796.444v56.889zM56.889 49.778h910.222v-56.889h-910.222v56.889z" />
<glyph unicode="&#xe908;" glyph-name="BillPay" d="M770.276-35.556h-726.471v944.924h726.471v-142.791h-56.889v85.902h-612.693v-831.147h612.693v116.622h56.889v-173.511zM199.111 694.329h307.769v-56.889h-307.769v56.889zM199.111 236.373h307.769v-56.889h-307.769v56.889zM199.111 541.867h244.053v-56.889h-244.053v56.889zM199.111 388.836h244.053v-56.889h-244.053v56.889zM750.933 203.947c-135.101 0-244.622 109.521-244.622 244.622s109.521 244.622 244.622 244.622c135.101 0 244.622-109.521 244.622-244.622 0-0.2 0-0.4-0.001-0.6-0.645-134.695-109.85-243.701-244.591-244.022zM750.933 636.302c-103.682-0.001-187.732-84.051-187.732-187.733s84.051-187.733 187.733-187.733c103.482 0 187.409 83.727 187.732 187.134 0.001 0.2 0.001 0.4 0.001 0.6 0 103.682-84.051 187.733-187.733 187.733 0 0-0.001 0-0.001 0zM765.156 556.658c12.535-0.457 24.415-2.504 35.685-5.947 11.042-3.374 21.475-9.023 30.468-16.368l-28.607-32.298c-4.91 4.81-10.775 8.666-17.282 11.254-6.204 2.703-13.001 4.345-20.141 4.671l-0.124-47.213 23.324-7.964c8.258-3.166 15.397-7.193 21.828-12.1 6.212-4.818 11.532-10.864 15.56-17.757 4.117-7.53 6.445-16.146 6.445-25.306 0-0.607-0.010-1.211-0.030-1.813 0.021-0.491 0.032-1.17 0.032-1.852 0-9.605-2.107-18.719-5.883-26.903-3.555-7.506-8.743-14.151-15.102-19.437-6.217-5.158-13.402-9.224-21.238-11.882-7.896-2.774-16.464-4.419-25.377-4.687l-0.127-21.621h-25.031v21.618c-14.014 0.536-27.238 3.202-39.591 7.683-12.3 4.253-23.67 11.039-33.318 19.704l15.451 15.848 15.36 16.498c2.68-2.989 5.665-5.613 8.934-7.855l10.977-6.367 11.378-3.982h10.809v50.062l-24.462 7.964c-7.837 2.886-14.615 6.732-20.635 11.496-5.704 4.478-10.482 10.165-13.93 16.665-3.395 6.992-5.299 14.876-5.299 23.205 0 0.742 0.015 1.48 0.045 2.215-0.007 0.13-0.009 0.408-0.009 0.686 0 9.026 2.102 17.561 5.843 25.142 3.745 7.29 8.903 13.72 15.117 18.932 6.087 5.039 13.065 9.086 20.654 11.867 7.348 2.882 15.286 4.712 23.575 5.264l0.239 20.493h21.618zM743.538 518.542c-5.481-0.747-10.336-2.987-14.265-6.293-3.818-3.322-6.245-8.241-6.245-13.727 0-0.362 0.011-0.722 0.031-1.079-0.019-0.243-0.029-0.584-0.029-0.928 0-5.215 2.193-9.918 5.706-13.236 4.244-3.602 9.436-6.197 15.149-7.366zM764.018 380.302c0.020 0 0.044 0 0.067 0 11.939 0 21.618 9.679 21.618 21.618 0 0.601-0.025 1.196-0.073 1.784 0.025 0.248 0.036 0.627 0.036 1.010 0 5.644-2.418 10.724-6.274 14.26-4.349 3.521-9.474 6.253-15.065 7.899z" />
<glyph unicode="&#xe909;" glyph-name="Bookmark" d="M173.511-36.124v967.68h559.787v-118.329h-56.889v61.44h-446.009v-789.618l225.28 187.733 220.729-183.182v137.671h56.889v-258.276l-277.618 229.831-282.169-234.951zM704.853 285.298c-129.132 0-233.813 104.682-233.813 233.813s104.682 233.813 233.813 233.813c129.132 0 233.813-104.682 233.813-233.813s-104.682-233.813-233.813-233.813zM704.853 695.467c-97.712-0.001-176.924-79.212-176.924-176.924s79.212-176.924 176.924-176.924c97.713 0 176.924 79.212 176.924 176.924 0 0.2 0 0.4-0.001 0.6 0 97.682-79.212 176.894-176.924 176.894zM677.547 611.271h56.889v-184.889h-56.889v184.889zM613.262 547.556h184.889v-56.889h-184.889v56.889z" />
<glyph unicode="&#xe90a;" glyph-name="Building" d="M442.027 79.929h-56.889v766.293h-246.329v-766.293h-56.889v823.182h360.107v-823.182zM954.027 79.929h-56.889v479.573h-483.556v56.889h540.444v-536.462zM180.338 793.316h56.889v-89.316h-56.889v89.316zM180.338 644.836h56.889v-89.316h-56.889v89.316zM180.338 496.924h56.889v-89.316h-56.889v89.316zM180.338 348.444h56.889v-89.316h-56.889v89.316zM180.338 200.533h56.889v-89.316h-56.889v89.316zM282.738 793.316h56.889v-89.316h-56.889v89.316zM282.738 644.836h56.889v-89.316h-56.889v89.316zM282.738 496.924h56.889v-89.316h-56.889v89.316zM282.738 348.444h56.889v-89.316h-56.889v89.316zM282.738 200.533h56.889v-89.316h-56.889v89.316zM487.538 496.924h56.889v-89.316h-56.889v89.316zM487.538 348.444h56.889v-89.316h-56.889v89.316zM589.938 496.924h56.889v-89.316h-56.889v89.316zM589.938 348.444h56.889v-89.316h-56.889v89.316zM692.338 496.924h56.889v-89.316h-56.889v89.316zM692.338 348.444h56.889v-89.316h-56.889v89.316zM794.738 496.924h56.889v-89.316h-56.889v89.316zM794.738 348.444h56.889v-89.316h-56.889v89.316zM897.138 496.924h56.889v-89.316h-56.889v89.316zM897.138 348.444h56.889v-89.316h-56.889v89.316zM897.138 200.533h56.889v-89.316h-56.889v89.316zM48.924 49.778h926.151v-56.889h-926.151v56.889zM749.227-7.111h-159.289v207.076h159.289zM646.827 49.778h45.511v93.298h-45.511z" />
<glyph unicode="&#xe90b;" glyph-name="Calendar" d="M989.867-35.556h-940.373v848.213h940.373zM105.813 21.333h827.164v734.436h-826.596zM83.058 621.511h884.053v-56.889h-884.053v56.889zM384.569 334.222h38.684c5.71 0.714 10.897 2.317 15.641 4.678 4.42 2.271 8.265 5.752 11.028 10.001 2.935 4.695 4.634 10.263 4.634 16.227 0 0.335-0.005 0.668-0.016 1.001 0.007 0.162 0.010 0.411 0.010 0.66 0 8.941-4.21 16.9-10.756 22.001-7.035 5.723-16.027 9.161-25.822 9.161-0.344 0-0.687-0.004-1.029-0.013-0.34 0.016-0.799 0.024-1.26 0.024-8.771 0-16.84-3.008-23.231-8.048-6.042-4.925-10.48-11.768-12.385-19.602l-71.162 15.111c3.136 12.793 8.438 24.018 15.553 33.845 6.29 8.614 14.231 16.011 23.348 21.701 9.361 5.645 19.804 9.955 30.901 12.573 11.417 2.68 23.676 4.132 36.274 4.132 0.308 0 0.616-0.001 0.923-0.003 0.041 0 0.145 0.001 0.249 0.001 13.854 0 27.272-1.869 40.015-5.368 11.326-2.959 22.16-8.25 31.617-15.289 8.978-6.752 16.452-15.499 21.738-25.574 5.592-10.826 8.753-23.138 8.753-36.189 0-0.624-0.007-1.247-0.022-1.868 0.018-0.47 0.027-1.132 0.027-1.797 0-15.306-4.914-29.464-13.251-40.982-9.048-11.661-22.364-19.946-37.622-22.502l-0.353-0.049c8.933-1.042 17.025-3.869 24.174-8.119 6.642-4.138 12.487-9.439 17.242-15.622 4.888-6.151 8.754-13.136 11.346-20.713 2.631-7.959 4.085-16.562 4.127-25.499 0.015-0.619 0.024-1.323 0.024-2.029 0-13.551-3.159-26.364-8.78-37.744-5.511-10.861-13.374-20.361-22.918-27.807-9.871-7.461-21.268-13.135-33.624-16.476-13.139-3.76-27.435-5.837-42.216-5.849-3.232-0.295-6.983-0.464-10.773-0.464-22.368 0-43.365 5.868-61.537 16.148-18.677 12.792-32.492 32.74-37.388 55.975l67.025 16.519c1.783-10.155 6.672-18.947 13.635-25.582 7.497-5.779 16.997-9.251 27.307-9.251 1.208 0 2.404 0.048 3.588 0.141 0.831-0.097 1.981-0.147 3.142-0.147 10.635 0 20.296 4.169 27.439 10.962 6.018 6.926 9.696 16.056 9.696 26.046 0 0.638-0.015 1.272-0.045 1.903 0.531 2.1 0.833 4.614 0.833 7.199 0 5.898-1.575 11.428-4.326 16.193-3.407 4.393-8.025 7.912-13.358 10.010-6.262 2.24-13.242 3.491-20.515 3.491-0.262 0-0.525-0.002-0.786-0.005h-35.8zM671.858 380.871l-60.302-52.907-35.84 41.529 97.849 83.058h59.164v-300.942h-60.871v229.262zM253.156 880.924h56.889v-165.547h-56.889v165.547zM729.316 880.924h56.889v-165.547h-56.889v165.547z" />
<glyph unicode="&#xe90c;" glyph-name="Camera" d="M512 199.964c-123.476 0-223.573 100.097-223.573 223.573s100.097 223.573 223.573 223.573c123.476 0 223.573-100.097 223.573-223.573s-100.097-223.573-223.573-223.573zM512 590.222c-92.057 0-166.684-74.627-166.684-166.684s74.627-166.684 166.684-166.684c92.057 0 166.684 74.627 166.684 166.684s-74.627 166.684-166.684 166.684zM978.489 49.778h-932.978v682.667h190.578l79.644 142.222h392.533l79.644-142.222h190.578zM102.4 106.667h819.2v568.889h-167.253l-79.644 142.222h-325.404l-79.644-142.222h-167.253z" />
<glyph unicode="&#xe90d;" glyph-name="Card" d="M719.644 122.596h-605.867c-47.128 0-85.333 38.205-85.333 85.333v337.351c0 47.128 38.205 85.333 85.333 85.333h608.711c47.128 0 85.333-38.205 85.333-85.333v-336.782c0.001-0.183 0.002-0.4 0.002-0.616 0-47.128-38.205-85.333-85.333-85.333-1.001 0-1.998 0.017-2.991 0.051zM113.778 573.724c-15.709 0-28.444-12.735-28.444-28.444v-336.782c0-15.709 12.735-28.444 28.444-28.444h608.711c15.709 0 28.444 12.735 28.444 28.444v336.782c0 15.709-12.735 28.444-28.444 28.444zM748.089 210.204v335.076c0 15.709-12.735 28.444-28.444 28.444h-267.947l-11.947 56.889 299.804 132.551c10.444 4.868 22.673 7.709 35.566 7.709 34.565 0 64.361-20.414 77.991-49.844l139.030-307.731c4.985-10.513 7.896-22.841 7.896-35.85 0-34.537-20.517-64.281-50.028-77.71zM584.249 630.613h135.396c47.128 0 85.333-38.205 85.333-85.333v-246.898l119.467 54.044c10.177 4.482 17.154 14.48 17.154 26.108 0 4.58-1.083 8.908-3.006 12.741l-138.734 307.036c-4.58 9.937-14.455 16.711-25.912 16.711-4.215 0-8.215-0.917-11.813-2.561zM358.4 42.382c-10.86 0.078-21.212 2.158-30.735 5.89-20.878 7.968-37.796 23.962-46.987 44.208l-38.332 85.297h303.218l11.947-56.889-164.409-71.111c-10.205-4.666-22.135-7.388-34.7-7.396zM329.956 120.32v-4.551c4.58-9.937 14.455-16.711 25.912-16.711 4.215 0 8.215 0.917 11.813 2.561l41.92 19.269zM150.187 290.987h349.867v-56.889h-349.867v56.889zM150.187 389.973h530.773v-56.889h-530.773v56.889zM150.187 490.098h91.591v-74.524h-91.591v74.524zM776.533 408.178l153.6 69.404-32.996 73.956-120.604-54.044v-89.316z" />
<glyph unicode="&#xe90e;" glyph-name="Chart" d="M233.813 278.471l-41.529 39.253 126.862 135.396 87.040-75.093 122.311 140.516 93.298-98.987 167.822 196.836 43.236-36.978-208.782-245.191-93.867 99.556-118.329-135.396-88.178 75.662-89.884-95.573zM967.111 65.707h-910.222v729.884h910.222zM113.778 122.596h796.444v616.107h-796.444z" />
<glyph unicode="&#xe90f;" glyph-name="Chat" d="M368.64 545.28c0-21.051-17.065-38.116-38.116-38.116s-38.116 17.065-38.116 38.116c0 21.051 17.065 38.116 38.116 38.116s38.116-17.065 38.116-38.116zM330.524 478.72c-36.267 0.64-65.422 30.19-65.422 66.55 0 36.76 29.8 66.56 66.56 66.56 36.757 0 66.555-29.794 66.56-66.55 0-0.003 0-0.007 0-0.010 0-36.76-29.8-66.56-66.56-66.56-0.4 0-0.799 0.004-1.198 0.011zM330.524 554.951c-5.341 0-9.671-4.33-9.671-9.671 0-10.809 19.342-10.809 19.342 0 0 5.341-4.33 9.671-9.671 9.671zM550.116 545.28c0-21.051-17.065-38.116-38.116-38.116s-38.116 17.065-38.116 38.116c0 21.051 17.065 38.116 38.116 38.116s38.116-17.065 38.116-38.116zM512 478.72c-36.76 0-66.56 29.8-66.56 66.56s29.8 66.56 66.56 66.56c36.76 0 66.56-29.8 66.56-66.56s-29.8-66.56-66.56-66.56zM512 554.951c-5.341 0-9.671-4.33-9.671-9.671 0-10.809 19.911-10.809 19.911 0 0 0.005 0 0.011 0 0.017 0 5.341-4.33 9.671-9.671 9.671-0.2 0-0.399-0.006-0.596-0.018zM732.16 545.28c0-21.051-17.065-38.116-38.116-38.116s-38.116 17.065-38.116 38.116c0 21.051 17.065 38.116 38.116 38.116s38.116-17.065 38.116-38.116zM693.476 478.72c-36.76 0-66.56 29.8-66.56 66.56s29.8 66.56 66.56 66.56c36.76 0 66.56-29.8 66.56-66.56s-29.8-66.56-66.56-66.56zM693.476 554.951c-5.341 0-9.671-4.33-9.671-9.671 0-10.809 19.911-10.809 19.911 0 0 0.005 0 0.011 0 0.017 0 5.341-4.33 9.671-9.671 9.671-0.2 0-0.399-0.006-0.596-0.018zM212.764-23.040v236.089h-155.876v666.169h910.222v-666.169h-517.689zM113.778 269.938h155.876v-155.876l155.876 155.876h484.693v552.391h-796.444z" />
<glyph unicode="&#xe910;" glyph-name="Chevron" d="M512 277.902l-279.893 279.893 40.391 39.822 239.502-239.502 239.502 239.502 40.391-39.822-279.893-279.893z" />
<glyph unicode="&#xe911;" glyph-name="Clipboard" d="M301.511 106.667v48.924h207.644v-48.924zM301.511 256.284v49.493h426.098v-49.493zM301.511 407.040v51.769h426.098v-48.924zM301.511 561.778v47.787h426.098v-47.787zM722.489 692.053h-420.978v159.858h125.156c11.619 36.76 45.418 62.943 85.333 62.943s73.715-26.183 85.16-62.311l125.328-0.633zM351.573 740.409h320.284v61.44h-121.173v25.031c0 21.365-17.32 38.684-38.684 38.684s-38.684-17.32-38.684-38.684v-25.031h-121.742zM749.796 802.987v-49.493h81.92v-724.764h-637.156v724.764h81.92v49.493h-131.413v-822.613h733.867v822.613z" />
<glyph unicode="&#xe912;" glyph-name="Close" d="M175.329 726.91l40.149 40.304 632.365-629.941-40.149-40.304-632.365 629.941zM175.017 137.113l632.914 629.389 40.114-40.339-632.914-629.389-40.114 40.339z" />
<glyph unicode="&#xe913;" glyph-name="Compress" d="M412.444 553.813h-297.529v56.889h240.64v240.64h56.889v-297.529zM69.815 855.095l40.227 40.227 269.92-269.92-40.227-40.227-269.92 269.92zM412.444 352.427h-297.529v-56.889h240.64v-240.64h56.889v297.529zM70.249 51.694l269.92 269.92 40.227-40.227-269.92-269.92-40.227 40.227zM611.556 352.427h297.529v-56.889h-240.64v-240.64h-56.889v297.529zM643.555 281.086l40.227 40.227 269.92-269.92-40.227-40.227-269.92 269.92zM611.556 553.813h297.529v56.889h-240.64v240.64h-56.889v-297.529zM644.092 625.267l269.92 269.92 40.227-40.227-269.92-269.92-40.227 40.227z" />
<glyph unicode="&#xe914;" glyph-name="Delete" d="M512-35.556c-133.405 0.27-254.073 54.584-341.316 142.205-87.859 87.148-142.239 207.899-142.239 341.35s54.38 254.203 142.191 341.302c87.664 86.778 208.256 140.372 341.365 140.372s253.701-53.594 341.374-140.381c87.802-87.091 142.182-207.842 142.182-341.293s-54.38-254.203-142.191-341.302c-87.292-87.669-207.96-141.983-341.314-142.254zM512 871.253c-0.058 0-0.126 0-0.194 0-117.631 0-224.144-47.603-301.326-124.595-77.098-76.756-124.813-182.988-124.813-300.365s47.715-223.609 124.806-300.358c77.424-76.876 184.070-124.377 301.811-124.377s224.387 47.502 301.821 124.386c77.082 76.739 124.797 182.972 124.797 300.349s-47.715 223.609-124.806 300.358c-77.189 77-183.702 124.603-301.334 124.603-0.268 0-0.536 0-0.803-0.001zM347.116 571.667l40.149 40.304 289.783-288.673-40.149-40.304-289.783 288.673zM347.451 323.637l289.935 288.521 40.128-40.325-289.935-288.521-40.128 40.325z" />
<glyph unicode="&#xe915;" glyph-name="Direct_mail" d="M955.733-11.093l-443.733 308.907-443.733-308.907-32.427 46.649 476.16 331.662 476.16-331.662-32.427-46.649zM1000.676-33.849h-976.782v624.071l488.107 340.196 488.107-341.333zM80.782 23.040h863.004v538.738l-431.787 299.236-431.218-299.236zM653.084 207.36l-33.564 46.080 340.764 245.76 32.996-46.080-340.196-245.76zM370.916 207.36l-340.196 245.76 33.564 46.080 340.196-245.76-33.564-46.080zM799.289 327.396h-56.889v259.413h-460.8v-254.293h-57.458v311.182h575.147v-316.302zM362.951 537.884h298.667v-56.889h-298.667v56.889zM362.951 442.311h298.667v-56.889h-298.667v56.889z" />
<glyph unicode="&#xe916;" glyph-name="Donut" d="M796.444 499.769h68.267c-13.295 87.789-57.127 163.5-120.125 217.483l-35.181-56.488c44.363-41.705 75.51-97.007 86.775-159.231zM512 157.867c-0.455-0.003-0.994-0.004-1.533-0.004-160.236 0-290.133 129.897-290.133 290.133s129.897 290.133 290.133 290.133c39.092 0 76.378-7.731 110.413-21.748l32.773 57.593c-42.431 19.355-92.031 30.637-144.266 30.637-196.054 0-354.987-158.933-354.987-354.987s158.933-354.987 354.987-354.987c69.454 0 134.249 19.946 188.97 54.423l-43.567 49.198c-40.829-24.668-89.986-39.576-142.563-40.388zM796.444 396.231c-7.819-51.119-27.996-96.483-57.379-134.346l42.588-49.405c43.39 49.867 73.148 112.661 82.844 181.888z" />
<glyph unicode="&#xe917;" glyph-name="Download" d="M512 228.978l-238.364 240.64 40.391 40.391 197.973-199.68 197.973 199.68 40.391-40.391-238.364-240.64zM483.556 872.96h56.889v-599.040h-56.889v599.040zM946.062-5.404h-868.124v490.382h56.889v-433.493h754.347v433.493h56.889v-490.382z" />
<glyph unicode="&#xe918;" glyph-name="Edit" d="M130.276 41.813v211.627l563.2 563.2 211.058-211.058-563.2-563.769zM187.164 229.547v-130.844h131.413l506.311 506.311-130.844 130.844zM557.141 638.292l40.227 40.227 170.963-170.963-40.227-40.227-170.963 170.963z" />
<glyph unicode="&#xe919;" glyph-name="Email" d="M945.493 136.818h-866.987v634.88h866.987zM135.396 193.707h753.209v521.102h-753.209zM504.604 310.329l-398.222 398.222 39.822 40.391 358.969-358.969 372.622 359.538 39.822-40.96-413.013-398.222z" />
<glyph unicode="&#xe91a;" glyph-name="Error" d="M921.031 21.333h-811.804c-0.488-0.011-1.063-0.018-1.639-0.018-41.473 0-75.093 33.62-75.093 75.093 0 14.296 3.995 27.659 10.929 39.033l405.43 728.416c13.883 22.069 38.107 36.521 65.707 36.521s51.824-14.451 65.518-36.2l406.375-732.481c5.781-10.344 9.185-22.695 9.185-35.842 0-40.988-33.089-74.247-74.012-74.523zM512 846.222c-0.146 0.004-0.319 0.007-0.492 0.007-6.611 0-12.372-3.637-15.392-9.020l-402.819-730.542c-1.534-2.611-2.439-5.751-2.439-9.103 0-10.054 8.15-18.204 18.204-18.204 0.058 0 0.115 0 0.173 0.001h811.796c9.578 0.209 17.263 8.023 17.263 17.632 0 2.907-0.703 5.65-1.949 8.067l-406.14 730.923c-2.837 6.166-8.962 10.37-16.069 10.37-0.753 0-1.494-0.047-2.222-0.139zM568.889 253.44c-0.154-29.102-23.782-52.635-52.906-52.635-29.22 0-52.907 23.687-52.907 52.907s23.687 52.907 52.907 52.907c14.677 0 27.959-5.977 37.543-15.629 9.49-9.216 15.377-22.091 15.377-36.341 0-0.425-0.005-0.849-0.016-1.271zM561.493 346.169h-92.16v244.053h91.022z" />
<glyph unicode="&#xe91b;" glyph-name="Expand" d="M954.027 21.333h-299.236v56.889h242.347v242.347h56.889v-299.236zM503.426 430.103l40.227 40.227 376.52-376.52-40.227-40.227-376.52 376.52zM69.973 21.333h299.236v56.889h-242.347v242.347h-56.889v-299.236zM103.845 94.157l376.52 376.52 40.227-40.227-376.52-376.52-40.227 40.227zM954.027 904.818h-299.236v-56.889h242.347v-241.778h56.889v298.667zM503.469 495.971l376.52 376.52 40.227-40.227-376.52-376.52-40.227 40.227zM69.973 904.818h299.236v-56.889h-242.347v-241.778h-56.889v298.667zM103.888 832.613l40.227 40.227 376.52-376.52-40.227-40.227-376.52 376.52zM477.298 501.476h66.56v-66.56h-66.56v66.56z" />
<glyph unicode="&#xe91c;" glyph-name="Export" d="M709.973 632.889l-197.973 199.68-197.973-199.68-40.391 39.822 238.364 240.64 238.364-240.64-40.391-39.822zM483.556 868.978h56.889v-599.040h-56.889v599.040zM946.062-5.404h-868.124v490.382h56.889v-433.493h754.347v433.493h56.889v-490.382z" />
<glyph unicode="&#xe91d;" glyph-name="Eye" d="M512 193.707c-252.587 0-395.378 227.556-401.067 239.502l-9.102 14.791 9.102 14.791c5.689 9.671 148.48 239.502 401.067 239.502s395.378-227.556 401.067-239.502l9.102-14.791-9.102-14.791c-5.689-9.671-148.48-239.502-401.067-239.502zM170.667 448c34.702-48.356 157.013-197.404 341.333-197.404s307.769 149.049 341.333 197.404c-34.702 48.356-157.013 197.404-341.333 197.404s-307.769-149.049-341.333-197.404zM512 315.449c-73.206 0-132.551 59.345-132.551 132.551s59.345 132.551 132.551 132.551c73.206 0 132.551-59.345 132.551-132.551s-59.345-132.551-132.551-132.551zM512 523.662c-41.787 0-75.662-33.875-75.662-75.662s33.875-75.662 75.662-75.662c41.787 0 75.662 33.875 75.662 75.662s-33.875 75.662-75.662 75.662z" />
<glyph unicode="&#xe91e;" glyph-name="Favorite" d="M840.249 32.711l-328.249 160.996-328.249-160.996 83.627 307.2-255.431 234.951h351.004l149.049 299.236 149.049-300.942h351.004l-255.431-233.244zM512 256.853l240.071-117.76-56.889 219.022 170.667 158.72-240.071-0.569-113.778 227.556-113.778-227.556h-239.502l170.667-158.72-56.889-219.022z" />
<glyph unicode="&#xe91f;" glyph-name="File" d="M754.347 329.102h-494.364v56.889h494.364zM754.347 556.658h-494.364v-56.889h496.64zM754.347 210.773h-494.364v-56.889h494.364zM512 732.444h-252.018v-56.889h252.018zM878.933 36.124v643.982h-248.036v188.302h-484.124v-833.422zM935.822-20.764h-845.938v946.631h621.796l223.004-223.004zM822.044 736.996l-133.689 131.413v-131.982z" />
<glyph unicode="&#xe920;" glyph-name="Filecheck" d="M770.276-35.556h-726.471v944.924h726.471v-142.791h-56.889v85.902h-612.693v-831.147h612.693v116.622h56.889v-173.511zM199.111 694.329h307.769v-56.889h-307.769v56.889zM199.111 236.373h307.769v-56.889h-307.769v56.889zM199.111 541.867h244.053v-56.889h-244.053v56.889zM199.111 388.836h244.053v-56.889h-244.053v56.889zM750.933 203.947c-135.101 0-244.622 109.521-244.622 244.622s109.521 244.622 244.622 244.622c135.101 0 244.622-109.521 244.622-244.622 0-0.2 0-0.4-0.001-0.6-0.645-134.695-109.85-243.701-244.591-244.022zM750.933 636.302c-103.682-0.001-187.732-84.051-187.732-187.733s84.051-187.733 187.733-187.733c103.482 0 187.409 83.727 187.732 187.134 0.001 0.2 0.001 0.4 0.001 0.6 0 103.682-84.051 187.733-187.733 187.733 0 0-0.001 0-0.001 0zM735.573 345.031l-98.418 85.902 36.978 42.667 53.476-46.080 96.142 124.018 44.942-34.702-133.12-171.804z" />
<glyph unicode="&#xe921;" glyph-name="Finger_print" d="M782.222 440.036c-14.994-0.050-29.093-3.834-41.43-10.471-13.827 30.778-44.306 51.56-79.639 51.56-19.007 0-36.609-6.014-51.008-16.242-15.871 21.725-41.34 35.515-70.030 35.515-11.77 0-22.997-2.321-33.25-6.53l0.584 47.999c62.598 33.938 104.391 99.147 104.391 174.118 0 109.023-88.381 197.404-197.404 197.404s-197.404-88.381-197.404-197.404c0-74.971 41.793-140.18 103.352-173.601l1.040-163.219-70.542-26.738-43.236-195.698 87.040-142.791 24.462 14.791 22.187 15.36-15.36 25.6-56.889 97.28 31.858 143.36 147.342 56.32h2.844v-77.369s0-3.982 0-6.258l-104.676-47.787 23.893-52.338 103.538 47.218c16.242-18.439 39.906-30.011 66.272-30.011 18.842 0 36.303 5.91 50.632 15.976 15.977-21.7 41.512-35.458 70.261-35.458s54.284 13.758 70.382 35.049c14.159-9.68 31.581-15.606 50.388-15.606 11.616 0 22.705 2.261 32.849 6.367l-0.588-178.841h56.889v323.698c-0.32 48.884-39.863 88.426-88.716 88.747zM274.204 714.809c-0.005 0.434-0.008 0.947-0.008 1.461 0 77.605 62.911 140.516 140.516 140.516s140.516-62.911 140.516-140.516c0-41.995-18.422-79.687-47.626-105.435l-0.153 72.685c0 51.37-41.643 93.013-93.013 93.013s-93.013-41.643-93.013-93.013v-72.818c-28.906 25.567-47.079 62.701-47.218 104.082zM450.56 579.982c-10.811-3.364-23.242-5.302-36.124-5.302s-25.313 1.938-37.015 5.537l0.891 103.302c0 19.951 16.173 36.124 36.124 36.124s36.124-16.173 36.124-36.124zM378.311 401.351v120.036c10.86-2.324 23.337-3.655 36.124-3.655s25.265 1.331 37.3 3.862l-1.175-92.936zM571.733 392.249v-101.262c0-17.595-14.263-31.858-31.858-31.858h-5.12c-15.204 2.544-26.659 15.567-26.738 31.281v121.182c0 17.752 14.391 32.142 32.142 32.142s32.142-14.391 32.142-32.142zM692.907 351.289v-80.213c0-17.752-14.391-32.142-32.142-32.142s-32.142 14.391-32.142 32.142v120.036c0 17.752 14.391 32.142 32.142 32.142s32.142-14.391 32.142-32.142zM814.080 290.987v0c0-17.752-14.391-32.142-32.142-32.142s-32.142 14.391-32.142 32.142v60.302c0 17.752 14.391 32.142 32.142 32.142s32.142-14.391 32.142-32.142z" />
<glyph unicode="&#xe922;" glyph-name="Folder" d="M956.871 95.858h-889.742v704.284h384l42.098-113.778h463.644zM124.587 152.747h775.396v477.867h-444.871l-42.098 113.778h-288.996z" />
<glyph unicode="&#xe923;" glyph-name="Group" d="M980.196 10.524h-728.747v241.209c0 38.684 21.049 92.729 122.88 129.707 67.347 22.803 144.917 35.963 225.56 35.963 4.702 0 9.394-0.045 14.074-0.134 181.912 0.011 366.232-51.189 366.232-165.536zM308.907 67.413h614.4v184.32c0 38.684-56.889 63.716-87.040 75.662-63.208 20.985-135.975 33.090-211.569 33.090-4.021 0-8.033-0.034-12.038-0.102-170.064 0.008-304.322-47.779-304.322-108.65zM617.813 479.858c-109.966 0-199.111 89.145-199.111 199.111s89.145 199.111 199.111 199.111c109.966 0 199.111-89.145 199.111-199.111s-89.145-199.111-199.111-199.111zM617.813 821.191c-78.547 0-142.222-63.675-142.222-142.222s63.675-142.222 142.222-142.222c78.547 0 142.222 63.675 142.222 142.222-0.323 78.302-63.874 141.653-142.221 141.653 0 0-0.001 0-0.001 0zM279.893 10.524h-232.107v241.209c1.514 33.214 17.047 62.522 40.779 82.342 82.101 74.102 276.092 94.014 426.279 76.947l-6.827-56.889c-155.307 18.204-323.129-9.102-382.293-61.44-12.325-9.746-20.478-24.3-21.608-40.784l-0.010-183.927h175.787zM414.151 479.858c-109.966 0-199.111 89.145-199.111 199.111s89.145 199.111 199.111 199.111c0.057 0 0.124 0 0.192 0 44.8 0 86.105-14.967 119.187-40.174l-34.614-45.16c-23.473 17.758-53.155 28.444-85.333 28.444-78.547 0-142.222-63.675-142.222-142.222s63.675-142.222 142.222-142.222c32.178 0 61.86 10.686 85.691 28.704l33.776-45.77c-32.601-24.855-73.905-39.822-118.706-39.822-0.067 0-0.135 0-0.202 0z" />
<glyph unicode="&#xe924;" glyph-name="Heart" d="M512 67.413l-13.653 7.396c-18.204 10.24-448.284 246.898-448.284 495.502 0.324 140.512 114.305 254.293 254.862 254.293 0 0 0.001 0 0.001 0 86.162-4.465 160.999-49.251 206.486-115.711 46.057 66.334 121.176 110.547 206.75 112.859 141.103 0.007 255.208-114.098 255.208-254.855 0-248.036-429.511-485.262-448.284-495.502zM304.924 767.716c0 0-0.001 0-0.001 0-109.138 0-197.649-88.312-197.972-197.374 0-192.315 332.8-398.253 405.049-437.506 72.249 41.529 405.049 245.191 405.049 437.476 0 109.338-88.636 197.973-197.973 197.973-77.938 0-124.587-43.804-184.32-124.018l-22.756-32.427-22.756 32.427c-59.164 84.196-117.76 123.449-184.32 123.449z" />
<glyph unicode="&#xe925;" glyph-name="Help" d="M512-35.556c-267.060 0-483.556 216.495-483.556 483.556s216.495 483.556 483.556 483.556c267.060 0 483.556-216.495 483.556-483.556-0.324-266.93-216.625-483.232-483.524-483.556zM512 874.667c-235.641 0-426.667-191.025-426.667-426.667s191.025-426.667 426.667-426.667c235.641 0 426.667 191.025 426.667 426.667-0.323 235.511-191.155 426.343-426.635 426.667zM471.609 269.938c-10.027-10.248-16.213-24.288-16.213-39.772 0-31.419 25.47-56.889 56.889-56.889s56.889 25.47 56.889 56.889c0 15.485-6.187 29.525-16.223 39.783-10.328 10.555-24.732 17.106-40.666 17.106s-30.338-6.551-40.666-17.106zM657.067 630.613c-7.355 17.683-17.967 32.674-31.201 44.862-13.415 11.49-29.117 20.59-46.298 26.516-17.724 6.074-36.989 9.406-57.031 9.406-0.304 0-0.608-0.001-0.912-0.002-2.291 0.118-5.030 0.186-7.785 0.186-39.132 0-75.093-13.578-103.429-36.279-29.036-25.158-48.773-61.005-53.089-101.461l-0.059-13.77 95.004-9.102v11.947c1.535 18.881 9.488 35.66 21.646 48.386 10.888 10.906 25.98 17.672 42.651 17.672 0.996 0 1.986-0.024 2.97-0.072 0.063 0.008 0.301 0.009 0.539 0.009 8.37 0 16.35-1.674 23.622-4.705 6.904-2.887 13.143-7.119 18.365-12.363 10.901-10.912 17.641-25.978 17.641-42.619 0-0.218-0.001-0.435-0.003-0.652 0.006-0.267 0.009-0.62 0.009-0.975 0-8.063-1.677-15.734-4.702-22.684-3.634-7.879-8.004-14.984-13.115-21.479-6.030-6.419-12.528-12.557-19.395-18.268l-21.961-21.327-23.324-22.187c-6.554-6.421-12.216-13.714-16.809-21.7-4.429-7.866-7.763-16.414-9.808-25.451-1.956-9.645-3.007-20-3.007-30.6 0-1.266 0.015-2.528 0.045-3.787l-0.003-56.702h90.453v42.667c-0.262 3.32-0.412 7.189-0.412 11.093s0.15 7.773 0.443 11.601c0.641 4.571 2.040 9.177 4.070 13.423 1.568 4.93 3.887 9.457 6.808 13.523l16.397 16.35 49.493 50.062c9.33 11.433 17.181 24.583 22.957 38.798 5.782 15.282 8.917 31.768 8.917 48.986 0 0.739-0.006 1.476-0.017 2.211-0.041 20.477-4.434 40.028-12.307 57.686z" />
<glyph unicode="&#xe926;" glyph-name="Help_solid" d="M512 931.556c-267.060 0-483.556-216.495-483.556-483.556s216.495-483.556 483.556-483.556c267.060 0 483.556 216.495 483.556 483.556-0.324 266.93-216.625 483.232-483.524 483.556zM552.96 188.587c-10.359-10.289-24.632-16.648-40.391-16.648-31.659 0-57.323 25.664-57.323 57.323 0 15.9 6.474 30.288 16.929 40.672 10.341 10.569 24.745 17.12 40.679 17.12s30.338-6.551 40.666-17.106c10.576-10.348 17.126-24.752 17.126-40.686s-6.551-30.338-17.106-40.666zM661.049 521.956c-6.144-15.239-13.994-28.389-23.544-40.099l-49.274-49.785-19.342-16.498c-3.111-3.441-5.772-7.375-7.836-11.651-2.039-4.264-3.438-8.87-4.085-13.713-0.287-3.556-0.436-7.425-0.436-11.329s0.149-7.773 0.441-11.602l-0.031-42.158h-89.316v56.889c-0.026 1.072-0.041 2.334-0.041 3.6 0 10.6 1.050 20.955 3.053 30.967 1.999 8.67 5.332 17.218 9.75 25.075 4.604 7.996 10.266 15.289 16.803 21.693l23.341 22.203 21.618 19.342c6.621 6.339 12.763 13.021 18.459 20.078 5.252 6.669 9.622 13.773 13.125 21.36 3.156 7.242 4.833 14.913 4.833 22.976 0 0.354-0.003 0.708-0.010 1.061 0.003 0.131 0.004 0.348 0.004 0.566 0 16.64-6.74 31.707-17.639 42.617-5.224 5.246-11.462 9.478-18.397 12.376-7.241 3.020-15.221 4.694-23.591 4.694-0.238 0-0.476-0.001-0.714-0.004-0.809 0.043-1.799 0.067-2.795 0.067-16.672 0-31.764-6.766-42.679-17.701-12.709-13.388-20.788-31.278-21.613-51.042l-0.005-12.106-96.142 11.947v13.084c5.43 40.779 25.871 75.981 55.489 100.482 28.37 22.938 64.547 36.695 103.937 36.695 1.752 0 3.498-0.027 5.237-0.081 0.003 0.008 0.307 0.008 0.611 0.008 20.043 0 39.307-3.333 57.269-9.474 17.83-5.756 34.322-15.084 48.452-27.106 13.445-11.728 24.407-26.334 31.903-42.846 7.832-17.54 12.225-37.091 12.267-57.663 0.009-0.6 0.014-1.29 0.014-1.982 0-18.339-3.556-35.847-10.017-51.873z" />
<glyph unicode="&#xe927;" glyph-name="Home" d="M861.298-7.111h-698.027v493.796h-106.382l455.111 363.52 455.111-363.52h-105.813zM220.16 49.778h584.249v493.227l-292.409 234.382-291.84-234.382zM607.004 21.333h-56.889v288.427h-76.231v-288.427h-56.889v345.316h190.009v-345.316z" />
<glyph unicode="&#xe928;" glyph-name="Information" d="M455.111 636.302c0.514 31.023 25.784 55.975 56.882 55.975 31.419 0 56.889-25.47 56.889-56.889s-25.47-56.889-56.889-56.889c-15.228 0-29.058 5.983-39.268 15.726-10.857 10.36-17.621 24.971-17.621 41.163 0 0.321 0.003 0.642 0.008 0.962zM460.8 531.627h102.4v-331.093h-102.4zM512-35.556c-267.060 0-483.556 216.495-483.556 483.556s216.495 483.556 483.556 483.556c267.060 0 483.556-216.495 483.556-483.556-0.324-266.93-216.625-483.232-483.524-483.556zM512 874.667c-235.641 0-426.667-191.025-426.667-426.667s191.025-426.667 426.667-426.667c235.641 0 426.667 191.025 426.667 426.667-0.323 235.511-191.155 426.343-426.635 426.667z" />
<glyph unicode="&#xe929;" glyph-name="Information_solid" d="M512 931.556c-267.060 0-483.556-216.495-483.556-483.556s216.495-483.556 483.556-483.556c267.060 0 483.556 216.495 483.556 483.556-0.324 266.93-216.625 483.232-483.524 483.556zM563.2 200.533h-102.4v331.093h102.4zM554.098 594.204c-10.659-11.021-25.579-17.863-42.098-17.863-32.33 0-58.538 26.208-58.538 58.538 0 15.811 6.269 30.158 16.456 40.692 10.643 11.005 25.564 17.846 42.082 17.846 32.33 0 58.538-26.208 58.538-58.538 0-15.811-6.269-30.158-16.456-40.692z" />
<glyph unicode="&#xe92a;" glyph-name="Insecure" d="M566.044 495.218h-212.196v96.142c0 37.86-30.691 68.551-68.551 68.551s-68.551-30.691-68.551-68.551v-96.142h-211.627v113.778c1.37 153.223 125.898 276.905 279.314 276.905 75.403 0 143.828-29.877 194.081-78.44 52.645-50.497 85.901-121.014 87.524-199.305zM411.307 552.107h97.849v56.889c-2.037 62.137-28.683 117.678-70.451 157.496-38.304 38.395-91.146 62.097-149.524 62.097-0.265 0-0.53 0-0.795-0.001-1.485 0.038-3.283 0.059-5.085 0.059-122.268 0-221.496-98.651-222.429-220.699l-0.001-56.978h99.556v40.391c0 69.279 56.161 125.44 125.44 125.44s125.44-56.161 125.44-125.44zM650.24 227.271c-51.527 0-93.298 41.771-93.298 93.298s41.771 93.298 93.298 93.298c51.527 0 93.298-41.771 93.298-93.298s-41.771-93.298-93.298-93.298zM650.24 356.409c-20.108 0-36.409-16.301-36.409-36.409s16.301-36.409 36.409-36.409c20.108 0 36.409 16.301 36.409 36.409s-16.301 36.409-36.409 36.409zM621.796 255.716h56.889v-92.729h-56.889v92.729zM1018.88 10.524h-739.556v541.582h739.556zM336.213 67.413h625.778v427.804h-625.778z" />
<glyph unicode="&#xe92b;" glyph-name="Instructions" d="M770.276-35.556h-726.471v944.924h726.471v-142.791h-56.889v85.902h-612.693v-831.147h612.693v116.622h56.889v-173.511zM328.249 694.329h178.631v-56.889h-178.631v56.889zM328.249 236.373h178.631v-56.889h-178.631v56.889zM328.249 541.867h114.916v-56.889h-114.916v56.889zM328.249 388.836h114.916v-56.889h-114.916v56.889zM750.933 203.947c-135.101 0-244.622 109.521-244.622 244.622s109.521 244.622 244.622 244.622c135.101 0 244.622-109.521 244.622-244.622 0-0.2 0-0.4-0.001-0.6-0.645-134.695-109.85-243.701-244.591-244.022zM750.933 636.302c-103.682-0.001-187.732-84.051-187.732-187.733s84.051-187.733 187.733-187.733c103.482 0 187.409 83.727 187.732 187.134 0.001 0.2 0.001 0.4 0.001 0.6 0 103.682-84.051 187.733-187.733 187.733 0 0-0.001 0-0.001 0zM275.911 360.391c0-22.307-18.084-40.391-40.391-40.391s-40.391 18.084-40.391 40.391c0 22.307 18.084 40.391 40.391 40.391s40.391-18.084 40.391-40.391zM275.911 207.929c0-22.307-18.084-40.391-40.391-40.391s-40.391 18.084-40.391 40.391c0 22.307 18.084 40.391 40.391 40.391s40.391-18.084 40.391-40.391zM275.911 513.422c0-22.307-18.084-40.391-40.391-40.391s-40.391 18.084-40.391 40.391c0 22.307 18.084 40.391 40.391 40.391s40.391-18.084 40.391-40.391zM275.911 665.884c0-22.307-18.084-40.391-40.391-40.391s-40.391 18.084-40.391 40.391c0 22.307 18.084 40.391 40.391 40.391s40.391-18.084 40.391-40.391zM720.213 545.849c0 0.062-0.001 0.136-0.001 0.209 0 16.966 13.754 30.72 30.72 30.72s30.72-13.754 30.72-30.72c0-16.966-13.754-30.72-30.72-30.72-8.431 0-16.069 3.396-21.619 8.895-5.613 5.39-9.101 12.96-9.101 21.345 0 0.095 0 0.19 0.001 0.285zM724.196 488.96h52.907v-170.667h-52.907z" />
<glyph unicode="&#xe92c;" glyph-name="Ledger" d="M403.911 715.378h365.227v-56.889h-365.227v56.889zM403.911 237.511h365.227v-56.889h-365.227v56.889zM403.911 556.089h365.227v-56.889h-365.227v56.889zM403.911 396.8h365.227v-56.889h-365.227v56.889zM957.44-2.56h-801.564v901.12h801.564zM212.764 54.329h687.787v787.342h-687.787zM95.004 773.404h178.631v-56.889h-178.631v56.889zM95.004 476.444h178.631v-56.889h-178.631v56.889zM95.004 179.484h178.631v-56.889h-178.631v56.889z" />
<glyph unicode="&#xe92d;" glyph-name="Link_web" d="M512-35.556c-266.884 0.234-483.146 216.639-483.146 483.555 0 267.060 216.495 483.556 483.556 483.556 196.222 0 365.146-116.876 440.955-284.81 27.111-60.074 42.194-126.708 42.194-196.866 0-0.661-0.001-1.321-0.004-1.981-0.323-266.828-216.625-483.13-483.524-483.454zM512 874.667c-235.641 0-426.667-191.025-426.667-426.667s191.025-426.667 426.667-426.667c235.641 0 426.667 191.025 426.667 426.667-0.144 61.818-13.537 120.472-37.486 173.323-66.464 148.966-215.63 252.857-389.117 253.343zM512 591.929c-4.531-0.060-9.881-0.094-15.24-0.094-132.693 0-260.519 20.84-380.383 59.424l26.983 51.602c105.621-34.343 227.158-54.144 353.319-54.144 5.387 0 10.765 0.036 16.135 0.108 4.52-0.095 10.814-0.145 17.12-0.145 124.981 0 245.432 19.395 358.507 55.339l9.834-56.341c-110.065-35.449-236.691-55.884-368.090-55.884-6.394 0-12.777 0.048-19.148 0.145zM145.067 178.916l-18.204 54.044c111.085 36.143 238.911 56.983 371.605 56.983 5.358 0 10.709-0.034 16.051-0.102 3.656 0.066 8.932 0.099 14.216 0.099 132.569 0 260.271-20.839 380.009-59.42l-26.965-51.605c-105.132 34.009-226.091 53.615-351.63 53.615-6.381 0-12.75-0.051-19.107-0.152-3.628 0.076-9.044 0.113-14.468 0.113-125.493 0-246.411-19.592-359.86-55.884zM625.778-11.093l-51.2 25.031c50.321 118.785 79.567 256.919 79.567 401.883 0 11.315-0.178 22.589-0.532 33.819 0.308 7.213 0.46 17.627 0.46 28.076 0 145.906-29.643 284.888-83.234 411.253l54.94 18.124c53.95-125.197 85.326-270.946 85.326-424.023 0-12.333-0.204-24.618-0.608-36.853 0.404-8.67 0.608-20.955 0.608-33.288 0-153.077-31.375-298.826-88.046-431.167zM398.222-19.627c-53.957 125.096-85.337 270.736-85.337 423.706 0 12.444 0.208 24.839 0.62 37.183-0.412 8.752-0.62 21.148-0.62 33.592 0 152.97 31.38 298.61 88.054 430.836l48.482-32.161c-50.323-118.752-79.57-256.85-79.57-401.779 0-11.353 0.179-22.664 0.536-33.93-0.306-7.174-0.457-17.552-0.457-27.964 0-145.941 29.641-284.959 83.231-411.362zM66.56 469.049h893.724v-56.889h-893.724v56.889z" />
<glyph unicode="&#xe92e;" glyph-name="Loan" d="M757.191 49.778h-180.338v-28.444h-56.889v28.444h-64.853v-28.444h-56.889v28.444h-181.476v455.111l270.222 219.022 44.373-35.271c11.193 16.494 23.561 30.849 37.385 43.656l-81.758 64.433-430.080-343.040h102.969v-460.8h654.222v323.698c-16.646-5.657-35.992-9.695-56.019-11.321zM396.516 345.031v-295.253h56.889v238.364h66.56v-238.364h56.889v295.253h-180.338zM519.964 49.778h56.889v-28.444h-56.889v28.444zM396.516 49.778h56.889v-28.444h-56.889v28.444zM985.316 551.538c-0.37 126.556-95.681 230.737-218.434 245.081l-1.157-25.49h-26.169c0.202 0.001 0.442 0.001 0.682 0.001 120.963 0 219.022-98.060 219.022-219.022 0-93.63-58.751-173.537-141.399-204.869l-1.506-30.083c98.93 33.817 168.823 125.919 168.96 234.365zM517.689 551.538c0 0.013 0 0.029 0 0.045 0 44.2 13.161 85.326 35.778 119.673l-22.694 17.384c-26.21-38.664-41.844-86.352-41.844-137.691 0-136.672 110.795-247.467 247.467-247.467 1.111 0 2.22 0.007 3.327 0.022 6.658-0.002 12.916-0.002 19.743-0.002v30.72c-6.827 0-13.084 0-19.911 0-0.68-0.008-1.483-0.012-2.287-0.012-120.481 0-218.3 97.028-219.578 217.207zM739.556 770.56h-28.444v25.6c-55.328-5.665-104.382-28.866-142.395-63.873l22.36-18.047c38.499 34.942 89.851 56.332 146.2 56.332 0.802 0 1.602-0.004 2.402-0.013zM757.191 334.222v-28.444c20.897 1.682 40.242 5.72 58.615 11.88l-1.726 29.080c-16.665-6.305-35.985-10.747-56.083-12.46zM530.773 688.071l22.187-18.204c10.784 16.404 22.99 30.598 36.787 43.065l-20.858 19.512c-14.224-13.107-26.781-27.652-37.559-43.505zM739.556 360.391c-0.677-0.009-1.475-0.014-2.276-0.014-105.567 0-191.147 85.579-191.147 191.147 0 0.005 0 0.010 0 0.014 0.080 37.59 11.096 72.592 30.034 102.011l-23.207 17.455c-21.548-33.325-34.357-74.051-34.357-117.769 0-120.963 98.060-219.022 219.022-219.022 0.679 0 1.356 0.003 2.034 0.009 6.723-0.001 12.981-0.001 19.808-0.001v28.444c-5.6-1.008-12.438-1.819-19.379-2.249zM613.262 695.467c33.187 29.015 76.915 46.711 124.776 46.711 104.939 0 190.009-85.070 190.009-190.009 0-33.171-8.5-64.357-23.441-91.498l10.167-6.982h-14.222c-20.413-33.791-49.978-60.244-85.27-76.31l-1.201-30.641c84.528 31.641 143.612 111.736 143.612 205.631 0 120.963-98.060 219.022-219.022 219.022-57.213 0-109.303-21.937-148.317-57.859zM613.262 695.467l-22.756 18.204c-13.987-12.637-26.193-26.831-36.467-42.412l22.245-19.028c10.456 16.586 22.7 30.82 36.746 43.038zM914.773 453.689l-9.671 7.964-4.551-7.964zM757.191 362.098v-27.876c20.904 1.769 40.224 6.211 58.393 13.009l-1.504 29.658c-16.612-7.427-35.879-12.664-56.085-14.725zM739.556 828.587h-28.444v-31.858c8.2 1.391 17.998 2.409 27.952 2.828zM739.556 799.004v0c10.449-0.437 20.247-1.455 29.856-3.036l-1.412 32.618h-28.444zM739.556 770.56v28.444c-10.447-0.436-20.245-1.454-29.854-3.036l1.409-25.408zM739.556 799.004v-28.444h28.444v25.6c-8.198 1.389-17.996 2.407-27.949 2.828zM641.138 857.031h124.587v-28.444h67.698v56.889h-192.284v-56.889h67.698v28.444h-67.698zM737.28 857.031h28.444v-28.444h-28.444v28.444zM708.836 857.031h28.444v-28.444h-28.444v28.444zM641.138 476.444v0 0 0zM712.249 622.080l-2.276-4.551 2.276-1.707v6.258zM712.249 680.676v-58.596l28.444 58.596h-28.444zM641.138 476.444l17.067-22.756 85.333 64.284-22.756 18.204-79.644-59.733zM769.138 570.311v110.364h-28.444v-87.609l28.444-22.756zM624.071 499.2l17.067-22.756 27.307 56.32-44.373-33.564zM740.693 551.538l-19.911-15.36 22.756-18.204 25.6 19.342v32.996l-28.444 22.756v-41.529zM697.458 554.382l-29.013-21.618-27.307-56.32 79.644 59.733-23.324 18.204zM740.693 593.067v87.609l-28.444-58.596v-6.258l28.444-22.756zM740.693 551.538v41.529l-28.444 22.756v-50.062l-14.791-11.378 23.324-18.204 19.911 15.36z" />
<glyph unicode="&#xe92f;" glyph-name="Locations" d="M512-21.333l-22.756 29.013c-12.516 15.929-302.649 394.809-302.649 568.889 0 179.559 145.561 325.12 325.12 325.12s325.12-145.561 325.12-325.12c0-170.667-290.133-550.116-302.649-568.889zM512 842.24c-147.853-0.323-267.624-120.094-267.947-267.916 0-113.808 176.356-377.773 267.947-501.791 91.591 123.449 267.947 385.707 267.947 501.76-0.323 147.853-120.094 267.624-267.916 267.947zM512 415.573c-78.233 0-141.653 63.42-141.653 141.653s63.42 141.653 141.653 141.653c78.233 0 141.653-63.42 141.653-141.653s-63.42-141.653-141.653-141.653zM512 643.129c-46.814 0-84.764-37.95-84.764-84.764s37.95-84.764 84.764-84.764c46.814 0 84.764 37.95 84.764 84.764-0.957 46.074-38.533 83.058-84.747 83.058-0.006 0-0.012 0-0.018 0z" />
<glyph unicode="&#xe930;" glyph-name="Max" d="M512-35.556c-0.678-0.003-1.479-0.005-2.281-0.005-265.804 0-481.28 215.476-481.28 481.28 0 0.802 0.002 1.604 0.006 2.405 1.603 266.289 217.142 481.828 483.402 483.431l0.153 0.001c133.394-0.337 254.041-54.635 341.32-142.209 87.841-86.795 142.236-207.244 142.236-340.398 0-0.334 0-0.667-0.001-1-1.603-266.361-217.142-481.901-483.402-483.503zM512 874.667c-234.995-1.601-425.066-191.672-426.666-426.514-0.005-0.831-0.007-1.633-0.007-2.435 0-234.385 190.006-424.391 424.391-424.391 0.802 0 1.604 0.002 2.406 0.007l-0.124-0.001c234.995 1.601 425.066 191.672 426.666 426.514 0.005 0.831 0.007 1.633 0.007 2.435 0 234.385-190.006 424.391-424.391 424.391-0.802 0-1.604-0.002-2.406-0.007zM306.987 477.604l409.599 0.786 0.109-56.889-409.599-0.786-0.109 56.889zM483.576 245.119l0.786 409.599 56.889-0.109-0.786-409.599-56.889 0.109z" />
<glyph unicode="&#xe931;" glyph-name="Menu" d="M60.302 816.64h903.964v-56.889h-903.964v56.889zM60.302 476.444h903.964v-56.889h-903.964v56.889zM60.302 136.249h903.964v-56.889h-903.964v56.889z" />
<glyph unicode="&#xe932;" glyph-name="Menu_drop" d="M512-35.556c-0.678-0.003-1.479-0.005-2.281-0.005-265.804 0-481.28 215.476-481.28 481.28 0 0.802 0.002 1.604 0.006 2.405 1.603 266.289 217.142 481.828 483.402 483.431l0.153 0.001c0.678 0.003 1.479 0.005 2.281 0.005 265.804 0 481.28-215.476 481.28-481.28 0-0.802-0.002-1.604-0.006-2.405-1.603-266.289-217.142-481.828-483.402-483.431zM512 874.667c-234.995-1.601-425.066-191.672-426.666-426.514-0.005-0.831-0.007-1.633-0.007-2.435 0-234.385 190.006-424.391 424.391-424.391 0.802 0 1.604 0.002 2.406 0.007l-0.124-0.001c234.995 1.601 425.066 191.672 426.666 426.514 0.005 0.831 0.007 1.633 0.007 2.435 0 234.385-190.006 424.391-424.391 424.391-0.802 0-1.604-0.002-2.406-0.007zM512 300.658l-234.382 234.382 39.822 40.391 194.56-194.56 194.56 194.56 40.391-40.391-234.951-234.382z" />
<glyph unicode="&#xe933;" glyph-name="Menu_list" d="M299.236 785.92h642.844v-56.889h-642.844v56.889zM213.902 757.476c0-36.446-29.545-65.991-65.991-65.991s-65.991 29.545-65.991 65.991c0 36.446 29.545 65.991 65.991 65.991s65.991-29.545 65.991-65.991zM299.236 476.444h642.844v-56.889h-642.844v56.889zM213.902 448c0-36.446-29.545-65.991-65.991-65.991s-65.991 29.545-65.991 65.991c0 36.446 29.545 65.991 65.991 65.991s65.991-29.545 65.991-65.991zM299.236 166.969h642.844v-56.889h-642.844v56.889zM213.902 138.524c0-36.446-29.545-65.991-65.991-65.991s-65.991 29.545-65.991 65.991c0 36.446 29.545 65.991 65.991 65.991s65.991-29.545 65.991-65.991z" />
<glyph unicode="&#xe934;" glyph-name="Min" d="M512-35.556c-0.678-0.003-1.479-0.005-2.281-0.005-265.804 0-481.28 215.476-481.28 481.28 0 0.802 0.002 1.604 0.006 2.405 1.603 266.289 217.142 481.828 483.402 483.431l0.153 0.001c0.678 0.003 1.479 0.005 2.281 0.005 265.804 0 481.28-215.476 481.28-481.28 0-0.802-0.002-1.604-0.006-2.405-1.603-266.289-217.142-481.828-483.402-483.431zM512 874.667c-234.995-1.601-425.066-191.672-426.666-426.514-0.005-0.831-0.007-1.633-0.007-2.435 0-234.385 190.006-424.391 424.391-424.391 0.802 0 1.604 0.002 2.406 0.007l-0.124-0.001c234.995 1.601 425.066 191.672 426.666 426.514 0.005 0.831 0.007 1.633 0.007 2.435 0 234.385-190.006 424.391-424.391 424.391-0.802 0-1.604-0.002-2.406-0.007zM306.987 477.604l409.599 0.786 0.109-56.889-409.599-0.786-0.109 56.889z" />
<glyph unicode="&#xe935;" glyph-name="Notification" d="M935.822 122.027h-849.351l94.436 269.084 38.116 303.218c19.342 142.791 169.529 208.782 300.942 208.782v0c133.689 0 277.049-65.991 295.253-210.489l38.116-307.2zM166.684 178.916h692.338l-56.889 194.56-39.822 311.182c-16.498 110.933-132.551 161.564-241.209 161.564v0c-107.52 0-227.556-50.062-244.622-160.996l-39.822-312.32zM512-7.111c-73.206 0-132.551 59.345-132.551 132.551h56.889c-0.181-1.964-0.284-4.247-0.284-6.555 0-41.787 33.875-75.662 75.662-75.662s75.662 33.875 75.662 75.662c0 2.307-0.103 4.591-0.306 6.846l56.91-0.291c0 0 0-0.001 0-0.001 0-73.006-59.021-132.227-131.951-132.55z" />
<glyph unicode="&#xe936;" glyph-name="Notification_panel" d="M659.911 159.573h-617.244l71.111 197.404 26.738 211.058c13.084 107.52 121.742 154.738 217.316 154.738s202.524-47.787 216.178-154.738l26.738-214.471zM122.88 216.462h460.231l-38.116 125.156-27.876 220.16c-9.102 71.68-87.040 104.107-159.289 104.107s-152.462-32.996-162.702-104.107l-28.444-219.591zM351.573 69.689c-55.926 0-101.262 45.337-101.262 101.262h56.889c-0.181-1.505-0.284-3.249-0.284-5.016 0-24.507 19.867-44.373 44.373-44.373s44.373 19.867 44.373 44.373c0 1.767-0.103 3.511-0.304 5.224l59.753-0.208c0-0.008 0-0.017 0-0.026 0-55.926-45.337-101.262-101.262-101.262-0.8 0-1.598 0.009-2.394 0.028zM564.907 694.898c10.125-10.446 18.989-22.209 26.287-34.983 5.619-10.495 10.98-22.307 15.632-34.47l369.957-2.227v71.68zM620.658 487.822l11.947-72.249h344.178v72.249h-356.124zM658.204 276.764l19.342-71.68h299.236v71.68h-318.578z" />
<glyph unicode="&#xe937;" glyph-name="Offer" d="M591.644-14.507l-530.204 530.773v382.293h382.293l530.204-530.204zM118.329 539.591l473.316-473.316 302.080 302.080-473.316 473.316h-302.080zM420.978 570.88c12.919 11.846 27.485 22.239 43.23 30.726 16.433 9.097 34.361 14.959 53.431 17.007q0.619-34.079 4.601-66.506c-11.548-0.113-22.483-2.614-32.374-7.033-9.818-4.043-18.68-9.802-26.27-16.906l51.818-51.724 34.133 17.067c10.716 5.219 23.15 9.19 36.212 11.277 6.325 1.235 12.714 1.885 19.255 1.885s12.93-0.649 19.107-1.887c13.562-4.276 25.644-11.947 35.186-22.044 10.576-11.109 18.614-24.662 23.177-39.725 3.643-9.88 5.645-20.486 5.645-31.56 0-2.756-0.124-5.484-0.367-8.177-1.283-13.555-5.132-26.291-11.057-37.782-5.98-11.849-13.572-22.529-22.529-31.893l23.94-23.844-23.893-23.893-23.893 23.893c-14.371-13.625-30.864-25.211-48.892-34.175-17.708-9.057-37.041-14.753-57.514-16.42q-0.546 17.031-0.546 34.666c0 11.947 0 23.324 0 34.702 2.818-0.367 6.078-0.576 9.387-0.576s6.568 0.209 9.767 0.615c5.881 1.696 11.173 3.636 16.265 5.939 5.921 1.962 11.559 4.462 16.927 7.394 4.66 2.556 9.155 5.963 13.069 9.944l-56.881 56.897c-11.947-6.827-23.893-12.516-35.271-18.204-10.281-4.828-22.214-8.247-34.762-9.626-3.274-0.381-6.475-0.572-9.721-0.572-8.908 0-17.478 1.442-25.492 4.105-12.462 4.506-23.528 11.91-32.38 21.405-9.721 9.441-17.151 21.091-21.491 34.153-2.998 9.165-4.628 19.025-4.628 29.265 0 3.328 0.172 6.615 0.508 9.854 1.353 13.072 4.984 25.403 10.491 36.648 4.847 11.555 11.346 22.070 19.209 31.398l-22.907 22.002 22.756 23.324zM439.182 504.889c-4.878-6.109-8.155-13.695-9.084-21.99-0.058-0.764-0.081-1.427-0.081-2.096 0-8.53 3.755-16.184 9.702-21.397 5.049-6.68 12.806-11.035 21.593-11.404 9.253 0.834 17.591 3.903 24.713 8.653zM609.849 375.751c6.677 6.061 10.853 14.774 10.853 24.462s-4.176 18.401-10.825 24.438c-5.581 6.321-13.667 10.272-22.676 10.272-0.238 0-0.475-0.003-0.711-0.008-9.686-0.919-18.569-3.761-26.481-8.14zM272.873 758.575c19.773-19.773 19.773-51.831 0-71.603s-51.831-19.773-71.603 0c-19.773 19.773-19.773 51.831 0 71.603s51.831 19.773 71.603 0z" />
<glyph unicode="&#xe938;" glyph-name="Person" d="M876.089 14.507h-728.178v240.64c0 38.684 21.049 92.729 122.88 129.707 67.359 22.831 144.944 36.008 225.606 36.008 5.486 0 10.959-0.061 16.416-0.182 181.8 0.014 366.12-51.186 366.12-165.532zM204.8 71.396h614.4v183.751c0 38.684-56.889 63.716-87.040 75.662-63.225 20.958-136.009 33.048-211.617 33.048-3.004 0-6.003-0.019-8.998-0.057-170.212 0.005-304.47-47.782-304.47-108.653zM512 483.84c-109.966 0-199.111 89.145-199.111 199.111s89.145 199.111 199.111 199.111c109.966 0 199.111-89.145 199.111-199.111s-89.145-199.111-199.111-199.111zM512 825.173c-78.547 0-142.222-63.675-142.222-142.222s63.675-142.222 142.222-142.222c78.547 0 142.222 63.675 142.222 142.222-0.323 78.302-63.874 141.653-142.221 141.653 0 0-0.001 0-0.001 0z" />
<glyph unicode="&#xe939;" glyph-name="Phone" d="M804.409-44.089h-584.818v984.178h584.818zM276.48 12.8h471.040v870.4h-471.040zM402.773 828.587h217.884v-56.889h-217.884v56.889zM512 38.969c-43.358 0-78.507 35.149-78.507 78.507s35.149 78.507 78.507 78.507c43.358 0 78.507-35.149 78.507-78.507s-35.149-78.507-78.507-78.507zM512 139.093c-11.939 0-21.618-9.679-21.618-21.618s9.679-21.618 21.618-21.618c11.939 0 21.618 9.679 21.618 21.618 0.005 0.169 0.007 0.369 0.007 0.569 0 11.939-9.679 21.618-21.618 21.618-0.003 0-0.005 0-0.008 0z" />
<glyph unicode="&#xe93a;" glyph-name="Pin" d="M137.35 113.145l259.241 262.886 40.506-39.945-259.241-262.886-40.506 39.945zM580.836 148.196l-368.64 369.209 19.911 19.911c34.669 32.437 81.401 52.357 132.785 52.357 21.681 0 42.534-3.546 62.010-10.091l108.992 110.765 40.391 170.667 346.453-346.453-170.667-40.391-110.364-109.796c6.193-18.143 9.767-39.044 9.767-60.779 0-51.353-19.953-98.045-52.53-132.746zM296.391 514.56l284.444-284.444c11.086 20.565 17.601 45.008 17.601 70.973 0 20.77-4.169 40.567-11.715 58.598l-5.886 16.064 146.773 146.773 85.333 20.48-205.369 203.662-20.48-85.333-146.204-146.773-17.067 6.258c-17.029 7.174-36.826 11.343-57.596 11.343-25.965 0-50.408-6.515-71.784-17.999z" />
<glyph unicode="&#xe93b;" glyph-name="Popout-78" d="M868.693 804.693h-299.236v-56.889h242.347v-242.347h56.889v299.236zM417.786 395.553l376.52 376.52 40.227-40.227-376.52-376.52-40.227 40.227zM811.804 390.542h-56.889v-242.347h-542.72v542.72h242.347v56.889h-299.236v-656.498h656.498v299.236z" />
<glyph unicode="&#xe93c;" glyph-name="Posak" d="M480.711 290.987l-160.996 139.947 37.547 42.667 115.484-100.693 190.578 245.76 44.942-35.271-227.556-292.409zM512-35.556c-267.060 0-483.556 216.495-483.556 483.556s216.495 483.556 483.556 483.556c267.060 0 483.556-216.495 483.556-483.556-0.324-266.93-216.625-483.232-483.524-483.556zM512 874.667c-235.641 0-426.667-191.025-426.667-426.667s191.025-426.667 426.667-426.667c235.641 0 426.667 191.025 426.667 426.667-0.323 235.511-191.155 426.343-426.635 426.667z" />
<glyph unicode="&#xe93d;" glyph-name="Print" d="M348.729 298.382h326.542v-56.889h-326.542v56.889zM353.28 199.964h201.956v-56.889h-201.956v56.889zM975.076 241.493h-215.609v56.889h158.72v362.951h-812.373v-362.951h118.898v-56.889h-175.787v476.729h926.151v-476.729zM810.667-28.16h-597.333v464.782h597.333zM270.791 28.729h482.987v351.004h-483.556zM810.667 689.778h-56.889v177.493h-483.556v-164.409h-56.889v221.298h597.333v-234.382z" />
<glyph unicode="&#xe93e;" glyph-name="Recurring" d="M439.751-20.196l-39.822 40.391 174.649 174.649-174.649 175.218 39.822 40.391 215.609-215.609-215.609-215.040zM581.404 166.4h-97.28c-230.056 0.324-416.427 186.895-416.427 416.995 0 0 0 0.001 0 0.001h56.889c0.323-198.437 161.1-359.214 359.506-359.538h97.311zM584.249 507.733l-215.609 215.040 215.609 215.040 39.822-39.822-174.649-175.218 174.649-175.218-39.822-39.822zM953.458 334.222h-56.889c0 0 0 0 0 0 0 198.681-160.901 359.782-359.507 360.106h-97.311v56.889h97.28c230.056-0.324 416.427-186.895 416.427-416.995 0 0 0-0.001 0-0.001z" />
<glyph unicode="&#xe93f;" glyph-name="Refresh" d="M247.467 184.604l-229.262 229.262 40.391 40.391 188.871-188.871 188.302 188.871 40.391-40.391-228.693-229.262zM597.902 54.898v56.889c177.831 0 321.991 144.16 321.991 321.991s-144.16 321.991-321.991 321.991c-177.831 0-321.991-144.16-321.991-321.991v-176.356h-56.889v176.356c0 209.25 169.63 378.88 378.88 378.88s378.88-169.63 378.88-378.88c0-209.25-169.63-378.88-378.88-378.88z" />
<glyph unicode="&#xe940;" glyph-name="Reports" d="M638.862-24.178h-253.724v944.356h253.724zM442.027 32.711h139.947v830.578h-139.947zM284.444-24.178h-256v585.956h256zM87.609 32.711h139.947v472.178h-142.222zM995.556-24.178h-256v374.898h256zM796.444 32.711h142.222v261.12h-142.222z" />
<glyph unicode="&#xe941;" glyph-name="Scan" d="M168.96 669.298h56.889v-453.404h-56.889v453.404zM472.747 669.298h56.889v-453.404h-56.889v453.404zM251.449 669.298h56.889v-453.404h-56.889v453.404zM366.364 669.298h56.889v-453.404h-56.889v453.404zM814.080 669.298h56.889v-453.404h-56.889v453.404zM548.978 669.298h56.889v-453.404h-56.889v453.404zM641.138 669.298h56.889v-453.404h-56.889v453.404zM717.369 669.298h56.889v-453.404h-56.889v453.404zM976.782 90.169h-242.347v56.889h185.458v184.889h56.889v-241.778zM63.147 90.169h242.347v56.889h-185.458l0.569 184.889h-57.458v-241.778zM976.782 805.831h-242.347v-56.889h185.458v-184.889h56.889v241.778zM63.147 805.831h242.347v-56.889h-185.458l0.569-184.889h-57.458v241.778z" />
<glyph unicode="&#xe942;" glyph-name="Search" d="M418.702 220.444c-0.27-0.001-0.59-0.001-0.911-0.001-172.49 0-312.32 139.83-312.32 312.32 0 86.472 35.142 164.735 91.923 221.289 56.546 56.63 134.694 91.657 221.024 91.657s164.477-35.026 221.009-91.642l0.004-0.004c56.791-56.564 91.932-134.827 91.932-221.298 0-172.49-139.83-312.32-312.32-312.32-0.12 0-0.24 0-0.359 0zM418.702 789.333c-141.066-0.006-255.42-114.364-255.42-255.431 0-141.071 114.36-255.431 255.431-255.431s255.431 114.36 255.431 255.431c0 70.397-28.478 134.142-74.542 180.344l0.006-0.006c-45.991 46.381-109.736 75.094-180.187 75.094-0.253 0-0.506 0-0.759-0.001zM599.184 312.311l40.227 40.227 253.829-253.829-40.227-40.227-253.829 253.829z" />
<glyph unicode="&#xe943;" glyph-name="Security" d="M779.947 523.662h-56.889v95.004c-1.607 59.161-26.804 112.14-66.481 150.111-36.216 35.267-85.638 56.971-140.13 56.971-0.564 0-1.127-0.002-1.689-0.007-1.105 0.025-2.508 0.039-3.915 0.039-114.949 0-208.319-92.391-209.9-206.965l-0.002-96.86h-56.889v96.711c0.689 146.832 119.878 265.596 266.806 265.596 71.821 0 137.013-28.377 184.977-74.532 50.439-48.332 82.367-115.807 84.104-190.746zM448.284 540.16h-56.889v64.284c0 66.608 53.996 120.604 120.604 120.604s120.604-53.996 120.604-120.604v-60.302h-56.889v60.302c0 35.189-28.526 63.716-63.716 63.716s-63.716-28.526-63.716-63.716zM512 227.271c-51.527 0-93.298 41.771-93.298 93.298s41.771 93.298 93.298 93.298c51.527 0 93.298-41.771 93.298-93.298s-41.771-93.298-93.298-93.298zM512 356.409c-20.108 0-36.409-16.301-36.409-36.409s16.301-36.409 36.409-36.409c20.108 0 36.409 16.301 36.409 36.409s-16.301 36.409-36.409 36.409zM483.556 255.716h56.889v-92.729h-56.889v92.729zM880.64 10.524h-739.556v541.582h739.556zM197.973 67.413h625.778v427.804h-625.778z" />
<glyph unicode="&#xe944;" glyph-name="Settings" d="M600.747-46.364h-177.493c-27.963 0-50.631 22.668-50.631 50.631v90.453c-31.279 12.779-58.271 28.253-82.856 46.754l-68.469-43.341c-7.609-4.818-16.873-7.677-26.804-7.677-18.175 0-34.114 9.577-43.044 23.959l-88.871 143.007c-4.818 7.609-7.677 16.873-7.677 26.804 0 18.175 9.577 34.114 23.959 43.044l69.62 43.36c-4.074 20.183-6.405 43.384-6.405 67.129s2.331 46.946 6.778 69.385l-69.777 39.841c-15.045 8.962-24.968 25.145-24.968 43.645 0 10.446 3.164 20.153 8.585 28.216l88.632 140.903c9.056 14.598 24.994 24.175 43.169 24.175 9.931 0 19.195-2.859 27.012-7.8l68.059-43.682c23.962 18.413 51.34 34.275 80.677 46.35l2.381 91.321c0 27.963 22.668 50.631 50.631 50.631h177.493c27.963 0 50.631-22.668 50.631-50.631v-89.316c32.361-12.349 60.333-27.679 85.806-46.234l64.95 41.683c7.609 4.818 16.873 7.677 26.804 7.677 18.175 0 34.114-9.577 43.044-23.959l89.44-141.3c4.818-7.609 7.677-16.873 7.677-26.804 0-18.175-9.577-34.114-23.959-43.044l-68.482-43.929c3.281-18.912 5.157-40.692 5.157-62.909 0-1.884-0.013-3.764-0.040-5.642l0.003 0.284c-0.331-23.548-2.801-46.31-7.224-68.365l70.371-40.862c14.598-9.056 24.175-24.994 24.175-43.169 0-9.931-2.859-19.195-7.8-27.012l-88.624-142.583c-9.056-14.598-24.994-24.175-43.169-24.175-9.931 0-19.195 2.859-27.012 7.8l-69.196 43.113c-23.647-17.84-50.641-33.315-79.494-45.195l-2.426-91.907c0-27.963-22.668-50.631-50.631-50.631zM430.080 10.524h164.978v124.587l19.342 6.827c38.117 13.518 70.999 32.84 99.398 57.234l15.518 12.74 98.987-61.44 81.92 131.982-99.556 61.44 5.12 19.911c5.726 21.897 9.227 47.129 9.667 73.107 0.009 0.985 0.012 1.818 0.012 2.651 0 25.773-2.905 50.868-8.405 74.975l-4.119 17.659 97.28 59.733-83.058 132.551-95.004-56.889-15.929 13.084c-28.904 24.422-62.979 43.813-100.232 56.261l-22.079 6.886v120.036h-164.409v-122.88l-19.342-8.533c-38.594-13.187-71.9-32.555-100.515-57.218l-15.538-13.324-97.28 62.578-83.058-132.551 98.987-60.871-4.551-19.911c-5.772-22.116-9.086-47.507-9.086-73.671s3.314-51.554 9.545-75.774l4.092-17.809-98.987-61.44 81.92-132.551 98.418 60.871 15.929-13.084c28.148-24.092 61.225-43.422 97.39-56.221l21.507-7.495zM853.333 437.191v0zM824.32 732.444v0zM512 267.662c-99.598 0-180.338 80.74-180.338 180.338s80.74 180.338 180.338 180.338c99.598 0 180.338-80.74 180.338-180.338s-80.74-180.338-180.338-180.338zM512 571.449c-68.179 0-123.449-55.27-123.449-123.449s55.27-123.449 123.449-123.449c68.179 0 123.449 55.27 123.449 123.449s-55.27 123.449-123.449 123.449z" />
<glyph unicode="&#xe945;" glyph-name="Suitcase" d="M967.111 60.018h-910.222v667.876h910.222zM113.778 116.907h796.444v554.098h-796.444zM83.627 590.791h856.747v-56.889h-856.747v56.889zM669.582 699.449h-56.889v79.644h-201.387v-79.644h-56.889v136.533h315.164v-136.533zM442.596 557.227h138.809v-87.609h-138.809v87.609z" />
<glyph unicode="&#xe946;" glyph-name="Table" d="M967.111 80.498h-910.222v667.876h910.222zM113.778 137.387h796.444v554.098h-796.444zM170.098 615.253h151.893v-68.267h-151.893v68.267zM170.098 446.293h151.893v-68.267h-151.893v68.267zM168.391 280.747h151.893v-68.267h-151.893v68.267zM703.716 615.253h151.893v-68.267h-151.893v68.267zM703.716 446.293h151.893v-68.267h-151.893v68.267zM702.009 280.747h151.893v-68.267h-151.893v68.267zM436.907 615.253h151.893v-68.267h-151.893v68.267zM436.907 446.293h151.893v-68.267h-151.893v68.267zM435.2 280.747h151.893v-68.267h-151.893v68.267zM55.182 815.502h913.636v-74.524h-913.636v74.524z" />
<glyph unicode="&#xe947;" glyph-name="Target" d="M512-35.556c-267.060 0-483.556 216.495-483.556 483.556s216.495 483.556 483.556 483.556c267.060 0 483.556-216.495 483.556-483.556-0.324-266.93-216.625-483.232-483.524-483.556zM512 874.667c-235.641 0-426.667-191.025-426.667-426.667s191.025-426.667 426.667-426.667c235.641 0 426.667 191.025 426.667 426.667-0.323 235.511-191.155 426.343-426.635 426.667zM512 166.969c-155.209 0-281.031 125.822-281.031 281.031s125.822 281.031 281.031 281.031c155.209 0 281.031-125.822 281.031-281.031-0.323-155.079-125.952-280.708-281-281.031zM512 672.142c-123.79 0-224.142-100.352-224.142-224.142s100.352-224.142 224.142-224.142c123.79 0 224.142 100.352 224.142 224.142-0.323 123.66-100.482 223.82-224.112 224.142zM512 375.182c-40.216 0-72.818 32.602-72.818 72.818s32.602 72.818 72.818 72.818c40.216 0 72.818-32.602 72.818-72.818s-32.602-72.818-72.818-72.818zM512 463.929c-8.797 0-15.929-7.132-15.929-15.929s7.132-15.929 15.929-15.929c8.797 0 15.929 7.132 15.929 15.929s-7.132 15.929-15.929 15.929zM512 391.111c-31.419 0-56.889 25.47-56.889 56.889s25.47 56.889 56.889 56.889c31.419 0 56.889-25.47 56.889-56.889s-25.47-56.889-56.889-56.889zM512 448v0z" />
<glyph unicode="&#xe948;" glyph-name="Time" d="M512-35.556c-225.902 0-409.031 183.129-409.031 409.031s183.129 409.031 409.031 409.031c225.902 0 409.031-183.129 409.031-409.031-0.323-225.771-183.26-408.708-409-409.031zM512 725.618c-194.483 0-352.142-157.659-352.142-352.142s157.659-352.142 352.142-352.142c194.483 0 352.142 157.659 352.142 352.142-0.323 194.352-157.789 351.819-352.111 352.142zM483.556 903.111h56.889v-149.049h-56.889v149.049zM344.747 931.556h333.938v-56.889h-333.938v56.889zM362.382 221.013l-34.702 45.511 161.564 121.173v209.92h56.889v-238.364l-183.751-138.24z" />
<glyph unicode="&#xe949;" glyph-name="Transfer" d="M649.671 445.724l-40.391 40.391 182.044 182.044-182.044 182.613 40.391 40.391 222.436-223.004-222.436-222.436zM148.48 696.604h647.964v-56.889h-647.964v56.889zM374.329 4.836l-222.436 223.004 222.436 222.436 40.391-40.391-182.044-182.044 182.044-182.613-40.391-40.391zM220.16 256.284h647.964v-56.889h-647.964v56.889z" />
<glyph unicode="&#xe94a;" glyph-name="Trash" d="M815.218-41.813h-606.436v630.898h56.889v-574.009h492.658v574.009h56.889v-630.898zM893.724 561.778h-763.449v203.093h763.449zM187.164 618.667h649.671v89.316h-649.671zM671.289 735.858h-56.889v110.364h-204.8v-110.364h-56.889v167.253h318.578v-167.253zM354.418 462.222h56.889v-343.609h-56.889v343.609zM485.262 462.222h56.889v-343.609h-56.889v343.609zM612.693 462.222h56.889v-343.609h-56.889v343.609z" />
<glyph unicode="&#xe94b;" glyph-name="Vertical_ellipsis" d="M512 648.249c-21.051 0-38.116 17.065-38.116 38.116s17.065 38.116 38.116 38.116c21.051 0 38.116-17.065 38.116-38.116s-17.065-38.116-38.116-38.116zM512 618.667c-36.76 0-66.56 29.8-66.56 66.56s29.8 66.56 66.56 66.56c36.76 0 66.56-29.8 66.56-66.56s-29.8-66.56-66.56-66.56zM512 696.604c-5.341 0-9.671-4.33-9.671-9.671 0-10.809 19.342-10.809 19.342 0 0 5.341-4.33 9.671-9.671 9.671zM512 409.884c-21.051 0-38.116 17.065-38.116 38.116s17.065 38.116 38.116 38.116c21.051 0 38.116-17.065 38.116-38.116s-17.065-38.116-38.116-38.116zM512 381.44c-36.76 0-66.56 29.8-66.56 66.56s29.8 66.56 66.56 66.56c36.76 0 66.56-29.8 66.56-66.56s-29.8-66.56-66.56-66.56zM512 457.671c-5.341 0-9.671-4.33-9.671-9.671 0-10.809 19.342-10.809 19.342 0 0 5.341-4.33 9.671-9.671 9.671zM512 170.951c-21.051 0-38.116 17.065-38.116 38.116s17.065 38.116 38.116 38.116c21.051 0 38.116-17.065 38.116-38.116s-17.065-38.116-38.116-38.116zM512 142.507c-36.76 0-66.56 29.8-66.56 66.56s29.8 66.56 66.56 66.56c36.76 0 66.56-29.8 66.56-66.56s-29.8-66.56-66.56-66.56zM512 220.444c-5.341 0-9.671-4.33-9.671-9.671 0-10.809 19.342-10.809 19.342 0 0 5.341-4.33 9.671-9.671 9.671z" />
<glyph unicode="&#xe94c;" glyph-name="Video" d="M410.738 236.942v381.724l306.631-190.578zM467.627 515.698v-176.356l141.653 88.178zM967.111 65.707h-910.222v729.884h910.222zM113.778 122.596h796.444v616.107h-796.444z" />
<glyph unicode="&#xe94d;" glyph-name="Waiver" d="M699.164 240.924v0-77.369h-398.222v535.893h398.222v-56.889h40.391v97.28h-479.573v-617.813h479.573v119.467h-38.684zM310.613 163.556v0zM692.907 703.431v0zM736.711 646.542v0zM267.947 738.133v0zM261.689 128.284v-5.12zM566.044 564.053v40.391h-205.369v-40.391h205.369zM362.382 504.889h-1.707v-40.391h164.409v40.391h-162.702zM523.378 364.373h1.707v40.391h-164.409v-40.391h162.702zM360.676 303.502v-38.684h204.8v40.391h-204.8zM369.209 303.502v0zM868.124 509.44c-16.833 39.105-47.366 69.638-85.416 86.066-19.398 8.321-40.753 12.924-63.184 12.924-0.358 0-0.716-0.001-1.073-0.004-0.28 0.003-0.677 0.004-1.073 0.004-22.588 0-44.1-4.603-63.651-12.922-19.081-8.091-36.275-19.813-50.7-34.295-14.337-14.527-26.033-31.692-34.291-50.697-8.407-19.818-13.051-41.621-13.051-64.508s4.645-44.69 13.043-64.516c8.266-18.996 19.963-36.161 34.312-50.702 14.404-14.481 31.6-26.205 50.71-34.293 19.528-8.308 41.041-12.911 63.628-12.911 0.397 0 0.793 0.001 1.189 0.004 0.241-0.002 0.599-0.004 0.957-0.004 22.431 0 43.786 4.603 63.173 12.917 38.060 16.435 68.594 46.968 85.021 85.018 8.395 19.796 13.040 41.599 13.040 64.486s-4.645 44.69-13.043 64.516zM840.249 448c0.005-0.404 0.008-0.882 0.008-1.36 0-67.236-54.506-121.742-121.742-121.742-34.1 0-64.925 14.020-87.026 36.609-21.742 21.915-35.165 52.067-35.165 85.355s13.423 63.441 35.151 85.341c22.127 22.129 52.707 35.822 86.485 35.822 66.747 0 121.006-53.465 122.288-119.905zM760.036 448c-4.418 3.402-9.491 6.278-14.945 8.392l-15.775 5.262v30.72c4.386-0.345 8.445-1.359 12.205-2.941 4.382-1.628 8.359-4.141 11.704-7.314l-0.015 0.015 21.618 22.756c-6.254 5.205-13.649 9.291-21.731 11.824-7.155 2.21-14.923 3.632-22.949 4.093l-0.262 14.803h-17.636v-14.222c-5.639-0.463-10.857-1.675-15.75-3.544-5.505-1.925-10.602-4.822-15.058-8.473-4.334-3.679-7.96-8.214-10.605-13.338-2.645-5.29-4.125-11.237-4.125-17.53 0-0.524 0.010-1.045 0.031-1.563-0.006-0.122-0.008-0.355-0.008-0.587 0-6.185 1.473-12.026 4.088-17.191 3.012-4.437 7.010-8.254 11.68-11.067 4.403-3.364 9.302-6.062 14.588-7.943l16.299-5.235v-32.996h-5.689l-7.396 2.844-7.396 4.551-10.24 5.12-8.533-9.102-10.24-10.24c6.691-6.090 14.644-10.928 23.405-14.069 8.035-2.91 16.763-4.743 25.844-5.262l0.245-14.802h17.636v14.791c5.958 0.201 11.604 1.226 16.928 2.966 5.471 1.896 10.574 4.797 15.009 8.476 4.443 3.794 8.091 8.534 10.622 13.905 2.632 5.773 4.104 12.227 4.104 19.024 0 0.401-0.005 0.801-0.015 1.2 0.014 0.312 0.021 0.747 0.021 1.184 0 6.631-1.693 12.866-4.671 18.297-3.63 2.866-7.966 5.37-12.677 7.099zM711.68 491.804v-26.169c-3.092 0.972-5.755 2.533-7.981 4.566-2.263 2.337-3.669 5.548-3.669 9.088s1.405 6.75 3.688 9.106c2.182 1.916 4.873 3.311 7.845 3.958zM711.68 464.498v0zM726.471 398.507v0zM739.556 404.764c-2.209-2.223-5.177-3.69-8.482-3.979l-0.051 28.441c3.27-1.072 6.106-2.621 8.589-4.594 2.093-2.117 3.422-5.095 3.422-8.384 0-0.438-0.024-0.871-0.070-1.297 0.017-0.176 0.024-0.443 0.024-0.712 0-3.616-1.297-6.928-3.452-9.498zM728.178 491.804v0 0zM728.178 371.2v0zM773.12 504.889v0zM659.342 391.111v0zM987.022 543.573c-7.055 34.261-16.671 64.331-29.048 92.928-12.394 28.617-27.433 55.725-44.833 81.087-35.332 51.249-79.736 95.653-130.915 130.933-25.43 17.447-52.537 32.486-81.073 44.851-28.848 12.622-59.095 22.429-90.501 29.103-31.811 6.592-64.827 10.053-98.652 10.053s-66.84-3.461-98.713-10.047c-31.125-6.517-61.194-16.134-89.793-28.507-28.613-12.397-55.721-27.436-81.085-44.833-51.246-35.33-95.65-79.734-130.93-130.913-17.451-25.431-32.491-52.539-44.853-81.076-12.626-28.848-22.433-59.096-29.103-90.503-6.591-31.806-10.051-64.822-10.051-98.647s3.461-66.84 10.047-98.713c6.513-31.122 16.129-61.191 28.506-89.788 12.394-28.617 27.433-55.725 44.833-81.087 35.332-51.249 79.736-95.653 130.915-130.933 25.43-17.447 52.537-32.486 81.073-44.851 28.678-12.406 58.747-22.022 89.953-28.547 31.791-6.579 64.807-10.040 98.631-10.040s66.84 3.461 98.713 10.047c31.125 6.517 61.194 16.134 89.793 28.507 28.613 12.397 55.721 27.436 81.085 44.833 51.246 35.33 95.65 79.734 130.93 130.913 17.451 25.431 32.491 52.539 44.853 81.076 12.409 28.677 22.025 58.747 28.546 89.953 6.578 31.787 10.039 64.803 10.039 98.628s-3.461 66.84-10.047 98.713zM749.227 93.013c-21.083-14.319-45.213-27.469-70.609-38.21-25.314-10.72-51.955-19.154-79.552-24.997-28.522-6.081-57.99-9.272-88.203-9.272s-59.681 3.191-88.085 9.256c-27.715 5.859-54.355 14.293-79.773 25.053-25.294 10.702-49.423 23.852-72 39.123-22.749 15.413-43.937 32.627-63.497 51.517-18.619 19.292-35.833 40.48-51.142 63.065-15.388 22.742-28.538 46.873-39.273 72.272-10.717 25.308-19.151 51.949-24.994 79.546-4.919 25.528-7.442 51.585-7.442 78.231 0 3.306 0.039 6.604 0.116 9.892-0.010-0.176-0.010 0.195-0.010 0.565 0 29.040 3.108 57.354 9.011 84.627 5.89 26.965 14.315 52.823 25.036 77.451 10.683 24.77 23.822 48.331 39.081 70.309 11.379 15.364 23.502 30.014 36.4 43.934l597.603-597.66c-12.868-11.809-26.776-23.19-41.31-33.762zM930.702 363.804c-6.351-30.466-14.785-57.107-25.545-82.524-10.692-25.291-23.842-49.421-39.12-71.994-10.397-14.204-21.592-27.926-33.512-40.975l-597.575 596.559c12.019 11.138 25.004 21.776 38.615 31.598 22.249 14.989 46.368 28.13 71.702 38.981 25.428 10.778 52.069 19.212 79.666 25.055 27.979 5.935 56.824 9.043 86.394 9.043 0.236 0 0.472 0 0.708-0.001 0.408 0.002 0.934 0.002 1.46 0.002 29.231 0 57.834-2.692 85.573-7.841 27.468-5.237 54.177-13.114 79.687-23.345 25.271-10.108 49.431-22.717 72.054-37.484 22.756-14.92 43.966-31.973 63.355-50.883 18.671-19.338 35.885-40.526 51.192-63.112 15.383-22.741 28.532-46.871 39.271-72.269 10.718-25.31 19.152-51.951 24.995-79.548 6.081-28.522 9.272-57.99 9.272-88.203s-3.191-59.681-9.256-88.085z" />
<glyph unicode="&#xe94e;" glyph-name="Doctor" d="M596.764 42.382c-113.778 0-251.449 91.591-251.449 348.729h56.889c0-177.493 76.231-291.84 194.56-291.84 131.982 0 159.858 159.858 159.858 294.116h56.889c0-304.924-135.964-351.004-216.747-351.004zM781.084 365.511c-69.64 0.962-125.724 57.642-125.724 127.42 0 70.378 57.053 127.431 127.431 127.431 70.374 0 127.425-57.046 127.431-127.419 0-0.004 0-0.008 0-0.012 0-70.378-57.053-127.431-127.431-127.431-0.6 0-1.199 0.004-1.797 0.012zM781.084 563.484c-38.218-0.954-68.836-32.162-68.836-70.522 0-38.959 31.583-70.542 70.542-70.542 38.952 0 70.53 31.571 70.542 70.52-0.942 38.229-32.155 68.858-70.522 68.858-0.607 0-1.213-0.008-1.816-0.023zM378.88 376.889c0 0-0.001 0-0.001 0-112.594 0-203.907 91.113-204.23 203.631v265.702h96.142v-56.889h-39.253v-208.782c0-81.218 65.84-147.058 147.058-147.058s147.058 65.84 147.058 147.058v208.782h-39.253v56.889h96.142v-265.671c-0.323-112.35-91.313-203.34-203.631-203.662z" />
<glyph unicode="&#xe94f;" glyph-name="Medical" d="M512 67.413l-13.653 7.396c-18.204 10.24-448.284 246.898-448.284 495.502 0.324 140.512 114.305 254.293 254.862 254.293 0 0 0.001 0 0.001 0 86.162-4.465 160.999-49.251 206.486-115.711 46.057 66.334 121.176 110.547 206.75 112.859 141.103 0.007 255.208-114.098 255.208-254.855 0-248.036-430.080-485.262-448.284-495.502zM304.924 767.716c0 0-0.001 0-0.001 0-109.138 0-197.649-88.312-197.972-197.374 0-192.315 332.8-398.253 405.049-437.506 72.249 41.529 405.049 245.191 405.049 437.476 0 109.338-88.636 197.973-197.973 197.973-77.938 0-125.156-43.804-184.32-124.018l-22.756-32.427-22.756 32.427c-59.164 84.196-117.76 123.449-184.32 123.449zM560.356 268.8l-120.604 206.507-37.547-65.991h-169.529v56.889h136.533l69.404 124.018 121.173-208.213 59.733 102.4h171.804v-56.889h-139.378l-91.591-158.72z" />
<glyph unicode="&#xe950;" glyph-name="Data" horiz-adv-x="1025" d="M48.924 911.644v-927.289h927.289v927.289zM919.324 41.244h-813.511v813.511h813.511zM367.502 387.129c114.365 0 207.076 92.711 207.076 207.076s-92.711 207.076-207.076 207.076c-114.365 0-207.076-92.711-207.076-207.076s92.711-207.076 207.076-207.076zM367.502 744.391v0-150.187l106.382 105.813c27.288-27.197 44.173-64.817 44.173-106.382 0-82.946-67.241-150.187-150.187-150.187s-150.187 67.241-150.187 150.187c0 82.816 67.031 149.977 149.798 150.186zM501.76 346.169h56.889v-250.88h-56.889v250.88zM808.391 516.836h56.889v-421.547h-56.889v421.547zM604.16 396.8h56.889v-300.942h-56.889v300.942zM705.991 453.689h56.889v-357.831h-56.889v357.831z" />
<glyph unicode="&#xe951;" glyph-name="Flag" d="M219.591 819.484h56.889v-808.391h-56.889v808.391zM219.591 331.378v571.733l657.636-284.444zM276.48 814.933v-398.222l455.111 198.542z" />
<glyph unicode="&#xe952;" glyph-name="Filter" d="M625.778 5.973l-227.556 131.413v341.333l-306.062 389.689h839.68l-306.062-391.396zM455.111 169.813l113.778-63.147v389.689l248.036 315.164h-607.573l245.76-315.164zM428.942 515.129h166.116v-56.889h-166.116v56.889z" />
<glyph unicode="&#xe953;" glyph-name="Bank_check" horiz-adv-x="1025" d="M379.449 236.373h292.978v-56.889h-292.978v56.889zM379.449 335.929h473.884v-56.889h-473.884v56.889zM379.449 438.898h91.591v-56.889h-91.591v56.889zM311.751 309.76c-6.22 4.754-13.36 8.781-21.027 11.746l-23.915 8.165v47.218c7.264-0.331 14.060-1.973 20.277-4.694 6.495-2.569 12.36-6.425 17.279-11.244l28.436 32.435c-8.831 7.217-19.264 12.866-30.648 16.33-10.928 3.352-22.807 5.399-35.095 5.849l-0.248 19.918h-21.618v-20.48c-8.528-0.565-16.467-2.395-23.861-5.306-7.542-2.751-14.52-6.798-20.631-11.855-6.19-5.194-11.348-11.624-15.082-18.904-3.752-7.591-5.854-16.126-5.854-25.152 0-0.278 0.002-0.556 0.006-0.833-0.027-0.587-0.042-1.326-0.042-2.067 0-8.329 1.904-16.213 5.301-23.241 3.446-6.464 8.225-12.151 13.97-16.662 5.98-4.722 12.757-8.568 20.078-11.295l24.977-8.133v-51.769h-10.809l-11.378 3.982-10.809 6.258c-3.434 2.356-6.419 4.98-9.062 7.919l-15.4-16.452-15.929-13.653c9.564-8.571 20.931-15.355 33.438-19.701 12.142-4.413 25.367-7.080 39.142-7.599l0.238-21.625h21.618v21.618c9.041 0.272 17.608 1.917 25.625 4.733 7.714 2.616 14.9 6.682 21.135 11.854 6.341 5.272 11.53 11.917 15.102 19.476 3.759 8.132 5.865 17.245 5.865 26.851 0 0.682-0.011 1.362-0.032 2.039 0.020 0.415 0.031 1.020 0.031 1.626 0 9.16-2.328 17.776-6.424 25.29-3.781 6.629-8.718 12.473-14.546 17.273zM245.191 334.222c-6.82 0.963-12.843 3.814-17.678 8.001-3.48 3.291-5.672 7.993-5.672 13.208 0 0.344 0.010 0.686 0.028 1.025-0.021 0.261-0.031 0.62-0.031 0.983 0 5.486 2.426 10.405 6.265 13.742 3.909 3.29 8.764 5.53 14.1 6.26zM281.6 246.044c-4.091-4.092-9.694-6.671-15.9-6.826l-0.029 46.648c5.9-1.725 11.026-4.456 15.443-8.029 3.788-3.484 6.206-8.564 6.206-14.208 0-0.382-0.011-0.762-0.033-1.139 0.030-0.366 0.045-0.854 0.045-1.346 0-5.805-2.174-11.103-5.752-15.123zM970.524 705.138l-134.258 134.258-288.996-288.996h-481.849v-481.849h893.156v481.849h-142.791zM836.267 758.613l54.044-54.044-155.307-154.169-113.778-113.778h-52.338v56.32l56.889 56.889zM901.689 493.511v-368.071h-779.378v368.071h389.689v-113.778h134.258l113.778 113.778z" />
<glyph unicode="&#xe954;" glyph-name="Registration" horiz-adv-x="1025" d="M784.498-35.556h-726.471v944.924h726.471v-142.791h-56.889v85.902h-612.693v-831.147h612.693v116.622h56.889v-173.511zM764.587 203.947c-135.101 0-244.622 109.521-244.622 244.622s109.521 244.622 244.622 244.622c135.101 0 244.622-109.521 244.622-244.622 0-0.2 0-0.4-0.001-0.6-0.645-134.695-109.85-243.701-244.591-244.022zM764.587 636.302c-103.682-0.001-187.732-84.051-187.732-187.733s84.051-187.733 187.733-187.733c103.482 0 187.409 83.727 187.732 187.134 0.001 0.2 0.001 0.4 0.001 0.6 0 103.682-84.051 187.733-187.733 187.733 0 0-0.001 0-0.001 0zM856.747 477.013h-63.716v63.716h-56.889v-63.716h-63.716v-56.889h63.716v-64.284h56.889v64.284h63.716v56.889zM515.982 159.004h-358.4v180.338c0 18.204 8.533 52.338 65.422 72.818 31.881 10.866 68.607 17.138 106.798 17.138 2.454 0 4.902-0.026 7.344-0.077 82.693 0.006 179.973-23.318 179.973-89.878zM214.471 215.893h244.622v123.449c0 9.671-42.098 32.996-123.449 32.996s-121.173-21.618-121.173-32.996zM336.782 456.533c-62.838 0-113.778 50.94-113.778 113.778s50.94 113.778 113.778 113.778c62.838 0 113.778-50.94 113.778-113.778v0c0-62.838-50.94-113.778-113.778-113.778zM336.782 623.787c-31.419 0-56.889-25.47-56.889-56.889s25.47-56.889 56.889-56.889c31.419 0 56.889 25.47 56.889 56.889s-25.47 56.889-56.889 56.889z" />
</font>
</defs>
</svg>
