<?xml version="1.0" standalone="no"?>
<!DOCTYPE svg PUBLIC "-//W3C//DTD SVG 1.1//EN" "http://www.w3.org/Graphics/SVG/1.1/DTD/svg11.dtd" >
<svg xmlns="http://www.w3.org/2000/svg">
<metadata>Generated by IcoMoon</metadata>
<defs>
<font id="fisfont-solid" horiz-adv-x="1024">
<font-face units-per-em="1024" ascent="960" descent="-64" />
<missing-glyph horiz-adv-x="1024" />
<glyph unicode="&#x20;" horiz-adv-x="512" d="" />
<glyph unicode="&#xe900;" glyph-name="Accounts" d="M161.564 409.884c22.658 214.071 202.219 379.417 420.405 379.449h23.897c22.361-1.148 43.258-3.789 63.639-7.856l-2.768 0.461c23.741-5.232 43.908-11.301 63.435-18.673l-3.133 1.038c-7.964 9.671-14.791 19.911-23.893 29.013-67.426 71.019-162.527 115.201-267.947 115.201-203.909 0-369.21-165.301-369.21-369.21 0-98.489 38.564-187.971 101.415-254.17l-0.152 0.161c-3.415 17.684-5.858 38.615-6.794 59.938l-0.033 0.933c-0.453 7.294-0.712 15.819-0.712 24.404 0 13.842 0.672 27.528 1.984 41.026l-0.135-1.714zM643.413 277.333c3.838 5.194 6.173 11.703 6.258 18.753v0.020c0.004 0.17 0.006 0.37 0.006 0.571 0 6.25-2.145 12-5.738 16.552l0.043-0.057c-5.787 6.173-13.064 10.88-21.26 13.552l-0.358 0.101-13.084 7.396v-72.249l13.653 3.413c8.084 2.175 15.012 6.337 20.471 11.937l0.009 0.009zM564.338 471.324c-10.76-0.361-20.719-3.487-29.281-8.684l0.268 0.151c-7.159-5.141-11.805-13.391-11.946-22.733v-0.022c-0.019-0.336-0.030-0.728-0.030-1.124 0-6.674 3.106-12.622 7.952-16.479l0.043-0.033c9.383-6.381 20.507-10.975 32.502-13.015l0.494-0.069zM843.093 627.2c-18.488 17.789-38.974 33.751-61.014 47.45l-1.564 0.906c-14.463 9.655-31.090 18.784-48.498 26.467l-2.133 0.84c-14.184 6.297-31.582 12.506-49.479 17.52l-2.859 0.684c-27.887 7.538-59.905 11.869-92.934 11.869-204.223 0-369.778-165.555-369.778-369.778 0-51.515 10.534-100.569 29.566-145.126l-0.916 2.413c19.239-44.231 45.323-81.981 77.346-113.755l0.023-0.023c66.849-66.778 159.161-108.076 261.12-108.076 204.059 0 369.481 165.422 369.481 369.481 0 102.1-41.413 194.527-108.357 261.401l-0.003 0.003zM517.12 213.618c-19.663 8.87-35.84 22.491-47.538 39.441l-0.249 0.381c-6.903 11.979-11.897 25.974-14.141 40.87l-0.082 0.659v5.12l56.889 7.396v-3.982c1.872-6.709 4.396-12.566 7.585-17.984l-0.19 0.349c6.382-8.358 14.853-14.816 24.644-18.64l0.387-0.133c5.119-2.379 11.058-4.171 17.285-5.078l0.35-0.042v83.058c-19.161 4.689-35.837 10.732-51.634 18.315l1.572-0.68c-14.709 7.546-26.791 18.353-35.627 31.52l-0.213 0.338c-3.577 5.721-6.664 12.312-8.924 19.275l-0.178 0.636c-0.548 3.42-0.86 7.362-0.86 11.378s0.313 7.958 0.915 11.805l-0.055-0.427c-0.004 0.299-0.006 0.652-0.006 1.006 0 17.633 5.313 34.025 14.425 47.662l-0.196-0.312c10.445 15.283 24.985 27.075 42.046 33.914l0.621 0.22c13.063 5.309 28.189 8.779 44.007 9.655l0.366 0.016v38.116h44.942v-39.822c11.83-1.472 22.587-4.472 32.619-8.828l-0.761 0.294c18.114-7.423 33.017-19.579 43.592-34.945l0.212-0.326c7.012-10.688 11.86-23.411 13.607-37.103l0.046-0.444v-5.12l-60.871-5.12v3.982c-2.542 8.962-8.233 16.318-15.774 20.96l-0.155 0.089c-4.374 3.395-9.48 6.111-15.014 7.869l-0.346 0.095v-71.111c17.215-4.067 31.835-8.752 45.957-14.416l-2.153 0.762c17.56-7.541 32.027-19.448 42.455-34.383l0.211-0.319c9.26-13.15 14.8-29.5 14.8-47.145 0-0.426-0.003-0.851-0.010-1.275l0.001 0.064c-0.102-18.867-5.823-36.378-15.572-50.968l0.212 0.337c-10.728-16.231-25.618-28.927-43.167-36.725l-0.638-0.253c-12.253-5.134-26.478-8.936-41.321-10.732l-0.777-0.077v-39.253h-46.080v39.822c-17.242 1.067-33.324 4.731-48.291 10.612l1.074-0.372z" />
<glyph unicode="&#xe901;" glyph-name="Action" d="M841.956 169.244h-673.564v398.222h628.622l-113.778-113.778 45.511-44.942 190.578 191.147-190.578 190.578-45.511-44.942 113.778-113.778h-692.338v-526.222h801.564v291.271h-64.284v-227.556z" />
<glyph unicode="&#xe902;" glyph-name="Approval" d="M980.196 372.907l-25.6 56.889c-2.691 5.307-4.268 11.572-4.268 18.204s1.576 12.897 4.375 18.439l-0.107-0.234 26.169 56.889c5.902 13.042 9.342 28.278 9.342 44.318 0 40.407-21.828 75.717-54.336 94.779l-0.517 0.28-56.889 30.72c-10.824 6.436-18.683 16.898-21.557 29.271l-0.061 0.311-11.947 61.44c-10.423 49.672-53.867 86.436-105.898 86.436-3.777 0-7.509-0.194-11.186-0.572l0.461 0.038-61.44-6.827c-1.637-0.217-3.529-0.34-5.45-0.34-11.533 0-22.025 4.457-29.847 11.742l0.026-0.024-46.080 42.098c-19.313 17.569-45.093 28.326-73.387 28.326s-54.074-10.758-73.475-28.406l0.089 0.079-45.511-42.098c-7.719-7.276-18.151-11.748-29.628-11.748-1.99 0-3.948 0.134-5.867 0.395l-61.785 6.802c-4.163 0.574-8.974 0.902-13.861 0.902-51.941 0-95.235-37.027-104.925-86.125l-0.112-0.679-11.947-61.44c-2.935-12.685-10.794-23.147-21.406-29.466l-0.212-0.117-56.889-30.72c-31.84-19.466-52.767-54.041-52.767-93.503 0-16.646 3.724-32.422 10.383-46.541l-0.282 0.666 25.6-56.889c2.698-5.397 4.277-11.759 4.277-18.489s-1.579-13.091-4.387-18.733l0.11 0.244-25.6-56.889c-6.492-13.397-10.286-29.138-10.286-45.765 0-40.086 22.054-75.021 54.69-93.335l0.539-0.278 54.044-30.72c11.146-6.223 19.255-16.753 22.128-29.28l0.058-0.302 11.947-61.44c11.301-49.546 54.986-85.961 107.177-85.961 4.129 0 8.204 0.228 12.215 0.672l-0.494-0.044 62.009 6.827c1.52 0.182 3.281 0.286 5.066 0.286 11.646 0 22.258-4.43 30.242-11.697l-0.036 0.033 45.511-42.098c19.263-17.687 45.059-28.527 73.387-28.527s54.124 10.84 73.466 28.599l-0.079-0.072 46.080 42.098c8.014 7.191 18.663 11.587 30.339 11.587 1.537 0 3.055-0.076 4.553-0.225l-0.189 0.015 62.009-6.827c3.615-0.424 7.803-0.666 12.047-0.666 52.299 0 96.014 36.757 106.719 85.847l0.132 0.722 11.947 61.44c2.935 12.685 10.794 23.147 21.406 29.466l0.212 0.117 56.889 30.72c32.173 18.841 53.438 53.238 53.438 92.601 0 17.022-3.977 33.115-11.051 47.401l0.28-0.624zM728.178 585.671l-245.191-315.733-183.182 159.289 56.889 64.284 113.778-99.556 190.009 244.053z" />
<glyph unicode="&#xe903;" glyph-name="Arrow" d="M587.662 752.924l-50.631-50.062 219.591-219.022h-625.209v-71.111h625.209l-219.591-219.591 50.631-50.062 304.924 304.924-304.924 304.924z" />
<glyph unicode="&#xe904;" glyph-name="Arrow_down" d="M202.524 602.738l309.476-309.476 309.476 309.476h-618.951z" />
<glyph unicode="&#xe905;" glyph-name="Dashboard" d="M856.747 675.556c-87.306 87.854-208.211 142.231-341.816 142.231-1.030 0-2.060-0.003-3.089-0.010l0.158 0.001c-269.047-0.696-486.883-218.961-486.883-488.105 0-46.159 6.407-90.822 18.381-133.147l-0.831 3.439 6.258-23.324h299.236c32.132-58.989 93.674-98.348 164.409-98.348s132.277 39.359 163.921 97.371l0.488 0.977h296.96l6.258 23.324c11.778 39.332 18.626 84.544 18.773 131.333v0.080c0.008 1.053 0.013 2.298 0.013 3.543 0 133.235-54.396 253.764-142.192 340.592l-0.043 0.043zM584.818 303.502c0.031-0.804 0.048-1.748 0.048-2.696 0-41.787-33.875-75.662-75.662-75.662s-75.662 33.875-75.662 75.662c0 41.787 33.875 75.662 75.662 75.662 12.432 0 24.163-2.998 34.511-8.311l-0.426 0.199 117.76 117.191 39.822-39.822-120.604-120.604c2.464-6.368 4.094-13.735 4.542-21.42l0.009-0.198zM512 593.636v0c-137.126-1.491-251.45-97.327-281.215-225.586l-0.385-1.969-59.733 14.791c36.885 157.776 175.19 273.912 341.051 276.477l0.282 0.003c166.607-1.263 305.584-118.032 340.885-274.124l0.448-2.356-62.578-13.653c-29.423 129.385-142.719 224.772-278.575 226.416l-0.181 0.002z" />
<glyph unicode="&#xe906;" glyph-name="Back" d="M772.551 574.862h-574.009l113.778 113.778-45.511 43.804-190.578-189.44 190.578-191.147 45.511 44.942-113.778 113.778h574.009c76.8 0 113.778-73.387 113.778-142.222-0.289-37.857-12.618-72.779-33.34-101.189l0.345 0.496c-17.935-25.262-47.080-41.547-80.028-41.547-0.665 0-1.329 0.007-1.991 0.020l0.099-0.002h-276.48v-62.578h277.618c113.778 0 175.218 103.538 175.218 205.938s-60.302 205.369-175.218 205.369z" />
<glyph unicode="&#xe907;" glyph-name="Bank" d="M147.911 168.676h56.889v406.756h75.662v-406.756h56.889v406.756h79.644v-406.756h56.889v406.756h76.231v-406.756h56.889v406.756h79.644v-406.756h56.889v406.756h75.662v-406.756h56.889v406.756h57.458v113.778l-423.822 209.351-424.391-209.351v-113.778h62.578v-406.756zM113.778 141.369h796.444v-56.889h-796.444v56.889zM56.889 54.329h910.222v-56.889h-910.222v56.889z" />
<glyph unicode="&#xe908;" glyph-name="BillPay" d="M796.444 472.462v0c-9.078 4.13-19.726 7.658-30.798 10.048l-1.059 0.192v51.2c4.169-0.817 7.826-2.617 10.846-5.15l-0.037 0.030c4.25-4.197 7.558-9.337 9.585-15.081l0.086-0.279v-2.844l44.373 3.413v3.982c-1.57 10.096-5.176 19.123-10.395 26.986l0.155-0.248c-7.888 11.518-18.703 20.504-31.386 25.987l-0.472 0.182c-6.581 2.568-14.261 4.561-22.233 5.631l-0.523 0.057v28.444h-32.427v-27.307c-9.035-1.309-17.095-3.295-24.833-5.971l0.939 0.283c-1.196 0.154-2.579 0.241-3.982 0.241s-2.787-0.088-4.144-0.258l0.162 0.017c-12.8-4.895-23.309-13.386-30.575-24.232l-0.145-0.23c-6.767-9.731-10.811-21.797-10.811-34.807 0-0.163 0.001-0.326 0.002-0.489v0.025c-0.003-0.221-0.005-0.482-0.005-0.744 0-11.1 3.179-21.458 8.677-30.213l-0.139 0.237c6.649-9.843 15.459-17.743 25.783-23.141l0.386-0.184c4.096-2.019 8.999-3.952 14.070-5.5l0.721-0.189 23.893-6.827v-60.871c-4.734 0.937-8.923 2.313-12.869 4.128l0.354-0.146-11.378 6.827c-2.573 2.010-4.817 4.254-6.763 6.742l-0.064 0.085c-2.368 3.58-4.147 7.777-5.080 12.284l-0.040 0.232-43.236-5.12v-1.707c1.615-11.38 5.639-21.58 11.544-30.416l-0.166 0.265c8.148-12.893 19.814-22.911 33.651-28.83l0.482-0.183h10.24c7.051-2.46 15.204-4.090 23.67-4.542l0.223-0.010v-28.444h32.427v27.876c11.165 1.265 21.36 4.074 30.831 8.23l-0.679-0.266c13.178 5.872 23.99 15.039 31.69 26.474l0.167 0.264c7.051 10.385 11.29 23.178 11.378 36.955v0.022c-1.315 12.391-6.032 23.482-13.187 32.561l0.102-0.134c-7.432 10.435-17.198 18.743-28.567 24.267l-0.446 0.196zM731.591 490.667c-9.041 1.819-17.056 5.182-24.153 9.831l0.26-0.16c-3.449 3.094-5.627 7.544-5.689 12.505v0.011c0.321 4.919 2.435 9.29 5.687 12.514l0.001 0.001 3.413 3.982c5.87 3.529 12.867 5.795 20.352 6.252l0.128 0.006zM788.48 396.8c-3.568-4.933-8.672-8.56-14.603-10.196l-0.188-0.044-9.671-2.844v52.338l9.102-3.413c6.235-2.054 11.571-5.372 15.933-9.676l-0.005 0.004c2.493-3.224 3.996-7.323 3.996-11.774 0-0.261-0.005-0.52-0.015-0.779l0.001 0.037c-0.078-5.325-2.235-10.131-5.692-13.657l0.003 0.003zM762.88 702.293v218.453h-726.471v-945.493h726.471v241.209c127.122 8.969 226.85 114.296 226.85 242.916s-99.728 233.946-226.077 242.872l-0.773 0.044zM193.991 552.676h241.209v-56.889h-244.053zM193.991 400.213h241.209v-56.889h-244.053zM501.76 190.293h-310.613v56.889h307.769zM501.76 648.818h-310.613v56.889h307.769zM745.813 271.644c-103.682 0-187.733 84.051-187.733 187.733s84.051 187.733 187.733 187.733c103.682 0 187.733-84.051 187.733-187.733v0c0-0.006 0-0.014 0-0.022 0-103.682-84.051-187.733-187.733-187.733-1 0-1.998 0.008-2.995 0.023l0.15-0.002z" />
<glyph unicode="&#xe909;" glyph-name="Bookmark" d="M228.693 908.8v-921.6l285.582 237.796 281.031-233.244v917.049h-566.613z" />
<glyph unicode="&#xe90a;" glyph-name="Building" d="M104.107 79.929h480.142v120.036h159.289v-120.036h208.213v538.738h-512v284.444h-367.502v-823.182zM230.969 111.218h-56.889v89.316h56.889zM230.969 259.129h-56.889v89.316h56.889zM230.969 407.609h-56.889v89.316h56.889zM230.969 555.52h-56.889v89.316h56.889zM230.969 704h-56.889v89.316h56.889zM333.369 111.218h-56.889v89.316h56.889zM333.369 259.129h-56.889v89.316h56.889zM333.369 407.609h-56.889v89.316h56.889zM333.369 555.52h-56.889v89.316h56.889zM333.369 704h-56.889v89.316h56.889zM538.169 259.129h-56.889v89.316h56.889zM538.169 407.609h-56.889v89.316h56.889zM641.138 259.129h-56.889v89.316h56.889zM641.138 407.609h-56.889v89.316h56.889zM743.538 259.129h-56.889v89.316h56.889zM743.538 407.609h-56.889v89.316h56.889zM845.938 259.129h-56.889v89.316h56.889zM845.938 407.609h-56.889v89.316h56.889zM743.538 53.191h-694.613v-63.716h926.151v63.716h-231.538z" />
<glyph unicode="&#xe90b;" glyph-name="Calendar" d="M749.227 817.209v85.902h-63.716v-85.902h-344.178v85.902h-66.56v-85.902h-236.658v-853.333h947.769v853.333zM464.782 157.867c-24.274-23.269-57.281-37.596-93.633-37.596-1.282 0-2.561 0.018-3.835 0.053l0.188-0.004c-1.59-0.069-3.455-0.109-5.329-0.109-32.851 0-62.874 12.106-85.852 32.101l0.158-0.135c-23.351 20.551-38.933 49.447-42.058 81.981l-0.039 0.508 75.093 9.102c1.275-17.086 8.407-32.298 19.371-43.835l-0.029 0.030c9.646-9.498 22.894-15.363 37.511-15.363 0.212 0 0.425 0.001 0.636 0.004h-0.032c16.186 0.222 30.707 7.17 40.927 18.169l0.033 0.035c10.318 12.402 16.58 28.496 16.58 46.053 0 1.21-0.030 2.413-0.089 3.609l0.007-0.168c0.038 0.837 0.059 1.819 0.059 2.805 0 16.564-6.051 31.715-16.062 43.363l0.074-0.088c-9.139 10.818-22.714 17.642-37.883 17.642-0.282 0-0.563-0.002-0.844-0.007l0.042 0.001c-12.769-0.518-24.829-2.769-36.204-6.525l0.933 0.267 6.827 63.716c2.079-0.23 4.489-0.362 6.93-0.362 15.467 0 29.701 5.275 41.002 14.125l-0.146-0.11c10.173 8.714 16.578 21.572 16.578 35.927 0 0.97-0.029 1.933-0.087 2.889l0.006-0.131c0.099 1.069 0.156 2.313 0.156 3.569 0 22.622-18.338 40.96-40.96 40.96-1.256 0-2.5-0.057-3.727-0.167l0.158 0.012c-0.136 0.001-0.296 0.002-0.456 0.002-13.099 0-24.981-5.208-33.689-13.667l0.012 0.011c-9.627-10.791-15.894-24.764-17.053-40.163l-0.014-0.228-70.542 11.947c4.14 21.515 12.070 40.621 23.127 57.493l-0.371-0.604c10.644 14.877 24.874 26.55 41.454 33.879l0.643 0.254c17.203 8.265 37.4 13.093 58.725 13.093 0.555 0 1.108-0.003 1.661-0.010l-0.084 0.001c1.825 0.1 3.961 0.156 6.11 0.156 32.924 0 62.737-13.318 84.346-34.862l-0.003 0.003c17.55-16.986 28.444-40.756 28.444-67.071 0-0.020 0-0.041 0-0.061v0.003c-0.7-38.011-23.619-70.503-56.286-85.093l-0.603-0.241c23.114-4.207 42.855-16.326 56.753-33.392l0.136-0.172c13.131-16.505 21.068-37.653 21.068-60.655 0-0.676-0.007-1.35-0.020-2.023l0.002 0.101c0.001-0.209 0.002-0.456 0.002-0.703 0-35.834-15.554-68.035-40.28-90.219l-0.113-0.1zM749.227 127.147h-76.8v292.978c-27.786-25.247-61.268-44.766-98.25-56.381l-1.874-0.508v68.267c25.333 9.475 47.197 22.369 66.342 38.401l-0.351-0.286c22.193 16.101 39.148 38.192 48.618 63.903l0.306 0.951h63.147zM100.693 696.036v56.889h170.667v-30.72h69.973v31.289h347.022v-30.72h63.716v30.72h170.667v-56.889z" />
<glyph unicode="&#xe90c;" glyph-name="Camera" d="M982.471 719.929h-192.853l-79.644 145.067h-398.222l-77.369-145.067h-192.853v-688.924h940.942zM284.444 410.453c0 125.675 101.88 227.556 227.556 227.556s227.556-101.88 227.556-227.556c0-125.675-101.88-227.556-227.556-227.556v0c-125.675 0-227.556 101.88-227.556 227.556v0z" />
<glyph unicode="&#xe90d;" glyph-name="Card" d="M869.831 773.404h-715.662c-53.539-0.949-96.652-44.261-97.279-97.789l-0.001-0.060v-455.111c0-0.001 0-0.001 0-0.002 0-54.469 43.994-98.662 98.387-98.985h714.555c53.93 0.959 97.28 44.903 97.28 98.972 0 0.005 0 0.010 0 0.015v-0.001 455.111c-0.627 53.587-43.741 96.9-97.19 97.848l-0.090 0.001zM512 269.938h-311.751v56.889h311.751zM606.436 367.218h-406.187v56.889h406.187zM119.467 515.129v113.778h785.067v-113.778z" />
<glyph unicode="&#xe90e;" glyph-name="Chart" d="M56.889 816.64v-739.556h910.222v739.556zM189.44 334.222l129.707 141.084 86.471-74.524 122.88 140.516 93.298-98.987 164.978 193.991 48.356-41.529-209.351-248.604-95.573 101.831-118.329-137.671-88.178 76.231-87.609-93.298z" />
<glyph unicode="&#xe90f;" glyph-name="Chat" d="M52.907 903.111v-670.72h156.444v-239.502l241.209 241.778h520.533v668.444zM760.604 568.036c0.002-0.169 0.002-0.369 0.002-0.569 0-37.074-30.055-67.129-67.129-67.129s-67.129 30.055-67.129 67.129c0 37.073 30.053 67.127 67.126 67.129v0c0.001 0 0.002 0 0.002 0 36.874 0 66.804-29.731 67.126-66.529v-0.031zM578.56 568.036c0-36.76-29.8-66.56-66.56-66.56s-66.56 29.8-66.56 66.56c0 36.76 29.8 66.56 66.56 66.56v0c36.76 0 66.56-29.8 66.56-66.56v0zM330.524 500.907c-36.829 0.322-66.56 30.252-66.56 67.126 0 37.074 30.055 67.129 67.129 67.129s67.128-30.053 67.129-67.126v0c0-0.001 0-0.002 0-0.002 0-37.074-30.055-67.129-67.129-67.129-0.2 0-0.4 0.001-0.599 0.003h0.030z" />
<glyph unicode="&#xe910;" glyph-name="Chevron" d="M512 272.782l-290.133 290.133 60.871 60.302 229.262-229.831 229.262 229.831 60.871-60.302-290.133-290.133z" />
<glyph unicode="&#xe911;" glyph-name="Clipboard" d="M729.316 801.849v65.422h-126.862c-13.746 37.38-49.042 63.561-90.453 63.561s-76.707-26.182-90.238-62.895l-0.215-0.666h-126.862v-65.422h-174.080v-836.836h782.791v836.836zM473.316 835.413c0 21.365 17.32 38.684 38.684 38.684s38.684-17.32 38.684-38.684v-25.031h121.742v-77.938h-320.853v77.938h121.742zM284.444 247.751v56.889h460.8v-56.889zM526.791 153.884v-56.889h-242.347v56.889zM284.444 397.938v56.889h460.8v-56.889zM284.444 548.124v56.889h460.8v-56.889z" />
<glyph unicode="&#xe912;" glyph-name="Close" d="M858.453 733.013l-60.302 60.302-286.151-285.013-286.151 285.013-60.302-60.302 286.151-285.013-286.151-285.013 60.302-60.302 286.151 285.013 286.151-285.013 60.302 60.302-286.151 285.013 286.151 285.013z" />
<glyph unicode="&#xe913;" glyph-name="Compress" d="M76.8 323.413v-71.111h188.871l-236.658-236.658 50.062-50.062 237.796 237.796v-191.147h71.111v311.182h-311.182zM947.2 323.413v-71.111h-188.871l236.658-236.658-50.062-50.062-237.796 237.796v-191.147h-71.111v311.182h311.182zM76.8 572.018v71.111h188.871l-236.658 237.227 50.062 50.062 237.796-237.796v191.147h71.111v-311.751h-311.182zM947.2 572.018v71.111h-188.871l236.658 237.227-50.062 50.062-237.796-237.796v191.147h-71.111v-311.751h311.182zM939.804 572.018h7.396v71.111h-188.871l232.107 232.107 4.551 5.12-4.551 5.12-40.391 39.822-5.12 5.12-237.796-237.796v191.147h-71.111v-311.751h303.787z" />
<glyph unicode="&#xe914;" glyph-name="Delete" d="M512 934.969c-268.945 0-486.969-218.023-486.969-486.969s218.023-486.969 486.969-486.969c268.945 0 486.969 218.023 486.969 486.969v0c-0.323 268.815-218.154 486.645-486.938 486.969h-0.031zM696.889 323.413l-60.302-60.302-124.587 124.587-124.587-124.587-60.302 60.302 124.587 124.587-124.587 124.018 60.302 60.302 124.587-127.431 124.587 124.587 60.302-60.302-124.587-121.173z" />
<glyph unicode="&#xe915;" glyph-name="Direct_mail" d="M512 371.2l134.827-94.436 95.573 69.404v177.493h-460.8v-177.493l93.867-68.267 136.533 93.298zM512 933.831l-492.089-342.471v-56.889l204.231-147.342v193.422h575.147v-193.422l204.8 147.342v56.889l-492.089 342.471zM512 293.262l-475.022-331.093h950.044l-475.022 331.093zM321.422 238.080l-301.511 217.316v-427.236l301.511 209.92zM702.578 238.080l301.511-209.92v427.236l-301.511-217.316z" />
<glyph unicode="&#xe916;" glyph-name="Donut" d="M791.893 498.631v-5.689h80.213v7.964c-13.923 89.586-58.718 166.806-122.966 222.030l-0.483 0.405-9.102 5.689-42.667-68.267 4.551-3.982c45.261-40.571 77.484-94.857 90.133-156.291l0.32-1.86zM658.204 205.084l-5.12-2.844c-41.031-24.311-90.439-38.677-143.202-38.677-157.094 0-284.444 127.35-284.444 284.444s127.35 284.444 284.444 284.444c0.745 0 1.489-0.003 2.232-0.009l-0.114 0.001c37.496-0.060 73.268-7.367 106.016-20.592l-1.909 0.681h5.689l42.098 67.698-7.396 3.413c-42.641 19.107-92.418 30.236-144.794 30.236-199.824 0-361.813-161.989-361.813-361.813s161.989-361.813 361.813-361.813c69.988 0 135.335 19.872 190.706 54.281l-1.538-0.891 6.827 4.551zM792.462 403.058v-5.689c-9.793-50.152-31.176-94.187-61.275-130.782l0.404 0.506-3.982-4.551 51.2-60.871 5.689 6.258c45.195 50.593 76.491 114.5 87.353 185.145l0.255 2.019v7.964z" />
<glyph unicode="&#xe917;" glyph-name="Download" d="M752.64 460.516l-45.511 44.942-163.271-164.409v525.084h-63.716v-525.653l-163.271 164.978-45.511-44.942 240.64-242.916 240.64 242.916zM885.191 478.151v-430.080h-746.382v430.080h-64.284v-493.796h874.951v493.796h-64.284z" />
<glyph unicode="&#xe918;" glyph-name="Edit" d="M567.308 719.723l119.875 119.875 216.419-216.419-119.875-119.875-216.419 216.419zM527.36 679.538l-406.756-406.756v-216.178h216.178l406.756 406.756-216.178 216.178z" />
<glyph unicode="&#xe919;" glyph-name="Email" d="M504.604 330.24l-486.4 423.253v-654.791h987.591v653.653l-501.191-422.116zM505.173 414.436l455.111 382.862h-896l440.889-382.862z" />
<glyph unicode="&#xe91a;" glyph-name="Error" d="M1024-15.644h-1024l512 927.289zM113.778 49.778h796.444l-398.222 722.489zM457.956 234.098h108.089v-100.693h-108.089v100.693zM457.956 570.88h108.089v-286.151h-108.089v286.151z" />
<glyph unicode="&#xe91b;" glyph-name="Expand" d="M155.307 856.462h190.578v71.111h-313.458v-313.458h71.111v193.422l259.982-259.982 50.062 50.062-258.276 258.844zM920.462 807.538v-193.422h71.111v313.458h-313.458v-71.111h190.578l-258.276-258.844 50.062-50.062 259.982 259.982zM103.538 88.462v193.422h-71.111v-313.458h313.458v71.111h-190.578l258.276 258.844-50.062 50.062-259.982-259.982zM678.116-31.573h313.458v313.458h-71.111v-193.422l-259.982 259.982-50.062-50.062 258.276-258.844h-190.578v-71.111z" />
<glyph unicode="&#xe91c;" glyph-name="Export" d="M480.142 788.196v-525.084h63.716v525.084l163.271-164.409 45.511 44.942-240.64 242.916-240.64-242.916 45.511-44.942 163.271 164.409zM885.191 478.151v-430.080h-746.382v430.080h-64.284v-493.796h874.951v493.796h-64.284z" />
<glyph unicode="&#xe91d;" glyph-name="Eye" d="M929.564 504.889c-26.85 36.513-56.003 68.554-88.147 97.322l-0.599 0.527c-40.712 36.891-86.899 68.909-136.93 94.478l-3.585 1.664c-54.319 28.328-118.628 44.945-186.818 44.945-0.522 0-1.043-0.001-1.565-0.003h0.081c-2.172 0.041-4.733 0.065-7.299 0.065-65.918 0-128.198-15.571-183.365-43.236l2.362 1.073c-53.791-27.26-100.148-59.081-141.734-96.142l0.65 0.569c-33.205-28.929-62.409-61.022-87.609-96.179l-1.138-1.67-22.187-32.427-14.791-27.876 39.253-56.889c26.68-37.069 55.858-69.496 88.181-98.488l0.565-0.499c40.822-36.805 86.975-68.975 136.856-94.975l3.66-1.736c52.987-27.274 115.628-43.262 182.004-43.262 1.615 0 3.227 0.009 4.837 0.028l-0.245-0.002c2.428-0.053 5.289-0.082 8.157-0.082 65.883 0 128.076 15.796 182.999 43.807l-2.285-1.058c53.558 27.662 99.718 59.839 141.086 97.219l-0.571-0.508c32.843 29.507 61.862 62.138 86.958 97.732l1.219 1.823 37.547 56.889zM512 252.302c-0.509-0.005-1.112-0.008-1.714-0.008-107.138 0-193.991 86.853-193.991 193.991 0 0.603 0.003 1.205 0.008 1.806l-0.001-0.092c-0.001 0.169-0.001 0.369-0.001 0.57 0 107.767 87.362 195.129 195.129 195.129 0.2 0 0.401 0 0.601-0.001h-0.031c107.951-0.322 195.375-87.747 195.698-195.667v-0.031c0.001-0.169 0.001-0.369 0.001-0.57 0-107.767-87.362-195.129-195.129-195.129-0.2 0-0.401 0-0.601 0.001h0.031zM451.129 508.302c-15.12-15.131-24.471-36.029-24.471-59.11 0-0.419 0.003-0.838 0.009-1.255l-0.001 0.063c-0.011-0.513-0.018-1.118-0.018-1.724 0-46.186 37.441-83.627 83.627-83.627 0.606 0 1.211 0.006 1.814 0.019l-0.090-0.002c0.17-0.001 0.37-0.002 0.571-0.002 46.814 0 84.764 37.95 84.764 84.764 0 0.201-0.001 0.401-0.002 0.602v-0.031c0.007 0.4 0.011 0.873 0.011 1.346 0 23.138-9.593 44.036-25.018 58.933l-0.024 0.023c-15.591 15.318-36.984 24.774-60.587 24.774s-44.996-9.456-60.599-24.787l0.013 0.012z" />
<glyph unicode="&#xe91e;" glyph-name="Favorite" d="M989.867 556.089l-347.022 22.187-130.276 324.836-130.844-324.836-347.591-22.187 266.24-227.556-83.627-335.644 295.822 183.182 295.253-183.182-84.764 336.782 266.809 226.418z" />
<glyph unicode="&#xe91f;" glyph-name="File" d="M723.058 932.124h-12.516v-233.813h233.244v12.516l-220.729 221.298zM653.653 641.422v290.133l-573.44-1.707v-967.111h863.573v678.684zM767.431 207.36v-56.889h-512v56.889zM255.431 321.138v56.889h512v-56.889zM767.431 548.693v-56.889h-512v56.889zM255.431 662.471v56.889h265.671v-56.889z" />
<glyph unicode="&#xe920;" glyph-name="Filecheck" d="M766.293 705.138v219.022h-733.867v-952.32h733.867v241.778c125.786 12.476 223.222 117.739 223.222 245.76s-97.436 233.284-222.195 245.677l-1.027 0.083zM191.147 552.676h244.053v-56.889h-244.053zM191.147 400.213h244.053v-56.889h-244.053zM498.916 190.293h-307.769v56.889h307.769zM498.916 648.818h-307.769v56.889h307.769zM742.969 277.333c-101.791 0.008-184.306 82.528-184.306 184.32 0 101.797 82.523 184.32 184.32 184.32s184.32-82.523 184.32-184.32c0-0.8-0.005-1.599-0.015-2.397l0.001 0.121c-1.284-100.814-83.309-182.044-184.306-182.044-0.005 0-0.010 0-0.015 0h0.001zM766.293 498.062l-32.427-40.96-14.222-18.773-17.636 15.36-35.84 31.289-36.978-43.236 98.418-85.333 6.258 7.964 32.427 41.529 94.436 121.742-44.942 34.702-49.493-64.284z" />
<glyph unicode="&#xe921;" glyph-name="Fingerprint" d="M248.036 528.213v90.453c-18.852 25.1-30.328 56.684-30.719 90.931l-0.001 0.092c5.138 82.861 73.597 148.118 157.298 148.118s152.16-65.257 157.275-147.669l0.022-0.449c0-0.047 0-0.103 0-0.16 0-25.513-6.314-49.551-17.464-70.637l0.397 0.823v-100.124c48.926 40.777 79.836 101.735 79.836 169.913 0 121.905-98.824 220.729-220.729 220.729s-220.729-98.824-220.729-220.729c0-74.793 37.2-140.897 94.106-180.821l0.707-0.47zM422.116 263.111c0-2.844 0-5.689 0-8.533l-113.778-51.769 23.324-51.769 113.778 51.2c17.041-20.14 42.292-32.875 70.521-32.995h0.021c0.515-0.010 1.123-0.016 1.731-0.016 20.691 0 39.837 6.615 55.439 17.844l-0.282-0.193c17.379-23.566 45.035-38.684 76.223-38.684 0.003 0 0.006 0 0.009 0h-0.001c0.006 0 0.012 0 0.019 0 31.014 0 58.494 15.133 75.458 38.418l0.185 0.267c15.32-11.037 34.466-17.651 55.157-17.651 0.609 0 1.216 0.006 1.822 0.017l-0.091-0.001c13.354 0.094 26.049 2.803 37.636 7.639l-0.658-0.243v-211.627h56.889v362.951c0 51.841-42.026 93.867-93.867 93.867v0c-16.533-0.109-32.011-4.527-45.396-12.186l0.454 0.239c-14.365 33.642-47.134 56.808-85.323 56.889h-0.010c-0.621 0.015-1.353 0.023-2.086 0.023-20.575 0-39.605-6.62-55.074-17.846l0.272 0.188c-17.047 23.777-44.549 39.12-75.641 39.253h-0.021c-0.285 0.003-0.621 0.005-0.958 0.005-12.629 0-24.622-2.725-35.422-7.62l0.54 0.219v205.369c0 54.826-44.445 99.271-99.271 99.271s-99.271-44.445-99.271-99.271v0-329.387l-76.231-29.013-46.080-208.782 93.298-153.031 48.924 30.151-83.058 133.12 34.702 156.444 166.116 63.147zM422.116 561.778v-151.893l-80.782-31.289v307.769c0 22.622 18.338 40.96 40.96 40.96s40.96-18.338 40.96-40.96v0zM552.96 264.818c0-20.422-16.556-36.978-36.978-36.978v0c-1.88-0.282-4.050-0.443-6.258-0.443s-4.377 0.161-6.499 0.472l0.241-0.029c-14.256 5.408-24.248 18.861-24.462 34.676v128.595c0 0.001 0 0.003 0 0.004 0 19.908 15.978 36.084 35.81 36.404h0.030c20.422 0 36.978-16.556 36.978-36.978v0zM683.236 243.2c-2.356-18.357-17.885-32.4-36.693-32.4s-34.337 14.043-36.674 32.215l-0.019 0.185v130.844c2.356 18.357 17.885 32.4 36.693 32.4s34.337-14.043 36.674-32.215l0.019-0.185zM814.080 264.818v0c0-20.422-16.556-36.978-36.978-36.978s-36.978 16.556-36.978 36.978v0 63.147c0 20.422 16.556 36.978 36.978 36.978s36.978-16.556 36.978-36.978v0z" />
<glyph unicode="&#xe922;" glyph-name="Folder" d="M878.933 64h-843.662v768h348.729l42.098-113.778h455.111z" />
<glyph unicode="&#xe923;" glyph-name="Group" d="M86.471 337.636c-25.162-20.515-41.319-51.246-42.095-85.773l-0.002-0.129v-244.622h129.138v244.622c0.048 25.668 5.272 50.103 14.682 72.335l-0.46-1.224c6.97 15.856 15.352 29.528 25.306 41.881l-0.275-0.352c12.705 16.037 27.12 29.91 43.182 41.664l0.622 0.434c-64.834-8.227-122.736-32.821-170.974-69.474l0.877 0.639zM414.151 476.444h13.084c-10.405 10.164-19.926 21.128-28.499 32.829l-0.514 0.736c-8.001 10.499-15.9 22.391-23.031 34.782l-0.863 1.626c-21.807 38.059-34.667 83.661-34.667 132.267s12.86 94.208 35.363 133.589l-0.696-1.322c8.314 13.702 16.196 25.209 24.627 36.275l-0.734-1.004c9.054 11.728 18.562 22.137 28.856 31.713l0.158 0.145h-14.222c-3.205 0.181-6.956 0.284-10.73 0.284-111.851 0-202.524-90.673-202.524-202.524s90.673-202.524 202.524-202.524c3.774 0 7.525 0.103 11.248 0.307l-0.518-0.023zM612.124 476.444c113.736 0 205.938 92.201 205.938 205.938s-92.201 205.938-205.938 205.938c-113.736 0-205.938-92.201-205.938-205.938v0c0-113.736 92.201-205.938 205.938-205.938v0zM856.178 391.111c-68.175 23.156-146.704 36.522-228.354 36.522-4.52 0-9.030-0.041-13.531-0.123l0.676 0.010h-5.12c-3.832 0.072-8.35 0.113-12.879 0.113-81.839 0-160.556-13.365-234.088-38.031l5.189 1.51c-105.244-38.116-127.431-95.004-127.431-135.964v-248.036h742.969v248.036c0 40.96-22.187 97.849-127.431 135.964z" />
<glyph unicode="&#xe924;" glyph-name="Heart" d="M729.316 811.52c-90.725-2.519-169.92-49.663-216.696-120.18l-0.62-0.993c-48.633 70.172-127.107 116.703-216.658 121.147l-0.657 0.026c0 0 0 0-0.001 0-148.726 0-269.329-120.404-269.653-269.054v-0.031c0-262.258 455.111-512 471.609-522.24l15.36-7.964 15.36 7.964c19.342 10.809 471.609 259.982 471.609 522.24-0.324 148.681-120.927 269.084-269.653 269.084 0 0-0.001 0-0.001 0v0z" />
<glyph unicode="&#xe925;" glyph-name="Help" d="M512-38.969c-268.945 0-486.969 218.023-486.969 486.969s218.023 486.969 486.969 486.969c268.945 0 486.969-218.023 486.969-486.969v0c-0.323-268.815-218.154-486.645-486.938-486.969h-0.031zM512 871.253c-233.756 0-423.253-189.497-423.253-423.253s189.497-423.253 423.253-423.253c233.756 0 423.253 189.497 423.253 423.253v0c-0.324 233.626-189.628 422.93-423.223 423.253h-0.031zM457.956 287.573h108.089v-108.089h-108.089v108.089zM644.551 672.711c-33.411 27.4-76.588 44.007-123.643 44.007-3.133 0-6.249-0.074-9.346-0.219l0.438 0.016c-3.367 0.214-7.302 0.336-11.265 0.336-44.756 0-85.875-15.567-118.24-41.582l0.367 0.286c-30.659-25.979-50.765-63.595-53.453-105.943l-0.022-0.44v-7.396l98.987-12.516v6.827c3.985 22.629 14.996 42.191 30.662 56.835l0.058 0.054c14.496 11.736 33.16 18.841 53.484 18.841 1.197 0 2.389-0.025 3.574-0.073l-0.17 0.006c0.698 0.023 1.519 0.035 2.343 0.035 19.375 0 37.087-7.122 50.66-18.891l-0.096 0.082c11.847-9.672 19.35-24.276 19.35-40.633 0-0.315-0.003-0.629-0.008-0.943l0.001 0.047c0-0.065 0-0.141 0-0.217 0-11.786-4.073-22.62-10.887-31.173l0.078 0.101c-14.473-15.454-30.094-29.451-46.859-42.002l-0.927-0.664c-23.003-16.666-42.015-37.311-56.37-61.083l-0.519-0.926c-9.391-19.462-14.879-42.32-14.879-66.461 0-1.835 0.032-3.664 0.095-5.484l-0.007 0.264s0-9.671 0-22.187v-7.396h100.693v6.827c-0.345 3.487-0.542 7.537-0.542 11.634 0 13.943 2.28 27.354 6.488 39.88l-0.257-0.883c9.715 14.656 21.415 27.080 34.895 37.274l0.376 0.273c29.201 21.727 54.328 46.673 75.556 74.732l0.675 0.931c11.759 17.618 18.767 39.279 18.773 62.576v0.002c-0.047 42.345-19.444 80.149-49.823 105.054l-0.24 0.191z" />
<glyph unicode="&#xe926;" glyph-name="Help_solid" d="M512 931.556c-267.060 0-483.556-216.495-483.556-483.556s216.495-483.556 483.556-483.556c267.060 0 483.556 216.495 483.556 483.556v0c-0.324 266.93-216.625 483.232-483.524 483.556h-0.031zM562.631 182.898h-101.262v101.262h101.262zM672.996 508.302c-22.001-28.971-46.908-54.059-74.738-75.545l-0.924-0.686c-14.194-10.5-26.106-23.136-35.501-37.561l-0.339-0.555c-4.268-12.305-6.733-26.488-6.733-41.246 0-3.904 0.173-7.769 0.51-11.585l-0.035 0.494v-3.413h-92.16v3.413c0 11.947 0 19.911 0 22.187-0.046 1.42-0.073 3.089-0.073 4.765 0 23.655 5.269 46.079 14.697 66.162l-0.402-0.954c15.038 24.2 34.019 44.451 56.265 60.444l0.624 0.427c17.765 13.694 33.551 27.857 48.225 43.099l0.131 0.136c7.095 8.99 11.381 20.485 11.381 32.98 0 0.205-0.001 0.411-0.003 0.616v-0.031c0.002 0.196 0.004 0.427 0.004 0.658 0 17.529-7.928 33.207-20.395 43.643l-0.089 0.073c-14.012 11.765-32.245 18.912-52.147 18.912-1.668 0-3.325-0.050-4.968-0.149l0.226 0.011c-0.557 0.013-1.213 0.020-1.87 0.020-20.995 0-40.23-7.532-55.152-20.040l0.134 0.109c-16.088-14.621-27.467-34.166-31.753-56.244l-0.104-0.645v-3.413l-95.004 7.396c2.338 41.834 21.859 78.691 51.56 103.933l0.209 0.174c32.817 29.324 76.364 47.248 124.097 47.248 1.172 0 2.342-0.011 3.509-0.032l-0.175 0.003c2.659 0.131 5.775 0.206 8.908 0.206 46.413 0 88.996-16.395 122.274-43.71l-0.338 0.269c29.386-23.999 48.075-60.136 48.355-100.646v-0.047c-0.178-22.644-6.944-43.673-18.471-61.307l0.267 0.435z" />
<glyph unicode="&#xe927;" glyph-name="Home" d="M512 841.671l-463.076-371.484h110.933v-494.364h292.978v320.284h118.329v-320.284h293.547v494.364h110.364l-463.076 371.484z" />
<glyph unicode="&#xe928;" glyph-name="Information" d="M512-38.969c-268.945 0-486.969 218.023-486.969 486.969s218.023 486.969 486.969 486.969c268.945 0 486.969-218.023 486.969-486.969v0c-0.323-268.815-218.154-486.645-486.938-486.969h-0.031zM512 871.253c-233.756 0-423.253-189.497-423.253-423.253s189.497-423.253 423.253-423.253c233.756 0 423.253 189.497 423.253 423.253v0c-0.324 233.626-189.628 422.93-423.223 423.253h-0.031zM457.956 556.658h108.089v-368.071h-108.089v368.071zM457.956 707.982h108.089v-100.693h-108.089v100.693z" />
<glyph unicode="&#xe929;" glyph-name="Information_solid" d="M512 931.556c-267.060 0-483.556-216.495-483.556-483.556s216.495-483.556 483.556-483.556c267.060 0 483.556 216.495 483.556 483.556v0c-0.324 266.93-216.625 483.232-483.524 483.556h-0.031zM558.649 549.262v-353.849h-93.298v353.849zM562.631 610.702h-101.262v93.298h101.262z" />
<glyph unicode="&#xe92a;" glyph-name="Insecure" d="M650.24 255.716c19.794 0 35.84 16.046 35.84 35.84v0c0 0.001 0 0.003 0 0.004 0 19.908-15.978 36.084-35.81 36.404h-0.030c-20.108 0-36.409-16.301-36.409-36.409v0c0.32-19.862 16.496-35.84 36.404-35.84 0.002 0 0.003 0 0.005 0v0zM568.889 527.076v109.227c-1.783 79.559-35.197 150.981-88.111 202.46l-0.067 0.064c-49.857 48.569-118.053 78.523-193.245 78.523-1.063 0-2.124-0.006-3.183-0.018l0.162 0.001c-0.006 0-0.013 0-0.020 0-155.894 0-282.497-125.412-284.422-280.85l-0.002-0.181v-173.511h220.729v155.876c0 35.818 29.036 64.853 64.853 64.853s64.853-29.036 64.853-64.853v0-91.591h-72.818v-548.409h746.382v548.409zM284.444 747.804c-0.003 0-0.007 0-0.011 0-70.378 0-127.431-57.053-127.431-127.431 0-0.6 0.004-1.199 0.012-1.797l-0.001 0.091v-91.591h-91.022v109.227c0.946 120.242 98.641 217.352 219.016 217.352 1.402 0 2.802-0.013 4.198-0.039l-0.21 0.003c57.445-0.396 109.404-23.557 147.371-60.9l-0.029 0.028c41.418-39.572 67.554-94.836 68.832-156.21l0.004-0.235v-109.227h-90.453v91.591c0.001 0.172 0.001 0.376 0.001 0.58 0 71.007-57.562 128.569-128.569 128.569-0.6 0-1.2-0.004-1.799-0.012l0.091 0.001zM678.684 203.378v-68.836h-56.889v68.836c-37.613 12.392-64.284 47.211-64.284 88.258 0 51.213 41.516 92.729 92.729 92.729s92.729-41.516 92.729-92.729c0-41.048-26.671-75.866-63.629-88.071l-0.655-0.187z" />
<glyph unicode="&#xe92b;" glyph-name="Instructions" d="M733.867 578.276h-18.773v-47.787h56.32v47.787h-37.547zM733.867 506.596h-18.773v-175.218h56.32v175.218h-37.547zM766.293 705.138v219.022h-733.867v-952.32h733.867v241.778c125.786 12.476 223.222 117.739 223.222 245.76s-97.436 233.284-222.195 245.677l-1.027 0.083zM320.284 552.676h113.778v-56.889h-113.778zM320.284 400.213h113.778v-56.889h-113.778zM227.556 178.347c-20.453 2.493-36.141 19.752-36.141 40.676s15.688 38.183 35.944 40.656l0.197 0.020c20.453-2.493 36.141-19.752 36.141-40.676s-15.688-38.183-35.944-40.656l-0.197-0.020zM227.556 331.378c-22.307 0-40.391 18.084-40.391 40.391s18.084 40.391 40.391 40.391v0c22.307 0 40.391-18.084 40.391-40.391s-18.084-40.391-40.391-40.391v0zM227.556 483.84c-20.453 2.493-36.141 19.752-36.141 40.676s15.688 38.183 35.944 40.656l0.197 0.020c20.453-2.493 36.141-19.752 36.141-40.676s-15.688-38.183-35.944-40.656l-0.197-0.020zM227.556 636.871c-22.307 0-40.391 18.084-40.391 40.391s18.084 40.391 40.391 40.391v0c22.307 0 40.391-18.084 40.391-40.391s-18.084-40.391-40.391-40.391v0zM498.347 190.293h-178.062v56.889h178.631zM498.347 648.818h-178.062v56.889h178.631zM742.969 277.333c-101.791 0.008-184.306 82.528-184.306 184.32 0 101.797 82.523 184.32 184.32 184.32s184.32-82.523 184.32-184.32c0-0.8-0.005-1.599-0.015-2.397l0.001 0.121c-1.284-100.814-83.309-182.044-184.306-182.044-0.005 0-0.010 0-0.015 0h0.001z" />
<glyph unicode="&#xe92c;" glyph-name="Ledger" d="M136.533 924.16v-147.342h-56.889v-63.716h56.889v-233.244h-56.889v-63.716h56.889v-233.244h-56.889v-63.716h56.889v-147.342h808.391v952.32zM290.702 36.124h-90.453v83.058h56.889v63.716h-56.889v233.244h56.889v63.716h-56.889v233.244h56.889v63.716h-56.889v83.058h90.453zM802.702 180.622h-367.502v56.889h365.227zM802.702 339.911h-367.502v56.889h365.227zM802.702 499.2h-367.502v56.889h365.227zM802.702 658.489h-367.502v56.889h365.227z" />
<glyph unicode="&#xe92d;" glyph-name="Link_web" d="M378.311 846.222c-85.14-29.222-155.948-81.85-206.836-150.188l-0.809-1.136c45.473-14.087 100.132-26.034 156.196-33.545l5.368-0.588c9.938 69.66 26.036 132.197 48.145 191.815l-2.065-6.358zM323.129 604.444c-70.037 9.112-132.756 23.255-193.189 42.519l7.732-2.128c-27.177-50.994-44.473-111.023-47.745-174.758l-0.042-1.029h224.142c1.138 46.649 3.982 92.729 9.102 135.396zM653.084 469.049c0 43.804-3.413 87.609-7.964 129.138-42.667-3.982-86.471-6.258-131.413-6.258s-90.453 0-134.258 6.258c-4.551-41.529-7.396-84.764-8.533-129.138zM638.293 654.507c-10.67 78.422-30.602 149.398-58.949 215.928l2.060-5.439c-20.856 3.959-44.857 6.235-69.385 6.258h-0.019c-23.027-0.165-45.452-2.227-67.275-6.039l2.421 0.35c-27.774-61.277-48.695-132.399-59.245-206.857l-0.488-4.201c40.96-3.413 83.058-5.689 126.293-5.689s83.627 2.276 124.587 5.689zM853.333 694.329c-50.454 69.337-119.907 122.087-200.707 150.971l-2.955 0.922c19.596-53.44 35.494-116.376 44.896-181.413l0.615-5.182c59.957 8.090 113.415 20.228 165.001 36.575l-6.85-1.873zM314.027 412.16h-223.573c6.521-65.003 26.83-124.115 57.955-175.997l-1.066 1.917c49.702 16.479 108.902 30.205 169.795 38.638l5.423 0.615c-4.551 42.667-7.396 88.178-8.533 134.827zM700.302 277.333c67.576-8.47 128.223-21.831 186.684-40.135l-7.484 2.020c28.412 49.177 47.681 107.093 53.897 168.859l0.147 1.808h-223.573c-1.138-44.373-4.551-89.316-9.671-132.551zM885.76 643.698c-52.562-17.12-114.765-30.894-178.796-38.757l-4.955-0.496c4.551-43.804 7.396-89.316 7.964-135.396h224.142c-2.523 54.662-15.256 105.733-36.327 152.221l1.056-2.603c-4.31 9.813-8.683 18.029-13.58 25.885l0.496-0.853zM178.631 188.587c49.171-62.787 114.566-110.763 189.914-137.885l2.939-0.924c-17.235 48.42-31.71 105.942-40.84 165.227l-0.689 5.44c-57.33-7.354-108.541-18.513-158.030-33.618l6.706 1.76zM386.844 226.133c10.934-72.911 29.2-138.42 54.425-200.354l-2.087 5.794c21.766-4.115 46.921-6.589 72.61-6.825l0.207-0.001c24.591 0.371 48.37 2.632 71.548 6.647l-2.713-0.389c25.157 56.528 44.968 122.303 56.245 190.951l0.644 4.747c-40.391 3.413-80.782 5.689-122.311 5.689s-87.040-2.844-128.569-6.258zM649.671 49.778c79.713 28.368 146.292 77.16 195.56 140.146l0.707 0.938c-43.426 12.693-95.348 23.092-148.582 29.169l-4.449 0.413c-10.833-65.194-25.858-122.618-45.465-177.872l2.229 7.205zM370.916 412.16q0-66.56 8.533-129.707c43.804 3.982 88.178 6.827 134.258 6.827s87.609-2.844 130.276-6.258c4.551 41.529 7.964 84.764 9.102 129.138z" />
<glyph unicode="&#xe92e;" glyph-name="Loan" d="M779.947 814.933v40.96h64.853v64.284h-192.853v-64.284h64.284v-40.96c-43.191-5.808-81.811-21.79-114.513-45.448l0.735 0.506-90.453 71.68-463.076-371.484h113.778v-494.364h292.409v320.284h113.778v-320.284h295.822v369.209c80.945 42.415 135.224 125.838 135.224 221.939 0 127.443-95.458 232.59-218.774 247.841l-1.214 0.122zM910.222 470.187c-11.618-19.376-26.017-35.768-42.871-49.212l-0.365-0.281c-31.442-24.951-71.701-40.029-115.482-40.029-103.054 0-186.596 83.542-186.596 186.596s83.542 186.596 186.596 186.596c103.054 0 186.596-83.542 186.596-186.596 0-0.327-0.001-0.655-0.003-0.982v0.050c-0.326-20.446-3.841-39.962-10.066-58.223l0.395 1.334c-4.89-14.983-11.060-27.971-18.635-39.984l0.43 0.731zM719.644 695.467v-113.209l-36.978-27.307-50.062-37.547 38.684-51.2 112.071 84.196v145.067h-63.716z" />
<glyph unicode="&#xe92f;" glyph-name="Locations" d="M512 912.782c0 0 0 0 0 0-181.401 0-328.494-146.893-328.817-328.218v-0.031c0-170.667 272.498-528.498 303.218-568.889l25.6-32.996 25.6 32.996c30.72 39.822 303.218 398.222 303.218 568.889-0.324 181.356-147.416 328.249-328.817 328.249 0 0 0 0-0.001 0v0zM370.347 567.467c0 78.233 63.42 141.653 141.653 141.653s141.653-63.42 141.653-141.653c0-78.233-63.42-141.653-141.653-141.653v0c-78.233 0-141.653 63.42-141.653 141.653v0z" />
<glyph unicode="&#xe930;" glyph-name="Max" d="M512 934.969c-268.945 0-486.969-218.023-486.969-486.969s218.023-486.969 486.969-486.969c268.945 0 486.969 218.023 486.969 486.969v0c-0.323 268.815-218.154 486.645-486.938 486.969h-0.031zM554.667 407.609v-176.924h-85.902v176.356h-175.787v85.333h176.356v176.924h85.333v-176.356h176.356v-85.333z" />
<glyph unicode="&#xe931;" glyph-name="Menu" d="M60.302 830.862h903.964v-85.333h-903.964v85.333zM60.302 490.667h903.964v-85.333h-903.964v85.333zM60.302 150.471h903.964v-85.333h-903.964v85.333z" />
<glyph unicode="&#xe932;" glyph-name="Menu_drop" d="M512 934.969c-268.945 0-486.969-218.023-486.969-486.969s218.023-486.969 486.969-486.969c268.945 0 486.969 218.023 486.969 486.969v0c-0.323 268.815-218.154 486.645-486.938 486.969h-0.031zM512 265.956l-254.862 254.862 60.302 60.302 194.56-194.56 194.56 194.56 60.302-60.302z" />
<glyph unicode="&#xe933;" glyph-name="Menu_list" d="M319.716 820.622h664.462v-85.333h-664.462v85.333zM319.716 480.427h664.462v-85.333h-664.462v85.333zM319.716 140.231h664.462v-85.333h-664.462v85.333zM234.382 777.956c0-36.446-29.545-65.991-65.991-65.991s-65.991 29.545-65.991 65.991c0 36.446 29.545 65.991 65.991 65.991s65.991-29.545 65.991-65.991zM234.382 437.76c0-36.446-29.545-65.991-65.991-65.991s-65.991 29.545-65.991 65.991c0 36.446 29.545 65.991 65.991 65.991s65.991-29.545 65.991-65.991zM234.382 97.564c0-36.446-29.545-65.991-65.991-65.991s-65.991 29.545-65.991 65.991c0 36.446 29.545 65.991 65.991 65.991s65.991-29.545 65.991-65.991z" />
<glyph unicode="&#xe934;" glyph-name="Min" d="M512 934.969c-268.945 0-486.969-218.023-486.969-486.969s218.023-486.969 486.969-486.969c268.945 0 486.969 218.023 486.969 486.969v0c-0.323 268.815-218.154 486.645-486.938 486.969h-0.031zM292.978 492.373h438.044v-85.333h-438.044z" />
<glyph unicode="&#xe935;" glyph-name="Notification" d="M943.787 116.907l-81.92 267.378-38.684 306.631c-18.773 146.773-163.271 212.196-298.667 212.196v0c-133.12 0-284.444-66.56-304.356-213.333l-38.684-303.218-96.711-269.653h297.529c4.68-69.068 61.853-123.322 131.698-123.322s127.018 54.253 131.676 122.916l0.022 0.406zM512 49.778c-38.72 0.44-70.372 30.118-73.933 67.967l-0.023 0.3h147.911c-3.321-38.272-35.129-68.102-73.939-68.267h-0.017z" />
<glyph unicode="&#xe936;" glyph-name="Notification_panel" d="M600.178 700.018c18.946-20.812 33.885-45.65 43.357-73.038l0.447-1.487h338.489v74.524zM676.409 412.16h306.062v74.524h-315.164l9.102-74.524zM733.867 194.844h248.604v74.524h-270.791l22.187-74.524zM616.676 349.013l-27.307 218.453c-14.222 108.089-121.742 159.289-221.867 159.858v0c-98.418 0-210.489-50.062-227.556-160.427l-26.169-214.471-72.249-203.662h217.884c7.644-49.332 49.811-86.651 100.693-86.651s93.049 37.319 100.62 86.080l0.073 0.571h217.316zM360.107 117.476c-19.821 0.255-36.567 13.142-42.573 30.968l-0.094 0.321h85.333c-6.1-18.147-22.845-31.034-42.637-31.289h-0.030z" />
<glyph unicode="&#xe937;" glyph-name="Offers" d="M422.684 471.893c-0.267-1.434-0.42-3.084-0.42-4.769 0-7.449 2.983-14.202 7.819-19.128l-0.004 0.004c4.622-4.572 10.981-7.396 18-7.396 0.072 0 0.144 0 0.216 0.001h-0.011c12.313 3.206 23.117 8.086 32.839 14.477l-0.413-0.255-43.804 43.804c-6.717-7.299-11.675-16.32-14.136-26.324l-0.086-0.414zM603.022 444.587c-0.34 0.008-0.74 0.012-1.141 0.012-8.715 0-16.938-2.107-24.187-5.84l0.297 0.139-9.102-6.258 50.631-51.2c2.278 2.821 4.357 5.99 6.108 9.356l0.149 0.315c1.365 4.078 2.153 8.774 2.153 13.653s-0.788 9.575-2.243 13.967l0.090-0.313c-0.901 6.924-3.99 13.001-8.538 17.641l0.005-0.005c-3.723 4.063-8.557 7.052-14.020 8.488l-0.202 0.045zM438.613 908.8h-387.413v-387.413l534.187-534.187 387.413 387.413zM682.667 313.173l-31.289-31.858-25.6 27.307c-11.671-10.199-25.22-18.635-40-24.683l-0.96-0.348c-11.984-5.214-25.943-8.248-40.612-8.248-7.169 0-14.168 0.725-20.929 2.105l0.67-0.114c-15.416 3.814-28.927 10.295-40.702 18.993l0.311-0.219-3.982 2.844 36.978 47.218h3.982c4.89-3.274 10.589-5.822 16.7-7.32l0.367-0.076c2.337-0.34 5.035-0.534 7.778-0.534 8.522 0 16.606 1.874 23.863 5.232l-0.352-0.146c6.084 2.384 11.335 5.253 16.156 8.687l-0.227-0.153-56.889 56.889c-14.371-9.256-30.889-17.504-48.302-23.897l-1.76-0.565c-8.893-3.331-19.17-5.259-29.897-5.259-6.334 0-12.512 0.672-18.465 1.949l0.575-0.103c-15.413 3.723-28.706 11.289-39.268 21.632l0.014-0.014c-12.363 11.976-21.221 27.502-24.928 44.934l-0.103 0.577c-1.18 5.446-1.856 11.702-1.856 18.115 0 13.001 2.778 25.353 7.772 36.495l-0.227-0.566c7.159 14.262 16.095 26.468 26.723 36.964l0.014 0.014-26.738 26.738 31.858 31.858 27.876-27.876c7.016 5.823 14.827 11.277 23.075 16.060l0.818 0.438c11.129 4.806 24.086 7.601 37.697 7.601 6.792 0 13.422-0.696 19.822-2.021l-0.63 0.109c13.673-3.31 25.669-9.011 36.118-16.693l-0.278 0.195h4.551l-40.391-49.493v1.707c-6.404 3.958-14.168 6.303-22.479 6.303-0.697 0-1.391-0.017-2.080-0.049l0.097 0.004c-5.983-0.85-11.362-2.856-16.107-5.791l0.178 0.103 50.062-50.062c11.524 7.505 24.802 14.557 38.705 20.418l1.687 0.631c11.355 5.064 24.606 8.013 38.545 8.013 6.489 0 12.828-0.639 18.959-1.858l-0.616 0.102c17.484-3.667 32.598-12.111 44.373-23.893v0c12.307-12.617 21.14-28.676 24.922-46.598l0.109-0.62c1.351-6.060 2.125-13.021 2.125-20.162 0-13.245-2.663-25.869-7.482-37.364l0.237 0.638c-5.228-14.502-12.765-26.983-22.285-37.659l0.099 0.112zM297.529 729.6c0.002-0.169 0.002-0.369 0.002-0.569 0-37.074-30.055-67.129-67.129-67.129s-67.129 30.055-67.129 67.129c0 37.073 30.053 67.127 67.126 67.129v0c0.001 0 0.002 0 0.002 0 36.874 0 66.804-29.731 67.126-66.529v-0.031z" />
<glyph unicode="&#xe938;" glyph-name="Person" d="M512 476.444c113.736 0 205.938 92.201 205.938 205.938s-92.201 205.938-205.938 205.938c-113.736 0-205.938-92.201-205.938-205.938v0c0.323-113.606 92.331-205.615 205.907-205.938h0.031zM756.053 391.111c-68.326 23.185-147.027 36.566-228.854 36.566-5.344 0-10.675-0.057-15.992-0.171l0.792 0.013c-4.524 0.1-9.855 0.157-15.2 0.157-81.826 0-160.527-13.382-234.033-38.076l5.18 1.509c-105.244-38.684-127.431-95.573-127.431-136.533v-247.467h742.969v248.036c0 40.96-22.187 97.849-127.431 135.964z" />
<glyph unicode="&#xe939;" glyph-name="Phone" d="M807.822-30.436h-591.644v956.871h591.644zM279.893 33.849h464.213v828.302h-464.213zM402.773 810.951h217.884v-56.889h-217.884v56.889zM512 56.036c-0.169-0.001-0.369-0.002-0.569-0.002-43.672 0-79.076 35.403-79.076 79.076s35.403 79.076 79.076 79.076c43.671 0 79.074-35.402 79.076-79.073v0c0.001-0.169 0.002-0.369 0.002-0.569 0-43.358-35.149-78.507-78.507-78.507-0.001 0-0.001 0-0.002 0v0zM512 156.729c-11.939 0-21.618-9.679-21.618-21.618v0c0-11.939 9.679-21.618 21.618-21.618s21.618 9.679 21.618 21.618v0c0 11.939-9.679 21.618-21.618 21.618v0z" />
<glyph unicode="&#xe93a;" glyph-name="Pin" d="M951.182 504.889l-382.293 381.724-44.942-186.596-121.173-120.604c-19.936 6.819-42.904 10.755-66.791 10.755-56.561 0-107.967-22.070-146.076-58.069l0.102 0.096-22.756-22.756 182.044-181.476-261.12-265.102 40.391-39.822 261.12 264.533 184.32-184.889 22.756 22.756c35.903 38.007 57.973 89.413 57.973 145.974 0 23.887-3.936 46.855-11.196 68.29l0.441-1.499 120.604 120.604z" />
<glyph unicode="&#xe93b;" glyph-name="Popout" d="M562.631 811.52v-71.111h190.009l-344.747-344.747 50.631-50.062 345.884 345.884v-193.422h71.111v313.458h-312.889zM818.631 397.938h-71.111v-242.347h-527.929v527.929h241.778v71.111h-312.889v-670.151h670.151z" />
<glyph unicode="&#xe93c;" glyph-name="Posak" d="M512 934.969c-268.945 0-486.969-218.023-486.969-486.969s218.023-486.969 486.969-486.969c268.945 0 486.969 218.023 486.969 486.969v0c-0.323 268.815-218.154 486.645-486.938 486.969h-0.031zM745.813 598.756l-268.516-344.747-199.111 170.667 59.733 71.111 126.862-110.364 208.782 269.084z" />
<glyph unicode="&#xe93d;" glyph-name="Print" d="M814.080 714.24v206.507h-604.16v-206.507h-164.409v-483.556h164.409v202.524h604.16v-202.524h164.409v483.556zM274.204 856.462h475.591v-142.222h-475.591zM274.204 263.111v-238.364h475.591v344.747h-475.591zM348.729 263.111v28.444h326.542v-56.889h-326.542zM348.729 176.64h201.956v-56.889h-201.956z" />
<glyph unicode="&#xe93e;" glyph-name="Recurring" d="M439.751 409.316l-50.062-50.062 139.378-138.809h-44.942c0 0 0 0 0 0-194.597 0-352.387 157.59-352.711 352.111v6.858h-71.111v-7.396c0.647-233.696 190.081-422.931 423.791-423.253h44.973l-139.378-139.378 50.062-50.631 227.556 227.556zM584.249 486.684l50.062 50.062-139.378 138.809h44.942c0 0 0 0 0 0 194.597 0 352.387-157.59 352.711-352.111v-7.427h71.111v7.396c-0.324 233.941-189.882 423.499-423.792 423.822h-44.973l139.378 139.378-50.062 50.631-227.556-227.556z" />
<glyph unicode="&#xe93f;" glyph-name="Refresh" d="M614.4 837.689c-213.992-1.612-386.844-175.459-386.844-389.679 0-0.004 0-0.007 0-0.011v0-113.778l-152.462 149.049-56.889-56.889 244.053-244.053 245.76 245.76-56.889 56.889-147.911-150.756v113.778c0 172.175 139.576 311.751 311.751 311.751s311.751-139.576 311.751-311.751c0-172.175-139.576-311.751-311.751-311.751v0h-10.809v-77.938h10.809c215.219 0 389.689 174.47 389.689 389.689s-174.47 389.689-389.689 389.689v0z" />
<glyph unicode="&#xe940;" glyph-name="Reports" d="M381.724 923.591h260.551v-951.182h-260.551v951.182zM25.031 565.191h260.551v-592.782h-260.551v592.782zM738.418 354.133h260.551v-381.724h-260.551v381.724z" />
<glyph unicode="&#xe941;" glyph-name="Scan" d="M168.391 682.951h42.667v-469.902h-42.667v469.902zM471.609 682.951h42.667v-469.902h-42.667v469.902zM250.88 682.951h42.667v-469.902h-42.667v469.902zM365.227 682.951h42.667v-469.902h-42.667v469.902zM812.942 682.951h42.667v-469.902h-42.667v469.902zM548.409 682.951h42.667v-469.902h-42.667v469.902zM640 682.951h42.667v-469.902h-42.667v469.902zM716.231 682.951h42.667v-469.902h-42.667v469.902zM975.644 330.809h-71.111v-184.889h-184.889v-71.111h256v256zM119.467 145.92v184.889h-71.111v-256h256v71.111zM904.533 750.080v-184.889h71.111v256h-256v-71.111h184.889zM48.356 821.191v-256h71.111v184.889h184.889v71.111h-256z" />
<glyph unicode="&#xe942;" glyph-name="Search" d="M952.32 58.311l-250.311 250.311c50.692 60.935 81.459 140.009 81.459 226.27 0 196.054-158.933 354.987-354.987 354.987-98.866 0-188.291-40.416-252.657-105.627l-0.037-0.038c-65.249-64.403-105.665-153.829-105.665-252.694 0-196.054 158.933-354.987 354.987-354.987 86.26 0 165.335 30.767 226.848 81.926l-0.578-0.467 250.311-250.311zM427.236 263.111c-0.127 0-0.277 0-0.428 0-149.24 0-270.222 120.983-270.222 270.222s120.983 270.222 270.222 270.222c149.24 0 270.222-120.983 270.222-270.222 0-74.655-30.274-142.239-79.215-191.145l-0.002-0.002c-48.795-48.76-116.148-78.954-190.554-79.076h-0.023z" />
<glyph unicode="&#xe943;" glyph-name="Security" d="M548.409 291.556c0-20.108-16.301-36.409-36.409-36.409s-36.409 16.301-36.409 36.409c0 20.108 16.301 36.409 36.409 36.409s36.409-16.301 36.409-36.409zM783.36 527.076v121.742c-1.793 76.067-33.912 144.299-84.684 193.345l-0.080 0.077c-47.954 46.459-113.413 75.095-185.561 75.095-0.364 0-0.727-0.001-1.091-0.002h0.056c-0.507 0.003-1.107 0.005-1.707 0.005-148.727 0-269.332-120.407-269.653-269.059v-121.204h-100.693v-548.409h744.107v548.409zM572.302 527.076h-120.604v105.813c0 33.304 26.998 60.302 60.302 60.302s60.302-26.998 60.302-60.302v0zM418.702 291.556c0 51.527 41.771 93.298 93.298 93.298s93.298-41.771 93.298-93.298v0c-0.12-41.152-27.028-75.987-64.197-87.995l-0.656-0.183v-68.836h-56.889v68.836c-37.826 12.19-64.733 47.026-64.853 88.163v0.014zM304.924 648.249c0.63 113.572 92.843 205.397 206.504 205.397 1.201 0 2.4-0.010 3.596-0.031l-0.18 0.002c0.216 0.001 0.471 0.001 0.726 0.001 54.049 0 103.024-21.721 138.673-56.911l-0.021 0.021c38.958-37.522 63.55-89.723 64.849-147.672l0.004-0.239v-121.742h-83.058v105.813c0 68.493-55.525 124.018-124.018 124.018s-124.018-55.525-124.018-124.018v0-105.813h-83.058z" />
<glyph unicode="&#xe944;" glyph-name="Settings" d="M876.089 422.4c0 9.102 0 18.204 0 27.876s0 18.204 0 27.307v0l118.898 89.884-137.671 238.933-135.396-56.889-25.6 15.929c-8.534 5.29-18.617 10.613-29.064 15.269l-1.656 0.659-18.204 145.067h-273.067l-18.204-146.204c-9.102-4.551-18.773-9.102-27.876-14.791-9.838-5.432-18.205-10.893-26.144-16.891l0.544 0.394-136.533 56.889-137.102-236.089 118.329-92.729c0-7.396 0-14.791 0-23.324v-5.689c0-9.102 0-15.929 0-22.187v-6.258l-118.329-93.298 137.102-236.658 134.827 56.889 26.738-16.498c9.671-5.689 19.342-10.24 30.151-15.36l15.929-145.067h275.342l18.204 146.204c9.671 4.551 19.342 9.671 27.876 14.791s17.067 10.24 25.6 15.929l134.258-56.889 139.947 236.089-119.467 93.867zM691.769 448c-0.001-99.597-80.74-180.337-180.338-180.337s-180.338 80.74-180.338 180.338c0 99.598 80.74 180.338 180.338 180.338 0.2 0 0.4 0 0.6-0.001h-0.031c99.353-0.323 179.769-80.939 179.769-180.337 0 0 0 0 0-0.001v0z" />
<glyph unicode="&#xe945;" glyph-name="Suitcase" d="M672.996 789.333v106.951h-321.991v-106.951h-299.236v-442.027h360.676v64.853h199.111v-65.991h360.676v443.164zM415.289 832.569h193.422v-43.236h-193.422zM611.556 281.884v-65.422h-199.111v65.422h-303.787v-282.169h806.684v282.169h-303.787z" />
<glyph unicode="&#xe946;" glyph-name="Table" d="M51.769 846.222v-796.444h920.462v796.444zM321.991 417.849v-68.267h-151.324v68.267zM170.667 517.973v68.267h151.324v-68.267zM320.853 252.302v-68.267h-150.187v68.267zM589.369 417.849v-68.267h-152.462v68.267zM436.907 517.973v68.267h151.893v-68.267zM587.093 252.302v-68.267h-151.893v68.267zM853.333 417.849v-68.267h-149.618v68.267zM703.716 517.973v68.267h149.618v-68.267zM853.333 252.302v-68.267h-151.324v68.267zM113.778 723.911v56.889h796.444v-56.889z" />
<glyph unicode="&#xe947;" glyph-name="Target" d="M893.156 625.493l-84.764-84.764h-83.058c18.207-35.128 28.885-76.689 28.885-120.743 0-147.354-119.454-266.809-266.809-266.809s-266.809 119.454-266.809 266.809c0 147.354 119.454 266.809 266.809 266.809 43.602 0 84.762-10.459 121.106-29.005l-1.511 0.7v82.489l85.902 85.333c-59.958 31.103-130.9 49.343-206.102 49.343-251.351 0-455.111-203.76-455.111-455.111s203.76-455.111 455.111-455.111c251.351 0 455.111 203.76 455.111 455.111 0 74.749-18.020 145.288-49.954 207.512l1.194-2.561zM632.036 605.013v0zM609.28 582.258v0zM649.671 723.342v0 0zM790.187 582.827v0 0zM848.213 640.853v0 0zM824.889 617.529v0 0zM649.671 623.218v0zM853.333 795.022v133.689l-203.662-205.369v-100.124l-131.982-131.982c-9.233 4.017-19.988 6.354-31.289 6.354s-22.056-2.337-31.809-6.554l0.52 0.2c-9.015-4.119-16.73-9.468-23.338-15.942l0.014 0.013c-6.836-6.66-12.398-14.59-16.308-23.414l-0.19-0.479c-2.467-6.711-4.098-14.472-4.542-22.548l-0.009-0.208c-0.097-1.108-0.152-2.396-0.152-3.698s0.055-2.59 0.164-3.864l-0.011 0.166c0.32-41.972 34.259-75.911 76.201-76.231h7.426c9.926 1.076 18.978 3.9 27.16 8.165l-0.422-0.2c7.648 3.48 14.219 7.866 19.967 13.135l-0.056-0.050c5.606 5.767 10.204 12.552 13.483 20.045l0.17 0.435c5.1 9.824 8.091 21.448 8.091 33.771 0 1.528-0.046 3.046-0.137 4.551l0.010-0.207c-0.304 8.45-1.947 16.425-4.722 23.847l0.171-0.522 131.413 131.413h100.693l200.249 200.249zM766.293 639.716h-59.733v59.733l89.884 89.884v-48.924l65.422-5.689z" />
<glyph unicode="&#xe948;" glyph-name="Time" d="M543.858 784.213v87.040h135.396v63.716h-334.507v-63.716h135.396v-87.040c-213.66-17.051-380.587-194.638-380.587-411.212 0-227.787 184.658-412.444 412.444-412.444s412.444 184.658 412.444 412.444c0 216.575-166.927 394.161-379.138 411.119l-1.448 0.093zM560.356 351.858l-189.44-142.222-51.769 67.698 155.876 117.191v203.093h85.333z" />
<glyph unicode="&#xe949;" glyph-name="Transfer" d="M281.6 263.111l146.773 146.773-50.631 50.062-232.676-232.107 232.676-232.676 50.631 50.062-146.773 146.773h597.333v71.111h-597.333zM742.4 704l-146.773 146.773 50.631 50.062 232.676-232.107-232.676-232.676-50.631 50.062 146.773 146.773h-597.333v71.111h597.333z" />
<glyph unicode="&#xe94a;" glyph-name="Trash" d="M671.289 789.333v133.12h-318.578v-133.12h-212.764v-212.764h65.422v-603.022h613.831v603.022h64.853v212.764zM354.418 137.956v341.333h56.889v-341.333zM485.262 137.956v341.333h56.889v-341.333zM612.693 137.956v341.333h56.889v-341.333zM409.6 865.564h204.8v-76.231h-204.8z" />
<glyph unicode="&#xe94b;" glyph-name="Vertical_ellipsis" d="M512 636.871c40.53 0 73.387 32.856 73.387 73.387s-32.856 73.387-73.387 73.387c-40.53 0-73.387-32.856-73.387-73.387v0c0-40.53 32.856-73.387 73.387-73.387v0zM512 521.387c-40.53 0-73.387-32.856-73.387-73.387s32.856-73.387 73.387-73.387c40.53 0 73.387 32.856 73.387 73.387v0c0 40.53-32.856 73.387-73.387 73.387v0zM512 259.129c-40.53 0-73.387-32.856-73.387-73.387s32.856-73.387 73.387-73.387c40.53 0 73.387 32.856 73.387 73.387v0c0 40.53-32.856 73.387-73.387 73.387v0z" />
<glyph unicode="&#xe94c;" glyph-name="Video" d="M56.889 816.64v-739.556h910.222v739.556zM398.222 240.356v409.031l329.956-204.231z" />
<glyph unicode="&#xe94d;" glyph-name="Waiver" d="M745.244 810.382v-75.093h59.164v133.12h-559.218l58.027-58.027h442.027zM556.373 618.667v51.769h-113.209l51.769-51.769h61.44zM270.791 255.147h285.582v-51.769h-285.582v51.769zM573.44 540.16l46.080-46.080c21.356 71.6 86.611 122.908 163.848 122.908 93.666 0 169.709-75.456 170.658-168.898l0.001-0.090c-0.686-77.333-53.929-142.040-125.711-160.18l-1.151-0.247 46.080-46.649c82.23 34.68 139.172 114.065 140.514 206.907l0.002 0.169c-1.591 124.457-102.854 224.737-227.538 224.737-1.206 0-2.41-0.009-3.612-0.028l0.182 0.002c-0.226 0.001-0.493 0.001-0.761 0.001-91.715 0-170.914-53.589-207.993-131.164l-0.598-1.389zM758.898 382.578c-6.794 2.495-12.418 6.835-16.427 12.412l-0.071 0.103c-2.611 3.123-4.432 6.994-5.103 11.246l-0.017 0.132-28.444-3.413 87.609-88.178v25.6c10.454 0.869 20.111 3.298 29.070 7.060l-0.626-0.233c12.278 5.218 22.346 13.639 29.432 24.223l0.151 0.239c6.408 9.079 10.242 20.374 10.242 32.563 0 0.152-0.001 0.304-0.002 0.455v-0.023c0 0.038 0 0.082 0 0.127 0 11.835-3.614 22.826-9.799 31.929l0.127-0.199c-7.154 10.216-17.034 18.081-28.588 22.609l-0.425 0.147c-8.231 3.419-18.115 6.549-28.31 8.86l-1.272 0.242v46.649c4.145-0.953 7.775-2.732 10.868-5.164l-0.059 0.044c3.889-3.645 6.838-8.247 8.473-13.432l0.060-0.222 41.529 3.413v0.569c0.002 0.181 0.003 0.395 0.003 0.609 0 8.542-1.459 16.743-4.142 24.367l0.158-0.514c-7.171 10.571-17.284 18.666-29.16 23.184l-0.422 0.141c-6.262 2.587-13.551 4.579-21.14 5.634l-0.478 0.054v26.169h-30.151v-25.031c-11.031-0.78-21.291-3.010-30.943-6.509l0.792 0.251c-11.754-4.769-21.431-12.615-28.308-22.548l-0.136-0.208c-5.977-8.785-9.577-19.607-9.671-31.265v-0.024c-0.001-0.108-0.001-0.236-0.001-0.364 0-10.394 2.966-20.096 8.097-28.305l-0.131 0.225c6.255-8.936 14.487-16.075 24.091-20.881l0.371-0.168c10.169-4.519 22.147-8.437 34.577-11.147l1.263-0.231v-56.889c-4.973 1.113-9.356 3.084-13.205 5.768l0.12-0.079zM800.996 425.813h9.102c5.784-1.985 10.731-5.1 14.796-9.107l-0.005 0.004c2.327-3.338 3.719-7.48 3.719-11.947s-1.391-8.608-3.764-12.015l0.045 0.069c-3.58-4.286-8.179-7.604-13.43-9.597l-0.223-0.074h-9.671zM748.658 482.702c-3.153 2.825-5.128 6.91-5.128 11.456 0 0.173 0.003 0.345 0.009 0.516l-0.001-0.025c0 0.013 0 0.028 0 0.044 0 6.141 3.139 11.549 7.899 14.707l0.065 0.041c5.56 3.25 12.173 5.314 19.236 5.684l0.106 0.004v-40.96c-8.466 2.058-15.891 5.596-22.358 10.36l0.171-0.12zM70.542 921.316l-56.889-56.889 113.778-113.778v-744.676h682.667v60.871l92.729-92.16 60.302 56.889zM745.244 63.431h-562.631v625.778l158.72-157.013h-70.542v-51.769h120.604l86.471-89.316h-207.076v-51.2h227.556v34.133l248.036-247.467z" />
<glyph unicode="&#xe94e;" glyph-name="Doctor" d="M775.396 641.991c-76.686-1.594-138.242-64.136-138.242-141.056 0-67.031 46.747-123.144 109.418-137.517l0.948-0.183c-3.982-140.516-39.822-294.116-174.649-294.116s-208.782 120.036-212.764 306.631c111.231 14.988 196.325 108.527 197.971 222.266l0.002 0.169v292.409h-106.382v-63.716h42.098v-227.556c0.001-0.169 0.001-0.369 0.001-0.569 0-89.23-72.335-161.565-161.565-161.565-89.030 0-161.241 72.011-161.564 160.966v227.587h42.098v64.853h-104.676v-292.409c1.377-110.461 81.25-201.868 186.339-221.086l1.394-0.212c4.551-273.636 151.324-371.484 277.049-371.484 86.471 0 227.556 48.356 238.364 360.107 60.915 16.278 105.045 70.968 105.045 135.965 0 77.605-62.911 140.516-140.516 140.516-0.13 0-0.26 0-0.389-0.001h0.020zM775.396 424.676c-41.923 0.641-75.662 34.776-75.662 76.792 0 42.415 34.385 76.8 76.8 76.8 42.413 0 76.795-34.38 76.8-76.791v0c0-0.002 0-0.005 0-0.008 0-42.415-34.385-76.8-76.8-76.8-0.4 0-0.799 0.003-1.198 0.009l0.060-0.001z" />
<glyph unicode="&#xe94f;" glyph-name="Medical" d="M729.316 811.52c-90.725-2.519-169.92-49.663-216.696-120.18l-0.62-0.993c-48.633 70.172-127.107 116.703-216.658 121.147l-0.657 0.026c0 0 0 0-0.001 0-148.726 0-269.329-120.404-269.653-269.054v-0.031c0-262.258 455.111-512 471.609-522.24l15.36-7.964 15.36 7.964c19.342 10.809 471.609 259.982 471.609 522.24-0.324 148.681-120.927 269.084-269.653 269.084 0 0-0.001 0-0.001 0v0zM404.48 391.111h-170.667v56.889h137.102l69.404 121.742 121.173-208.213 59.733 102.969h170.667v-56.889h-138.24l-91.591-159.289-120.604 207.076z" />
<glyph unicode="&#xe950;" glyph-name="Data" d="M477.298 700.018l-106.382-105.813v150.187c-0.13 0-0.283 0.001-0.436 0.001-83.26 0-150.756-67.496-150.756-150.756s67.496-150.756 150.756-150.756c83.26 0 150.756 67.496 150.756 150.756 0 41.521-16.786 79.122-43.942 106.387l0.005-0.005zM44.942 915.058v-934.116h934.116v934.116zM370.916 387.129c-114.365 0-207.076 92.711-207.076 207.076s92.711 207.076 207.076 207.076c114.365 0 207.076-92.711 207.076-207.076v0c0-114.365-92.711-207.076-207.076-207.076v0zM541.582 346.169v-250.311h-56.889v250.311zM592.782 95.858v300.942h56.889v-300.942zM700.871 95.858v357.831h56.889v-357.831zM808.96 95.858v420.978h56.889v-420.978z" />
<glyph unicode="&#xe951;" glyph-name="Flag" d="M847.076 622.649l-670.151 290.133v-929.564h63.716v376.604l606.436 262.827z" />
<glyph unicode="&#xe952;" glyph-name="Filter" d="M69.404 901.404l292.978-372.622h299.236l292.978 372.622h-885.191zM393.671 471.893v-337.351l237.227-139.378v476.729h-237.227z" />
<glyph unicode="&#xe953;" glyph-name="Bank_check" d="M241.778 323.982c-6.807-0.031-13.112-2.154-18.312-5.759l0.107 0.070c-4.818-3.071-7.968-8.387-7.968-14.439 0-0.124 0.001-0.247 0.004-0.37v0.018c-0.004-0.132-0.007-0.288-0.007-0.444 0-4.385 1.985-8.307 5.104-10.916l0.022-0.018c6.004-4.039 13.078-7.017 20.693-8.476l0.356-0.057zM294.116 198.827c2.229 3.386 3.671 7.47 3.978 11.868l0.004 0.079c0.022 0.306 0.034 0.662 0.034 1.022 0 3.996-1.526 7.635-4.027 10.368l0.010-0.012c-3.725 4.206-8.54 7.367-14.005 9.045l-0.218 0.057-8.533 2.844v-47.218h9.102c5.675 2.68 10.309 6.767 13.576 11.82l0.077 0.127zM669.582 514.56l240.64 242.347-141.653 143.36-385.707-385.707h-329.956v-521.671h918.187v521.671zM444.871 486.116l323.698 323.698 52.338-52.907-323.698-323.698h-52.338zM380.587 244.338v56.889h472.747v-56.889zM673.564 180.622v-56.889h-292.978v56.889zM211.627 156.16c-12.97 5.426-23.619 14.244-31.133 25.355l-0.156 0.245c-4.504 7.88-7.876 17.052-9.596 26.793l-0.075 0.514v3.413l39.253 4.551c1.245-4.326 2.992-8.106 5.221-11.544l-0.101 0.166c4.048-5.333 9.444-9.447 15.684-11.863l0.245-0.083c3.304-1.637 7.141-2.836 11.182-3.391l0.196-0.022v54.044c-13.165 2.916-24.751 7.028-35.632 12.358l0.93-0.411c-9.659 4.667-17.56 11.655-23.191 20.263l-0.133 0.217c-4.991 7.919-7.956 17.55-7.964 27.873v0.002c-0.063 1.002-0.099 2.174-0.099 3.353 0 24.517 15.509 45.411 37.251 53.408l0.395 0.127c8.355 3.272 18.029 5.503 28.118 6.239l0.326 0.019v24.462h29.582v-25.6c7.854-1.102 14.948-3.092 21.614-5.9l-0.565 0.211c12.001-4.568 21.785-12.699 28.306-23.087l0.139-0.237c4.604-6.78 7.825-14.866 9.067-23.59l0.035-0.303v-3.413l-39.822-3.413c-1.394 4.188-3.532 7.793-6.281 10.835l0.023-0.026c-2.915 2.072-6.343 3.646-10.044 4.512l-0.196 0.039v-44.942c11.335-2.652 21.019-5.777 30.351-9.585l-1.338 0.483c11.399-4.852 20.828-12.454 27.744-21.997l0.131-0.19c5.712-8.72 9.111-19.403 9.111-30.88 0-0.344-0.003-0.687-0.009-1.029l0.001 0.051c-0.053-12.251-3.651-23.652-9.819-33.241l0.148 0.246c-6.974-10.499-16.642-18.705-28.030-23.73l-0.415-0.163c-8.134-3.926-17.604-6.566-27.59-7.377l-0.285-0.019v-25.031h-32.427v25.031c-11.031 0.78-21.291 3.010-30.943 6.509l0.792-0.251z" />
<glyph unicode="&#xe954;" glyph-name="Registration" d="M192.853 350.72v-124.018h244.622v124.018c0 9.671-42.098 32.996-123.449 32.996s-121.173-22.187-121.173-32.996zM370.347 579.413c0 31.419-25.47 56.889-56.889 56.889s-56.889-25.47-56.889-56.889c0-31.419 25.47-56.889 56.889-56.889v0c31.419 0 56.889 25.47 56.889 56.889v0zM771.413 568.036h-56.889v-80.213h-80.213v-56.889h80.213v-80.213h56.889v80.213h80.213v56.889h-80.213v80.213zM766.293 705.138v219.022h-733.867v-952.32h733.867v241.778c125.786 12.476 223.222 117.739 223.222 245.76s-97.436 233.284-222.195 245.677l-1.027 0.083zM315.164 692.053c62.838 0 113.778-50.94 113.778-113.778s-50.94-113.778-113.778-113.778c-62.838 0-113.778 50.94-113.778 113.778v0c0 62.838 50.94 113.778 113.778 113.778v0zM135.964 169.813v180.907c0 18.204 8.533 51.769 65.422 72.818 32.067 10.859 69 17.126 107.397 17.126 2.244 0 4.482-0.021 6.716-0.064l-0.335 0.005c83.058 0 180.338-23.893 180.338-89.884v-180.907zM742.969 277.333c-101.791 0.008-184.306 82.528-184.306 184.32 0 101.797 82.523 184.32 184.32 184.32s184.32-82.523 184.32-184.32c0-0.8-0.005-1.599-0.015-2.397l0.001 0.121c-1.284-100.814-83.309-182.044-184.306-182.044-0.005 0-0.010 0-0.015 0h0.001z" />
<glyph unicode="&#xe955;" glyph-name="News" d="M367.502 649.956h158.72v-96.142h-158.72v96.142zM156.444 859.307v-148.48h-109.227v-671.858h929.564v820.338zM156.444 101.547h-42.667v544.996h44.942zM822.613 400.782v-56.889h-512v56.889zM310.613 496.924v209.92h273.067v-209.92zM655.36 496.924v56.889h167.253v-56.889zM674.702 247.751v-56.889h-364.089v56.889zM822.613 649.956h-167.253v56.889h167.253z" />
<glyph unicode="&#xe956;" glyph-name="Error_solid" horiz-adv-x="1025" d="M512 911.644l-512-927.289h1024zM568.889 132.836h-110.933v101.262h110.933zM460.8 284.16v284.444h108.089v-284.444z" />
<glyph unicode="&#xe957;" glyph-name="Shopping_cart" d="M777.102 258.56l194.56 439.182h-734.436l-48.924 106.382h-135.964v-64.284h95.004l221.298-481.28h408.462zM756.622 225.564c-0.169 0.002-0.369 0.002-0.569 0.002-37.074 0-67.129-30.055-67.129-67.129s30.055-67.129 67.129-67.129c37.073 0 67.127 30.053 67.129 67.126v0c0.002 0.169 0.002 0.369 0.002 0.569 0 36.76-29.8 66.56-66.56 66.56-0.001 0-0.002 0-0.003 0v0zM389.12 225.564c-0.338 0.006-0.738 0.010-1.138 0.010-37.074 0-67.129-30.055-67.129-67.129s30.055-67.129 67.129-67.129c37.071 0 67.123 30.049 67.129 67.119v0.001c0.002 0.17 0.002 0.37 0.002 0.571 0 36.561-29.478 66.237-65.963 66.557h-0.030z" />
<glyph unicode="&#xe958;" glyph-name="Chevron_double" d="M801.564 692.622l-60.302 60.302-229.262-229.262-229.262 229.262-60.302-60.302 289.564-289.564 289.564 289.564zM512 263.68l-229.262 229.262-60.302-60.302 289.564-289.564 289.564 289.564-60.302 60.302-229.262-229.262z" />
<glyph unicode="&#xe959;" glyph-name="Telephone" d="M732.729 15.644c-113.778 0-278.756 83.627-423.822 227.556-203.662 204.8-286.151 441.458-187.733 539.307l81.92 81.92c11.378 11.947 38.684 27.307 90.453 2.844 34.694-17.685 64.367-39.73 89.807-65.911l0.077-0.080c26.315-25.483 48.368-55.165 65.12-88.002l0.872-1.882c24.462-52.338 9.102-79.076 0-91.022l-65.422-63.147c34.055-47.776 69.734-89.772 108.631-128.542l0.027-0.027c38.797-38.924 80.793-74.603 125.581-106.627l2.988-2.030 61.44 63.147c40.391 40.391 120.036 0 180.907-63.716s103.538-139.947 63.147-180.338l-81.92-81.92c-27.735-25.806-65.047-41.645-106.059-41.645-2.114 0-4.219 0.042-6.313 0.125l0.301-0.010z" />
<glyph unicode="&#xe95a;" glyph-name="Add" d="M836.836 490.667h-282.169v282.169h-85.333v-282.169h-282.169v-85.333h282.169v-282.169h85.333v282.169h282.169v85.333z" />
<glyph unicode="&#xe95b;" glyph-name="Check" d="M443.733 177.778l-257.138 223.004 56.32 64.284 190.009-164.978 337.92 418.133 66.56-53.476-393.671-486.969z" />
<glyph unicode="&#xe95c;" glyph-name="Subtract" d="M187.164 490.667h649.671v-85.333h-649.671v85.333z" />
<glyph unicode="&#xe95d;" glyph-name="Rolodex" d="M749.227 817.209v85.902h-63.716v-85.902h-344.178v85.902h-66.56v-85.902h-236.658v-853.333h947.769v853.333zM496.071 81.636h-341.333v170.667c0 63.716 87.609 86.471 170.667 86.471s170.667-22.756 170.667-86.471zM217.884 469.618c-0.001 0.169-0.002 0.369-0.002 0.569 0 59.382 48.138 107.52 107.52 107.52s107.52-48.138 107.52-107.52c0-59.381-48.137-107.519-107.518-107.52v0c0 0-0.001 0-0.002 0-59.182 0-107.196 47.815-107.518 106.92v0.031zM869.262 81.636h-325.404v56.889h325.404zM869.262 277.902h-325.404v56.32h325.404zM869.262 473.6h-325.404v56.889h325.404zM101.831 696.604v56.889h170.667v-30.72h68.836v30.72h347.022v-30.72h63.716v30.72h170.667v-56.889zM413.013 270.507c-25.226 8.32-54.262 13.118-84.419 13.118-1.522 0-3.041-0.012-4.557-0.037l0.229 0.003c-72.818 0-113.778-21.049-113.778-29.582v-113.778h227.556v113.778s-5.12 9.102-25.031 16.498zM376.036 469.618c0-27.963-22.668-50.631-50.631-50.631s-50.631 22.668-50.631 50.631c0 27.963 22.668 50.631 50.631 50.631s50.631-22.668 50.631-50.631z" />
<glyph unicode="&#xe95e;" glyph-name="Copy" d="M754.916 916.764l-669.582-1.707v-762.88h56.889v706.56l612.693 1.138v56.889zM938.667 595.911l-183.751 183.751v-183.751h183.751zM223.004 777.956v-796.444h715.662v557.511h-240.64v240.071zM372.622 611.271h215.609v-56.889h-215.609zM789.049 131.698h-416.427v56.889h416.427zM789.049 272.782h-416.427v56.889h416.427zM789.049 413.298h-416.427v56.889h416.427z" />
<glyph unicode="&#xe95f;" glyph-name="Ascend" d="M946.631 693.76l-205.938 206.507-4.551 5.12-216.747-216.747 55.182-55.182 5.12-4.551 5.12 4.551 108.658 108.658v-745.813h84.764v745.813l108.658-108.658 5.12-4.551 5.12 4.551 49.493 50.062 5.12 5.12-5.12 5.12zM200.249 578.844h157.013l34.702-89.884h97.28l-164.978 410.169h-91.591l-158.72-407.893v-4.551h92.729zM277.618 789.333l50.631-137.102h-100.693zM427.804 334.222l1.138 1.138v68.267h-304.356v-75.662h185.458l-208.213-257.138-1.138-1.138v-79.076h336.782v75.662h-226.987l217.316 267.947z" />
<glyph unicode="&#xe960;" glyph-name="Cut" d="M632.036 461.653l351.004 230.4-216.747 54.613-277.049-182.044zM311.182 630.044c5.674 14.342 8.964 30.957 8.964 48.34 0 8.451-0.778 16.721-2.265 24.741l0.128-0.832c-12.789 64.851-69.199 113.084-136.875 113.084-76.976 0-139.378-62.402-139.378-139.378 0-47.072 23.335-88.694 59.068-113.929l0.438-0.293c14.284-9.625 31.098-16.761 49.192-20.337l0.871-0.143 137.102-98.987-129.707-85.333c-21.399-2.674-40.678-9.947-57.419-20.802l0.53 0.322c-38.766-25.311-64.028-68.488-64.028-117.565 0-66.718 46.688-122.532 109.174-136.553l0.934-0.176c8.846-1.719 19.062-2.75 29.503-2.844l0.080-0.001c66.554 0.062 122.226 46.572 136.355 108.858l0.179 0.937c1.852 8.592 2.913 18.462 2.913 28.58 0 16.24-2.733 31.842-7.764 46.371l0.3-0.995 116.622 76.231 311.182-227.556 219.022 51.2zM180.907 753.493c37.078-0.238 67.857-26.911 74.451-62.105l0.074-0.472c0.545-3.588 0.857-7.727 0.857-11.94 0-11.711-2.407-22.859-6.753-32.977l0.208 0.544c-9.899-20.871-28.333-36.321-50.669-41.984l-0.531-0.114h-4.551c-4.388-0.932-9.429-1.466-14.596-1.466-15.848 0-30.523 5.023-42.518 13.565l0.225-0.152c-19.6 13.981-32.227 36.64-32.227 62.248 0 37 26.36 67.843 61.324 74.774l0.485 0.080zM254.862 202.24c-4.429-19.985-16.397-36.598-32.697-47.039l-0.298-0.179c-11.281-7.048-24.982-11.227-39.66-11.227-41.787 0-75.662 33.875-75.662 75.662 0 5.384 0.562 10.637 1.632 15.703l-0.087-0.494c4.366 20.010 16.352 36.644 32.695 47.039l0.3 0.178c11.258 7.488 25.091 11.948 39.966 11.948 0.149 0 0.299 0 0.448-0.001h-0.023c2.474 0.267 5.344 0.419 8.249 0.419s5.775-0.152 8.602-0.449l-0.353 0.030c8.628-2.105 16.222-5.434 23.048-9.848l-0.292 0.177 30.151-36.978c3.629-8.507 5.739-18.403 5.739-28.793 0-5.723-0.64-11.296-1.853-16.652l0.096 0.503z" />
<glyph unicode="&#xe961;" glyph-name="Descend" d="M946.631 215.893l-49.493 50.062-5.12 5.12-113.778-113.778v746.382h-84.764v-746.382l-113.778 113.778-55.182-55.182-5.12-4.551 5.12-5.12 211.058-211.627 5.12 5.12 205.938 206.507 5.12 4.551-5.12 5.12zM200.249 579.982h157.013l34.702-89.884h97.28l-164.978 413.013h-91.591l-158.72-410.169v-5.12h92.729zM277.618 789.333l50.631-136.533h-100.693zM427.804 335.929l1.138 0.569v68.267h-304.356v-75.662h185.458l-208.213-257.138-1.138-1.138v-78.507h336.782v75.662h-226.987l217.316 267.947z" />
<glyph unicode="&#xe962;" glyph-name="Dimension" d="M650.24 611.84l45.511 44.942-183.751 186.027-184.32-186.027 46.080-44.942 106.382 107.52v-542.72l-106.382 107.52-45.511-44.942 183.751-186.027 184.32 186.027-45.511 44.942-106.951-107.52v542.72l106.382-107.52zM318.578 908.231h386.844v-64.284h-386.844v64.284zM318.578 51.484h386.844v-64.284h-386.844v64.284z" />
<glyph unicode="&#xe963;" glyph-name="Eye_hide" d="M929.564 504.889c-26.85 36.513-56.003 68.554-88.147 97.322l-0.599 0.527c-40.712 36.891-86.899 68.909-136.93 94.478l-3.585 1.664c-54.319 28.328-118.628 44.945-186.818 44.945-0.522 0-1.043-0.001-1.565-0.003h0.081c-0.244 0-0.533 0.001-0.822 0.001-36.012 0-71.056-4.146-104.68-11.988l3.102 0.609 93.298-93.298h9.102c0.338 0.002 0.738 0.003 1.139 0.003 105.253 0 190.578-85.325 190.578-190.578 0-0.201 0-0.402-0.001-0.604v0.031c0-3.413 0-6.258 0-9.102l142.791-142.791c30.472 28.446 57.77 59.535 81.785 93.131l1.273 1.873 37.547 56.889zM162.133 858.169v0l-60.302-60.302 142.791-142.791c-23.188-15.873-43.418-31.949-62.446-49.318l0.437 0.394c-33.205-28.929-62.409-61.022-87.609-96.179l-1.138-1.67-22.187-32.427-14.791-27.876 39.253-56.889c26.68-37.069 55.858-69.496 88.181-98.488l0.565-0.499c40.822-36.805 86.975-68.975 136.856-94.975l3.66-1.736c52.987-27.274 115.628-43.262 182.004-43.262 1.615 0 3.227 0.009 4.837 0.028l-0.245-0.002c2.428-0.053 5.289-0.082 8.157-0.082 65.883 0 128.076 15.796 182.999 43.807l-2.285-1.058 158.72-158.72 60.302 56.889zM617.244 285.298c-29.041-18.541-64.448-29.552-102.428-29.552-53.083 0-101.143 21.511-135.937 56.291l0.001-0.001c-35.83 34.959-58.052 83.723-58.052 137.677 0 37.259 10.597 72.043 28.942 101.502l-0.473-0.814 41.529-41.529 181.476-182.044 21.049-20.48z" />
<glyph unicode="&#xe964;" glyph-name="Eyedropper" d="M926.151 747.236c-0.137 84.413-68.599 152.791-153.031 152.791-42.199 0-80.408-17.080-108.092-44.704l0.003 0.003-67.129-65.991-51.769 51.2-45.511-44.942 51.769-51.769-304.356-305.493v-170.667l-68.836-69.404 44.942-44.942 68.836 67.129h170.667l304.356 304.356 52.338-52.338 45.511 44.942-52.338 52.338 67.129 67.698c28.099 27.497 45.52 65.808 45.52 108.187 0 0.566-0.003 1.13-0.009 1.695l0.001-0.086zM438.044 285.867h-126.293v125.724l284.444 284.444 125.724-126.293zM164.978 180.622l-25.031-32.427c-20.857-22.99-35.726-51.778-41.92-83.664l-0.178-1.1c-0.181-1.858-0.284-4.017-0.284-6.199 0-37.388 30.309-67.698 67.698-67.698s67.698 30.309 67.698 67.698c0 2.183-0.103 4.341-0.305 6.471l0.021-0.272c-6.637 32.926-21.458 61.657-42.252 84.94l0.154-0.175z" />
<glyph unicode="&#xe965;" glyph-name="Merge" d="M815.218 631.751l-44.942-45.511 107.52-106.382h-335.644l-227.556 265.102h-272.498v-64.284h242.916l200.249-232.676-200.249-232.676h-242.916v-64.284h272.498l227.556 265.102h335.644l-107.52-106.382 44.942-45.511 186.027 183.751-186.027 183.751z" />
<glyph unicode="&#xe966;" glyph-name="Microphone_mute" d="M598.471 578.844l64.284-63.716v160.427c-1.288 81.956-68.028 147.9-150.169 147.9-43.596 0-82.854-18.576-110.291-48.244l-0.091-0.1 45.511-44.942zM162.133 894.009l-56.889-60.302 256-259.982v-194.56c0.229-83.086 67.637-150.352 150.755-150.352 52.641 0 98.98 26.98 125.944 67.867l0.35 0.565 36.409-36.409c-37.017-50.831-96.33-83.493-163.272-83.493-111.223 0-201.387 90.164-201.387 201.387 0 0.153 0 0.306 0.001 0.458v-0.024h-56.889c0.406-132.499 100.522-241.489 229.228-255.893l1.172-0.107v-121.173h56.889v121.173c71.196 8.209 132.682 44.226 174.236 96.739l0.413 0.541 146.773-146.773 59.733 59.733z" />
<glyph unicode="&#xe967;" glyph-name="Direction" d="M512 934.969c-268.945 0-486.969-218.023-486.969-486.969s218.023-486.969 486.969-486.969c268.945 0 486.969 218.023 486.969 486.969v0c-0.323 268.815-218.154 486.645-486.938 486.969h-0.031zM593.92 217.031l-60.302 60.302 128 128h-402.773v85.333h402.773l-128 128 60.302 60.302 231.538-230.969z" />
<glyph unicode="&#xe968;" glyph-name="Reorder" d="M821.476 519.111h-618.951l309.476 310.044zM202.524 376.889h618.951l-309.476-310.044z" />
<glyph unicode="&#xe969;" glyph-name="Split" d="M770.276 321.707l107.52-106.382h-339.627l-200.249 232.676 200.249 232.676h339.627l-107.52-106.382 44.942-45.511 186.027 184.32-186.027 183.751-44.942-45.511 107.52-106.382h-369.209l-227.556-265.102h-238.933v-63.716h238.933l227.556-265.102h369.209l-107.52-106.382 44.942-45.511 186.027 183.751-186.027 184.32-44.942-45.511z" />
<glyph unicode="&#xe96a;" glyph-name="Zoom_in" d="M702.009 308.622c50.692 60.935 81.459 140.009 81.459 226.27 0 196.054-158.933 354.987-354.987 354.987-98.866 0-188.291-40.416-252.657-105.627l-0.037-0.038c-65.249-64.403-105.665-153.829-105.665-252.694 0-196.054 158.933-354.987 354.987-354.987 86.26 0 165.335 30.767 226.848 81.926l-0.578-0.467 250.311-250.311 50.631 50.631zM573.44 500.907h-113.778v-113.778h-64.853v113.778h-113.778v64.284h113.778v113.778h64.284v-113.778h113.778z" />
<glyph unicode="&#xe96b;" glyph-name="Zoom_out" d="M702.009 308.622c50.692 60.935 81.459 140.009 81.459 226.27 0 196.054-158.933 354.987-354.987 354.987-98.866 0-188.291-40.416-252.657-105.627l-0.037-0.038c-65.249-64.403-105.665-153.829-105.665-252.694 0-196.054 158.933-354.987 354.987-354.987 86.26 0 165.335 30.767 226.848 81.926l-0.578-0.467 250.311-250.311 50.631 50.631zM573.44 500.907h-292.978v64.284h292.978z" />
<glyph unicode="&#xe96c;" glyph-name="Desktop" d="M967.111 243.769v622.933h-910.222v-625.778h356.124v-150.756h-97.849v-63.716h393.671v66.56h-97.849v150.756zM119.467 802.987h785.067v-494.933h-785.067z" />
<glyph unicode="&#xe96d;" glyph-name="Folder_open" d="M878.933 618.667v101.262h-455.111l-42.098 113.778h-346.453v-768h843.662l130.276 552.96zM99.556 129.422v638.862h241.778l42.098-113.778h432.924v-35.84h-601.884l-113.778-489.244z" />
<glyph unicode="&#xe96e;" glyph-name="Microphone" d="M512 228.409c83.26 0 150.756 67.496 150.756 150.756v293.547c0 83.26-67.496 150.756-150.756 150.756s-150.756-67.496-150.756-150.756v0-293.547c0-83.26 67.496-150.756 150.756-150.756v0zM770.844 379.164h-56.889c0-111.537-90.419-201.956-201.956-201.956s-201.956 90.419-201.956 201.956h-56.889c0.406-132.499 100.522-241.489 229.228-255.893l1.172-0.107v-121.173h56.889v121.173c129.878 14.511 229.994 123.501 230.4 255.958v0.042z" />
<glyph unicode="&#xe96f;" glyph-name="Pause" d="M227.556 760.32h237.227v-625.209h-237.227v625.209zM559.218 760.32h237.227v-625.209h-237.227v625.209z" />
<glyph unicode="&#xe970;" glyph-name="Play" d="M227.556 122.027v651.947l568.889-325.973z" />
<glyph unicode="&#xe971;" glyph-name="Save" d="M723.058 903.111h-642.844v-910.222h863.573v689.493zM267.947 837.12h398.222v-201.387h-399.36zM310.044 58.88v265.671h406.187v-265.102zM532.48 802.987h64.284v-130.844h-64.284v130.844z" />
<glyph unicode="&#xe972;" glyph-name="Scrub" d="M202.524 138.524l309.476 309.476-309.476 309.476v-618.951zM821.476 448l-309.476 309.476v-618.951l309.476 309.476z" />
<glyph unicode="&#xe973;" glyph-name="Skip" d="M634.88 767.716v-639.431h63.716v639.431h-63.716zM325.404 138.524l309.476 309.476-309.476 309.476v-618.951z" />
<glyph unicode="&#xe974;" glyph-name="Stop" d="M199.68 760.32h625.209v-625.209h-625.209v625.209z" />
<glyph unicode="&#xe975;" glyph-name="Volume_down" d="M141.084 579.413v-262.827h125.156l288.996-199.68v662.187l-288.996-199.68h-125.156zM682.667 594.204l-39.822-40.391c26.95-27.14 43.605-64.531 43.605-105.813s-16.656-78.674-43.614-105.822l0.009 0.009 39.822-40.391c37.479 37.388 60.667 89.089 60.667 146.204s-23.188 108.816-60.663 146.201l-0.004 0.004z" />
<glyph unicode="&#xe976;" glyph-name="Volume_mute" d="M141.084 579.413v-262.827h125.156l288.996-199.68v662.187l-288.996-199.68h-125.156zM948.338 556.658l-45.511 45.511-106.951-107.52-106.951 107.52-45.511-45.511 106.951-106.951-106.951-106.951 45.511-45.511 106.951 106.951 106.951-106.951 45.511 45.511-107.52 106.951 107.52 106.951z" />
<glyph unicode="&#xe977;" glyph-name="Volume_up" d="M141.084 579.413v-262.827h125.156l288.996-199.68v662.187l-288.996-199.68h-125.156zM782.222 692.053l-42.667-40.391c52.024-52.166 84.192-124.158 84.192-203.662s-32.168-151.496-84.199-203.669l0.007 0.007 40.391-40.391c62.281 62.54 100.784 148.8 100.784 244.053s-38.504 181.513-100.796 244.065l0.012-0.012zM682.667 594.204l-39.822-40.391c26.95-27.14 43.605-64.531 43.605-105.813s-16.656-78.674-43.614-105.822l0.009 0.009 39.822-40.391c37.618 37.325 60.905 89.045 60.905 146.204s-23.287 108.88-60.891 146.191l-0.013 0.013z" />
<glyph unicode="&#xe978;" glyph-name="Ribbon" d="M512 907.662c-0.326 0.001-0.712 0.002-1.099 0.002-173.118 0-313.458-140.34-313.458-313.458 0-115.742 62.731-216.833 156.048-271.128l1.495-0.803v-333.938l157.013 131.982 157.013-127.431v329.387c94.812 55.098 157.543 156.189 157.543 271.931 0 173.118-140.34 313.458-313.458 313.458-0.386 0-0.772-0.001-1.158-0.002h0.060zM669.013 400.782c-16.388-14.045-35.131-26.046-55.416-35.242l-1.473-0.598c-29.471-13.303-63.892-21.054-100.124-21.054s-70.654 7.751-101.697 21.685l1.573-0.631c-21.758 9.794-40.501 21.795-57.206 36.106l0.318-0.266c-56.76 46.153-92.729 115.982-92.729 194.211 0 137.929 111.813 249.742 249.742 249.742s249.742-111.813 249.742-249.742c0-78.23-35.969-148.058-92.271-193.85l-0.458-0.361z" />
<glyph unicode="&#xe979;" glyph-name="Calculator" d="M159.858 868.978v-841.956h704.284v841.956zM652.516 401.92v56.889h87.040v-56.889zM739.556 341.618v-173.511h-87.040v173.511zM287.858 544.142v183.751h451.698v-183.751zM526.222 284.729v56.889h84.764v-56.889zM610.987 224.996v-56.889h-84.764v56.889zM526.222 401.92v56.889h84.764v-56.889zM406.756 284.729v56.889h84.196v-56.889zM490.951 224.996v-56.889h-84.196v56.889zM406.756 401.92v56.889h84.196v-56.889zM371.484 458.809v-56.889h-84.196v56.889zM371.484 341.618v-56.889h-84.196v56.889zM371.484 224.996v-56.889h-84.196v56.889z" />
<glyph unicode="&#xe97a;" glyph-name="File_tree" d="M543.858 856.462h-205.938l-17.067 46.080h-190.578v-353.28h413.582v307.2zM353.28 509.44h-56.889v-443.164h368.64v56.889h-311.751v193.991h311.751v56.889h-311.751v135.396zM792.462 244.338c55.926 0 101.262 45.337 101.262 101.262s-45.337 101.262-101.262 101.262c-55.926 0-101.262-45.337-101.262-101.262v0c0-55.926 45.337-101.262 101.262-101.262v0zM792.462 389.973c24.507 0 44.373-19.867 44.373-44.373s-19.867-44.373-44.373-44.373c-24.507 0-44.373 19.867-44.373 44.373v0c-0.009 0.339-0.015 0.738-0.015 1.138 0 24.507 19.867 44.373 44.373 44.373 0.005 0 0.010 0 0.015 0h-0.001zM792.462 195.982c-55.926 0-101.262-45.337-101.262-101.262s45.337-101.262 101.262-101.262c55.926 0 101.262 45.337 101.262 101.262v0c0 55.926-45.337 101.262-101.262 101.262v0zM792.462 50.347c-24.507 0-44.373 19.867-44.373 44.373s19.867 44.373 44.373 44.373c24.507 0 44.373-19.867 44.373-44.373v0c0.002-0.169 0.004-0.369 0.004-0.569 0-24.507-19.867-44.373-44.373-44.373-0.001 0-0.003 0-0.004 0v0z" />
<glyph unicode="&#xe97b;" glyph-name="Keyboard" d="M0 732.444v-568.889h1024v568.889zM193.422 521.956v-56.889h-104.676v56.889zM88.747 556.658v56.889h61.44v-56.889zM935.253 521.956v-56.889h-104.676v56.889zM873.813 556.658v56.889h61.44v-56.889zM786.773 374.044v56.889h148.48v-56.889zM935.253 339.342v-56.889h-61.44v56.889zM848.213 339.342v-56.889h-61.44v56.889zM848.213 556.658h-61.44v56.889h61.44zM804.409 521.956v-56.889h-61.44v56.889zM761.173 339.342v-56.889h-498.347v56.889zM262.827 374.044v56.889h62.009v-56.889zM350.436 374.044v56.889h61.44v-56.889zM437.476 374.044v56.889h61.44v-56.889zM525.084 374.044v56.889h61.44v-56.889zM612.124 374.044v56.889h61.44v-56.889zM699.164 374.044v56.889h62.009v-56.889zM761.173 556.658h-62.009v56.889h62.009zM717.369 521.956v-56.889h-61.44v56.889zM673.564 556.658h-61.44v56.889h61.44zM629.76 521.956v-56.889h-60.871v56.889zM586.524 556.658h-61.44v56.889h61.44zM542.72 521.956v-56.889h-61.44v56.889zM498.916 556.658h-61.44v56.889h61.44zM455.111 521.956v-56.889h-61.44v56.889zM411.307 556.658h-60.871v56.889h61.44zM367.502 521.956v-56.889h-60.871v56.889zM324.267 556.658h-61.44v56.889h62.009zM280.462 521.956v-56.889h-60.871v56.889zM236.658 556.658h-60.871v56.889h61.44zM236.658 430.933v-56.889h-147.911v56.889zM236.658 339.342v-56.889h-60.871v56.889zM149.618 339.342v-56.889h-60.871v56.889z" />
<glyph unicode="&#xe97c;" glyph-name="Car" d="M893.156 574.293l-96.711 280.462h-568.889l-96.142-280.462h-74.524l18.204-416.996h38.684v-113.778h129.707v113.778h537.031v-113.778h129.707v113.778h40.96l15.929 416.996zM275.342 789.333h473.884l76.231-216.747h-626.347zM279.893 314.88h-47.787c-0.005 0-0.012 0-0.018 0-44.929 0-81.351 36.422-81.351 81.351 0 0.6 0.006 1.199 0.019 1.796l-0.002-0.089c-0.061 1.191-0.096 2.586-0.096 3.989 0 45.191 36.34 81.895 81.392 82.482l0.055 0.001h47.787c44.929 0 81.351-36.422 81.351-81.351v0c0.061-1.191 0.096-2.586 0.096-3.989 0-45.191-36.34-81.895-81.392-82.482l-0.055-0.001zM791.893 314.88h-47.787c-44.929 0-81.351 36.422-81.351 81.351v0c-0.061 1.191-0.096 2.586-0.096 3.989 0 45.191 36.34 81.895 81.392 82.482l0.055 0.001h47.787c44.929 0 81.351-36.422 81.351-81.351v0c0.020-0.68 0.032-1.48 0.032-2.283 0-45.168-36.304-81.858-81.324-82.481l-0.059-0.001z" />
<glyph unicode="&#xe97d;" glyph-name="Attachment" d="M387.982 42.382c-0.184 0-0.402-0.001-0.62-0.001-139.5 0-252.587 113.087-252.587 252.587 0 69.763 28.282 132.92 74.007 178.631l320.285 320.285c38.649 37.023 91.187 59.815 149.049 59.815s110.4-22.793 149.127-59.889l-0.078 0.074c38.355-38.048 62.1-90.776 62.1-149.049s-23.744-111.001-62.086-149.035l-0.014-0.014-307.769-308.338c-31.224-29.591-73.505-47.788-120.036-47.788s-88.812 18.197-120.114 47.862l0.079-0.074c-30.502 30.819-49.347 73.227-49.347 120.036s18.844 89.216 49.361 120.050l-0.014-0.014 244.053 242.916c22.556 19.995 52.408 32.207 85.113 32.207 71.007 0 128.569-57.562 128.569-128.569 0-32.705-12.211-62.557-32.323-85.247l0.117 0.134-238.933-237.796-39.822 40.391 238.364 237.796c10.331 12.335 16.605 28.373 16.605 45.877 0 39.588-32.092 71.68-71.68 71.68-17.646 0-33.803-6.376-46.292-16.951l0.105 0.087-243.484-242.916c-20.111-20.506-32.524-48.626-32.524-79.644s12.413-59.138 32.542-79.663l-0.018 0.018c20.506-20.111 48.626-32.524 79.644-32.524s59.138 12.413 79.663 32.542l308.32 308.32c27.72 27.954 44.85 66.448 44.85 108.942s-17.129 80.988-44.86 108.953l0.010-0.011c-28.304 26.936-66.688 43.507-108.942 43.507s-80.638-16.571-109.008-43.569l0.066 0.062-320.284-320.284c-32.288-34.874-52.094-81.71-52.094-133.172 0-108.395 87.872-196.267 196.267-196.267 51.32 0 98.040 19.697 133.012 51.945l-0.136-0.123 287.289 287.289 40.391-40.391-284.444-284.444c-45.654-47.042-109.473-76.235-180.111-76.235-0.48 0-0.96 0.001-1.439 0.004h0.074z" />
<glyph unicode="&#xe97e;" glyph-name="Align_center" d="M147.911 409.316h728.747v-64.284h-728.747v64.284zM303.218 268.8h416.996v-64.284h-416.996v64.284zM303.218 550.4h416.996v-64.284h-416.996v64.284zM147.911 691.484h728.747v-64.284h-728.747v64.284z" />
<glyph unicode="&#xe97f;" glyph-name="Align_left" d="M147.911 409.316h728.178v-64.284h-728.178v64.284zM147.911 268.8h416.996v-64.284h-416.996v64.284zM147.911 550.4h416.996v-64.284h-416.996v64.284zM147.911 691.484h728.178v-64.284h-728.178v64.284z" />
<glyph unicode="&#xe980;" glyph-name="Blockquote" d="M610.987 448h128.569v-91.022c0.086-2.755 0.135-5.996 0.135-9.248 0-27.838-3.577-54.841-10.296-80.573l0.491 2.212c-7.141-22.654-19.744-41.87-36.296-56.788l-0.113-0.1c-18.826-17.535-41.406-31.317-66.376-39.991l-1.322-0.4-25.031 53.476c23.1 5.615 42.649 18.323 56.738 35.649l0.151 0.191c11.070 15.997 17.684 35.812 17.684 57.173 0 1.101-0.018 2.197-0.052 3.289l0.004-0.159h-64.284zM804.409 448h128.569v-91.022c0.108-2.975 0.169-6.47 0.169-9.979 0-27.62-3.8-54.353-10.905-79.704l0.496 2.074c-7.38-22.566-19.937-41.73-36.315-56.804l-0.093-0.085c-18.704-17.417-41.074-31.177-65.797-39.978l-1.332-0.414-22.756 52.338c23.085 5.657 42.623 18.355 56.74 35.651l0.149 0.189c11.070 15.997 17.684 35.812 17.684 57.173 0 1.101-0.018 2.197-0.052 3.289l0.004-0.159h-66.56zM219.591 448h-128.569v91.022c-0.099 2.887-0.156 6.281-0.156 9.687 0 27.919 3.795 54.951 10.896 80.609l-0.5-2.119c7.46 22.438 19.783 41.549 35.787 56.839l0.053 0.050c18.861 17.633 41.417 31.581 66.353 40.538l1.345 0.422 22.756-52.907c-23.085-5.657-42.623-18.355-56.74-35.651l-0.149-0.189c-11.066-16.112-17.674-36.039-17.674-57.508 0-0.982 0.014-1.962 0.041-2.937l-0.003 0.143h66.56zM411.876 448h-127.431v91.022c-0.14 3.434-0.219 7.463-0.219 11.512 0 27.253 3.609 53.664 10.375 78.78l-0.485-2.114c7.456 22.539 19.998 41.686 36.322 56.809l0.087 0.080c18.831 17.69 41.398 31.648 66.366 40.546l1.331 0.414 25.031-52.907c-23.085-5.657-42.623-18.355-56.74-35.651l-0.149-0.189c-11.066-16.112-17.674-36.039-17.674-57.508 0-0.982 0.014-1.962 0.041-2.937l-0.003 0.143h63.147z" />
<glyph unicode="&#xe981;" glyph-name="Bold" d="M227.556 785.351h271.36c4.895 0.113 10.661 0.178 16.443 0.178 36.334 0 72.074-2.546 107.050-7.469l-4.027 0.464c26.702-4.357 50.508-14.162 71.145-28.264l-0.602 0.389c21.335-14.889 38.733-33.923 51.328-56.047l0.441-0.842c12.889-21.949 20.501-48.342 20.501-76.514 0-0.901-0.008-1.799-0.023-2.696l0.002 0.135c0.009-0.615 0.014-1.342 0.014-2.070 0-31.387-9.345-60.592-25.405-84.983l0.36 0.582c-16.81-26.212-40.44-46.734-68.41-59.333l-0.995-0.401c38.323-9.839 70.705-31.14 94.181-59.979l0.255-0.323c21.982-27.567 35.272-62.911 35.272-101.359 0-0.166 0-0.332-0.001-0.498v0.026c-0.217-32.811-8.181-63.712-22.151-91.032l0.533 1.148c-13.376-28.057-32.675-51.364-56.404-69.059l-0.484-0.345c-25.751-17.327-56.792-28.793-90.27-31.803l-0.752-0.055c-22.756 0-77.369-3.982-164.409-4.551h-234.951zM364.089 671.573v-154.738h91.022c52.907 0 85.902 0 98.987 0 22.205 0.971 42.103 10.118 56.911 24.483l-0.022-0.021c12.37 12.442 20.017 29.592 20.017 48.529 0 1.34-0.038 2.671-0.114 3.992l0.008-0.183c0.050 1.027 0.079 2.23 0.079 3.44 0 18.2-6.475 34.887-17.246 47.885l0.1-0.125c-13.059 13.634-30.976 22.524-50.96 23.88l-0.24 0.013c-13.653 0-52.338 0-113.778 0zM364.089 403.058v-180.338h127.431c6.171-0.22 13.422-0.345 20.702-0.345 25.785 0 51.202 1.572 76.162 4.626l-2.996-0.299c19.687 3.477 36.704 13.059 49.447 26.688l0.046 0.050c11.736 14.496 18.841 33.16 18.841 53.484 0 1.197-0.025 2.389-0.073 3.574l0.006-0.17c0.049 1.086 0.078 2.359 0.078 3.639 0 17.979-5.56 34.66-15.055 48.416l0.187-0.286c-10.3 14.517-24.982 25.33-42.098 30.57l-0.568 0.15c-29.253 6.518-62.851 10.252-97.321 10.252-8.19 0-16.331-0.211-24.417-0.627l1.133 0.047z" />
<glyph unicode="&#xe982;" glyph-name="Format_apply" d="M678.684 568.036l108.089 310.044h-217.884l-106.951-310.044h-181.476l-65.991-188.871h64.853c-39.184-117.563-93.272-219.608-161.32-310.608l2.031 2.839-48.356-53.476h476.729c37.547 0 170.667 25.6 295.822 361.244h42.098l65.991 188.871zM651.378 151.040h-402.204c33.712 63.142 66.396 138.32 93.298 216.194l3.413 11.361h428.942c-29.824-87.19-71.748-162.696-124.628-229.088l1.179 1.533z" />
<glyph unicode="&#xe983;" glyph-name="Format_remove" d="M823.751 326.258q10.24 25.031 20.48 52.907h42.098l65.991 188.871h-273.636l108.089 310.044h-217.884l-76.231-221.298zM91.591 816.64v0l249.742-248.604h-56.889l-69.973-188.871h64.853c-39.055-117.574-93.156-219.634-161.296-310.568l2.007 2.799-48.356-53.476h476.729c27.307 0 105.813 13.653 193.422 147.911l111.502-109.796 56.889 60.302-758.329 760.036zM695.751 211.911c-14.501-22.918-29.496-42.798-45.94-61.364l0.429 0.493h-398.222c33.712 63.142 66.396 138.32 93.298 216.194l3.413 11.361h183.182z" />
<glyph unicode="&#xe984;" glyph-name="Indent" d="M496.071 409.316h409.6v-64.284h-409.6v64.284zM496.071 268.8h298.098v-64.284h-298.098v64.284zM906.24 691.484h-410.169v-64.284h410.169v64.284zM382.293 768.284h64.284v-640.569h-64.284v640.569zM237.796 580.551l-45.511-45.511h0.569l55.182-55.182h-129.707v-63.716h129.707l-55.182-55.182h-0.569l45.511-45.511 132.551 132.551-132.551 132.551zM794.738 486.684v0 63.716h-298.667v-63.716h298.667z" />
<glyph unicode="&#xe985;" glyph-name="Italic" d="M493.227 204.516h132.551l-29.582-93.867h-378.311l29.582 93.867h130.844l151.893 486.4h-131.982l29.582 94.436h377.173l-29.582-94.436h-130.276z" />
<glyph unicode="&#xe986;" glyph-name="Ordered_list" d="M320.853 820.622h664.462v-85.333h-664.462v85.333zM320.853 480.427h664.462v-85.333h-664.462v85.333zM320.853 140.231h664.462v-85.333h-664.462v85.333zM170.667 806.4v-134.258h52.338v212.196h-46.080v-4.551c-3.98-11.745-11.324-21.479-20.878-28.328l-0.171-0.117c-8.559-7.164-18.566-12.955-29.472-16.855l-0.679-0.212h-5.12v-49.493h9.671c15.431 5.529 28.796 12.841 40.772 21.894l-0.381-0.276zM195.698 400.782c9.347 8.010 17.729 16.572 25.316 25.812l0.284 0.357c6.523 7.687 12.058 16.505 16.231 26.053l0.267 0.685c3.242 8.439 5.12 18.203 5.12 28.405 0 0.014 0 0.028 0 0.042v-0.002c0.014 0.463 0.021 1.007 0.021 1.553 0 16.743-7.233 31.797-18.745 42.207l-0.049 0.044c-12.387 11.013-28.797 17.741-46.778 17.741-1.355 0-2.702-0.038-4.038-0.114l0.185 0.008c-1.046 0.051-2.271 0.080-3.504 0.080-17.088 0-32.872-5.581-45.629-15.019l0.209 0.147c-14.257-11.957-23.398-29.61-23.892-49.41l-0.002-0.083v-7.396l51.769-5.12v7.396c0 0.057-0.001 0.125-0.001 0.193 0 7.203 2.348 13.857 6.321 19.238l-0.063-0.089c3.69 3.024 8.458 4.857 13.653 4.857s9.963-1.833 13.692-4.888l-0.038 0.030c2.859-3.494 4.592-8.006 4.592-12.923 0-0.457-0.015-0.91-0.044-1.36l0.003 0.061c-0.35-7.236-2.637-13.873-6.347-19.487l0.090 0.144c-9.479-11.191-19.529-21.24-30.347-30.411l-0.373-0.309c-16.312-14.34-30.565-30.4-42.669-48.050l-0.566-0.874c-7.319-11.722-12.369-25.599-14.174-40.477l-0.048-0.483v-5.12h153.6v48.924h-74.524c3.982 2.276 13.084 7.964 20.48 17.636zM213.333 106.667c12.111 9.206 19.864 23.604 19.911 39.815v0.008c-0.015 14.73-6.112 28.032-15.915 37.534l-0.014 0.013c-11.673 12.626-28.187 20.63-46.574 21.048l-0.075 0.001c-0.334 0.005-0.729 0.008-1.125 0.008-11.352 0-22.116-2.519-31.763-7.029l0.461 0.194c-9.677-4.145-17.612-10.799-23.205-19.153l-0.119-0.189c-6.019-8.883-10.243-19.468-11.899-30.884l-0.048-0.405v-6.827l49.493-8.533v7.396c0.647 5.96 3.124 11.245 6.849 15.385l-0.022-0.025c2.918 2.658 6.816 4.287 11.093 4.287s8.175-1.628 11.107-4.298l-0.013 0.012c2.139-2.755 3.43-6.262 3.43-10.070 0-0.26-0.006-0.518-0.018-0.775l0.001 0.036c0.015-0.272 0.024-0.59 0.024-0.911 0-5.058-2.201-9.603-5.697-12.728l-0.016-0.014c-3.494-2.859-8.006-4.592-12.923-4.592-0.457 0-0.91 0.015-1.36 0.044l0.061-0.003h-10.24l-6.258-45.511h21.618c0.182 0.007 0.396 0.011 0.611 0.011 4.973 0 9.432-2.2 12.456-5.68l0.017-0.020c3.906-4.545 6.285-10.501 6.285-17.013 0-0.419-0.010-0.836-0.029-1.25l0.002 0.059c0.015-0.342 0.024-0.743 0.024-1.146 0-6.71-2.371-12.866-6.32-17.676l0.039 0.049c-3.617-3.689-8.652-5.976-14.222-5.976s-10.605 2.287-14.219 5.973l-0.003 0.003c-3.991 4.564-6.525 10.493-6.824 17.006l-0.002 0.061v6.827l-50.631-6.258v-6.827c1.623-17.992 10.062-33.75 22.682-44.878l0.074-0.064c12.502-10.634 28.834-17.102 46.676-17.102 0.791 0 1.578 0.013 2.363 0.038l-0.114-0.003c0.608-0.019 1.323-0.030 2.040-0.030 19.404 0 36.978 7.835 49.732 20.513l-0.003-0.003c13.308 12.211 21.619 29.684 21.619 49.097 0 0.139 0 0.278-0.001 0.418v-0.021c0.012 0.416 0.019 0.905 0.019 1.396 0 12.693-4.519 24.331-12.035 33.393l0.070-0.086c-4.467 6.347-10.178 11.512-16.811 15.228l-0.256 0.132z" />
<glyph unicode="&#xe987;" glyph-name="Outdent" d="M295.822 535.040l-45.511 45.511-131.982-132.551 131.982-132.551 45.511 45.511-55.182 55.182h129.707v63.716h-129.707l55.182 55.182zM496.071 409.316h409.6v-64.284h-409.6v64.284zM496.071 268.8h298.098v-64.284h-298.098v64.284zM906.24 691.484h-410.169v-64.284h410.169v64.284zM382.293 768.284h64.284v-640.569h-64.284v640.569zM794.738 486.684v0 63.716h-298.667v-63.716h298.667z" />
<glyph unicode="&#xe988;" glyph-name="Password" d="M677.547 874.098c-136.672 0-247.467-110.795-247.467-247.467v0c0.807-58.706 22.169-112.272 57.196-153.976l-0.307 0.376-387.982-385.707 40.391-40.391 39.253 39.253 64.853-64.284 44.942 45.511-64.284 64.284 42.098 42.098 109.227-109.227 45.511 42.098-109.796 113.778 214.471 212.764c40.819-34.528 93.77-55.862 151.675-56.886l0.218-0.003c136.672 0 247.467 110.795 247.467 247.467s-110.795 247.467-247.467 247.467v0zM677.547 443.449c-101.169 0-183.182 82.013-183.182 183.182s82.013 183.182 183.182 183.182c101.169 0 183.182-82.013 183.182-183.182v0c0-101.169-82.013-183.182-183.182-183.182v0z" />
<glyph unicode="&#xe989;" glyph-name="Strikethrough" d="M327.111 504.889c-5.271 17.193-16.386 31.263-30.979 40.214l-0.31 0.177c-17.756 10.473-39.123 16.66-61.934 16.66-2.227 0-4.441-0.059-6.64-0.176l0.307 0.013c-2.461 0.162-5.336 0.254-8.233 0.254-29.385 0-56.556-9.481-78.621-25.55l0.382 0.265c-21.508-20.248-36.046-47.687-39.761-78.458l-0.061-0.618 46.080-7.396c1.111 21.257 9.787 40.296 23.362 54.654l-0.038-0.041c12.081 8.663 27.163 13.853 43.458 13.853 1.924 0 3.831-0.072 5.718-0.214l-0.251 0.015c2.38 0.297 5.134 0.466 7.927 0.466 19.244 0 36.612-8.029 48.937-20.92l0.024-0.025c5.832-10.428 9.267-22.882 9.267-36.137 0-4.924-0.474-9.738-1.379-14.398l0.076 0.473v-3.982h47.218c0.089 2.685 0.14 5.841 0.14 9.009 0 18.334-1.707 36.269-4.971 53.655l0.28-1.793zM471.609 484.409c10.433 18.55 29.498 31.17 51.603 32.419l0.166 0.007c22.576-0.361 42.183-12.733 52.747-30.991l0.159-0.298c7.813-11.868 13.571-25.827 16.388-40.823l0.11-0.706h48.924c-2.65 15.703-6.603 29.659-11.874 42.948l0.497-1.42c-9.177 23.043-23.814 42.253-42.365 56.664l-0.301 0.225c-16.172 12.046-36.533 19.3-58.586 19.342h-0.010c-0.27 0.003-0.589 0.005-0.909 0.005-15.208 0-29.428-4.232-41.546-11.584l0.357 0.201c-14.006-8.659-25.474-20.127-33.879-33.693l-0.254-0.44v168.391h-47.218v-240.64h49.493c2.812 15.313 8.584 28.908 16.728 40.745l-0.23-0.354zM760.036 486.116c12.437 18.51 33.238 30.567 56.866 30.72h0.023c15.541-0.068 29.6-6.356 39.826-16.502l-0.004 0.004c11.895-13.955 20.045-31.44 22.697-50.68l0.059-0.52 45.511 7.964c-2.645 31.597-16.502 59.532-37.528 80.195l-0.018 0.018c-17.999 15.273-41.495 24.56-67.161 24.56-1.589 0-3.17-0.036-4.742-0.106l0.223 0.008c-0.386 0.005-0.843 0.007-1.3 0.007-36.343 0-68.707-17.040-89.537-43.566l-0.186-0.246c-15.645-21.411-26.54-47.256-30.61-75.311l-0.11-0.92h48.356c2.892 16.794 9.078 31.746 17.892 44.775l-0.256-0.401zM981.902 415.573h-939.804v-42.667h71.68c-3.396-3.981-6.421-8.46-8.916-13.259l-0.187-0.395c-7.887-14.678-12.521-32.118-12.521-50.639 0-0.397 0.002-0.794 0.006-1.19l-0.001 0.060c-0.060-1.243-0.094-2.7-0.094-4.164 0-25.726 10.476-49.005 27.395-65.804l0.005-0.005c16.435-16.255 39.044-26.298 63.998-26.298 1.702 0 3.392 0.047 5.071 0.139l-0.234-0.010c0.303-0.003 0.661-0.005 1.020-0.005 18.943 0 36.805 4.629 52.517 12.819l-0.629-0.299c18.881 9.807 35.028 21.96 48.867 36.349l0.057 0.060c1.063-15.196 4.311-29.325 9.439-42.514l-0.337 0.985h48.924c-5.239 11.657-9.394 25.223-11.805 39.383l-0.142 1.008c0 14.222 0 47.787 0 101.262v12.516h69.404v-152.462h43.804v42.667c8.129-15.174 19.252-27.752 32.668-37.324l0.328-0.222c12.018-7.854 26.734-12.526 42.542-12.526 0.444 0 0.887 0.004 1.329 0.011l-0.067-0.001c34.906 1.011 65.368 19.149 83.388 46.267l0.238 0.382c22.072 31.367 35.276 70.361 35.276 112.439 0 0.471-0.002 0.941-0.005 1.411v-0.072h44.942c-0.024-1.169-0.038-2.546-0.038-3.927 0-42.197 12.762-81.414 34.636-114l-0.465 0.736c20.341-27.063 52.382-44.382 88.469-44.382 0.498 0 0.995 0.003 1.491 0.010l-0.075-0.001c0.262-0.002 0.571-0.004 0.88-0.004 29.725 0 56.602 12.191 75.904 31.846l0.015 0.016c22.207 24.576 36.786 56.426 39.782 91.58l0.040 0.58-46.080 7.396c-0.607-25.19-9.74-48.135-24.61-66.176l0.148 0.185c-10.509-12.57-26.195-20.508-43.735-20.508-0.625 0-1.247 0.010-1.866 0.030l0.090-0.002c-0.238-0.003-0.518-0.005-0.799-0.005-23.455 0-44.077 12.132-55.932 30.464l-0.158 0.261c-11.676 21.741-18.536 47.569-18.536 75 0 3.636 0.121 7.243 0.358 10.819l-0.026-0.485h244.053zM284.444 367.218c0.131-2.359 0.206-5.12 0.206-7.898 0-19.885-3.835-38.874-10.807-56.268l0.361 1.019c-6.735-14.563-17.286-26.394-30.382-34.507l-0.338-0.195c-12.381-8.211-27.585-13.1-43.932-13.1-0.555 0-1.11 0.006-1.662 0.017l0.083-0.001c-1.125-0.079-2.437-0.124-3.76-0.124-14.522 0-27.773 5.441-37.826 14.396l0.057-0.050c-9.174 9.502-14.827 22.456-14.827 36.73 0 0.687 0.013 1.372 0.039 2.053l-0.003-0.098c0.908 9.383 3.965 17.899 8.67 25.26l-0.137-0.229c4.334 9.192 11.44 16.481 20.227 20.933l0.253 0.116c11.895 5.297 25.703 9.284 40.146 11.285l0.814 0.092c10.857 1.854 20.059 4.028 29.046 6.702l-1.739-0.444h45.511zM574.009 290.987c-10.334-18.401-29.152-30.97-51.010-32.417l-0.19-0.010c-0.129-0.001-0.281-0.002-0.433-0.002-14.748 0-28.294 5.149-38.938 13.747l0.118-0.092c-12.234 10.126-21.5 23.431-26.565 38.655l-0.173 0.599c-6.119 18.351-9.657 39.48-9.671 61.433v0.007h150.187c0.009-0.619 0.014-1.35 0.014-2.082 0-29.425-8.036-56.973-22.033-80.569l0.401 0.731z" />
<glyph unicode="&#xe98a;" glyph-name="Underline" d="M176.924-11.662v67.698h670.151v-67.698zM775.396 785.351v-432.924c0.179-3.372 0.28-7.319 0.28-11.291 0-62.080-24.86-118.354-65.167-159.41l0.034 0.034c-45.306-43.539-106.27-71.080-173.639-73.375l-0.441-0.012-24.462-1.707c-4.095-0.22-8.888-0.345-13.71-0.345-67.674 0-129.587 24.67-177.235 65.506l0.368-0.308c-45.055 41.703-73.167 101.153-73.167 167.17 0 4.432 0.127 8.835 0.377 13.204l-0.028-0.605v434.062h92.729v-431.218c-0.154-2.713-0.242-5.887-0.242-9.082 0-43.797 16.498-83.742 43.618-113.957l-0.14 0.159c30.179-27.464 70.47-44.281 114.69-44.281 4.484 0 8.928 0.173 13.325 0.512l-0.583-0.036c3.449-0.254 7.472-0.399 11.529-0.399 43.685 0 83.446 16.806 113.168 44.304l-0.11-0.101c27.328 29.437 44.096 69.008 44.096 112.496 0 3.453-0.106 6.881-0.314 10.282l0.023-0.467v431.787z" />
</font>
</defs>
</svg>
